<?xml version="1.0" encoding="UTF-8" standalone="no"?>
<!-- Created with Inkscape (http://www.inkscape.org/) -->

<svg
   xmlns:dc="http://purl.org/dc/elements/1.1/"
   xmlns:cc="http://creativecommons.org/ns#"
   xmlns:rdf="http://www.w3.org/1999/02/22-rdf-syntax-ns#"
   xmlns:svg="http://www.w3.org/2000/svg"
   xmlns="http://www.w3.org/2000/svg"
   xmlns:sodipodi="http://sodipodi.sourceforge.net/DTD/sodipodi-0.dtd"
   xmlns:inkscape="http://www.inkscape.org/namespaces/inkscape"
   width="256px"
   height="256px"
   viewBox="0 0 256 256"
   version="1.1"
   id="SVGRoot"
   inkscape:version="0.92.3 (2405546, 2018-03-11)"
   sodipodi:docname="imdb.svg">
  <sodipodi:namedview
     id="base"
     pagecolor="#ffffff"
     bordercolor="#666666"
     borderopacity="1.0"
     inkscape:pageopacity="0.0"
     inkscape:pageshadow="2"
     inkscape:zoom="5.6568542"
     inkscape:cx="107.56217"
     inkscape:cy="111.33419"
     inkscape:document-units="px"
     inkscape:current-layer="layer1"
     showgrid="false"
     inkscape:window-width="3840"
     inkscape:window-height="2104"
     inkscape:window-x="-16"
     inkscape:window-y="-16"
     inkscape:window-maximized="1"
     inkscape:grid-bbox="true"
     showguides="false" />
  <defs
     id="defs10" />
  <metadata
     id="metadata13">
    <rdf:RDF>
      <cc:Work
         rdf:about="">
        <dc:format>image/svg+xml</dc:format>
        <dc:type
           rdf:resource="http://purl.org/dc/dcmitype/StillImage" />
        <dc:title></dc:title>
      </cc:Work>
    </rdf:RDF>
  </metadata>
  <g
     id="layer1"
     inkscape:groupmode="layer"
     inkscape:label="Layer 1">
    <g
       id="g843"
       transform="matrix(1.1738135,0,0,1.1738135,-21.804011,-13.864356)">
      <path
         style="fill:#e0bc3f;stroke-width:0.50449997"
         d="m 27.68415,185.14639 c -1.489541,-0.29458 -2.753983,-1.05568 -4.266338,-2.56803 -4.061887,-4.0619 -3.832467,-0.22062 -3.680253,-61.62008 l 0.134998,-54.455234 1.088921,-2.018 c 1.375665,-2.549396 3.456103,-4.534916 5.721829,-5.460776 2.65004,-1.082906 200.152723,-1.08552 202.802113,-0.0027 2.39535,0.979006 3.89546,2.474534 5.4802,5.46346 l 1.33744,2.5225 v 54.77385 54.77385 l -1.52123,2.97459 c -1.1561,2.26064 -2.10474,3.33535 -3.95233,4.47763 l -2.4311,1.50303 -99.29865,0.0273 c -54.614251,0.015 -100.251273,-0.16115 -101.4156,-0.39141 z m 96.74395,-68.06722 c -0.0899,-2.84412 -0.1635,-0.51711 -0.1635,5.17113 0,5.68823 0.0736,8.01524 0.1635,5.17112 0.0899,-2.84412 0.0899,-7.49813 0,-10.34225 z"
         id="path847"
         inkscape:connector-curvature="0" />
      <path
         style="fill:#080603;stroke-width:0.50449997"
         d="m 206.56879,162.31605 c -1.09273,-0.4002 -2.99605,-1.51396 -4.22961,-2.47502 -1.23356,-0.96105 -2.41434,-1.64138 -2.62397,-1.51182 -0.20962,0.12956 -0.53779,0.85974 -0.72926,1.62264 -0.19148,0.7629 -0.61392,1.55615 -0.93877,1.76279 -1.03502,0.65839 -17.21606,0.46467 -17.89497,-0.21424 -0.45993,-0.45993 -0.6054,-9.54792 -0.6054,-37.81976 0,-36.276397 0.0246,-37.227506 0.97583,-37.736594 1.03864,-0.555863 17.03141,-0.743562 18.40615,-0.216024 0.69622,0.267162 0.79802,1.811722 0.79802,12.108 0,8.023638 0.17228,11.801778 0.53816,11.801778 0.29599,0 1.27643,-0.56311 2.17877,-1.25136 2.42911,-1.85277 5.56619,-2.78464 9.37432,-2.78464 6.51797,0 10.48105,2.0232 12.46907,6.36563 l 1.22384,2.67321 -0.15345,19.57045 c -0.15247,19.44425 -0.16121,19.58619 -1.35431,22.00962 -2.76356,5.61338 -10.94267,8.47292 -17.43442,6.09534 z m -2.0013,-11.36222 c 0.90129,-0.99591 0.96107,-2.02819 0.96107,-16.59553 0,-14.6869 -0.0536,-15.59276 -0.98268,-16.61942 -1.29278,-1.4285 -3.32775,-1.19646 -4.16932,0.47542 -0.82127,1.63153 -0.92145,29.48968 -0.11369,31.61426 0.92138,2.42341 2.70732,2.89027 4.30462,1.12527 z M 31.56014,161.76946 c -0.184983,-0.18498 -0.336333,-17.30108 -0.336333,-38.03577 0,-33.911564 0.08018,-37.730211 0.798011,-38.005668 1.377571,-0.528624 17.871325,-0.340209 18.910655,0.216024 0.951239,0.509088 0.975834,1.460197 0.975834,37.736594 0,28.27184 -0.145476,37.35983 -0.6054,37.81976 -0.653914,0.65391 -19.106437,0.90539 -19.742767,0.26906 z m 26.245504,0.0115 c -0.191311,-0.1913 -0.347837,-17.21537 -0.347837,-37.83125 0,-36.542419 0.02452,-37.496524 0.975834,-38.005664 1.485535,-0.795034 24.333922,-0.697459 25.377465,0.108375 0.615414,0.475227 1.325745,4.111529 2.882637,14.756629 2.446411,16.72711 2.521269,17.12884 3.08642,16.56369 0.240228,-0.24023 1.348836,-7.24369 2.463564,-15.56324 1.620404,-12.093507 2.199439,-15.252898 2.887859,-15.757079 1.099815,-0.805474 23.937434,-0.902832 25.421884,-0.108375 0.95126,0.509095 0.97584,1.46064 0.97584,37.775724 0,31.09786 -0.11529,37.34916 -0.69772,37.83253 -0.47835,0.397 -3.29386,0.53538 -8.95488,0.44015 l -8.25715,-0.1389 -0.25225,-21.52586 c -0.13874,-11.83923 -0.39489,-21.66826 -0.56923,-21.84231 -0.45094,-0.4502 -1.11563,3.6034 -4.007658,24.44078 -1.522984,10.97326 -2.795364,18.55878 -3.150945,18.7849 -0.328031,0.20861 -3.15532,0.38276 -6.282862,0.38701 -5.425766,0.007 -5.707857,-0.0443 -6.153684,-1.1274 -0.256982,-0.62432 -1.624793,-9.081 -3.039577,-18.79262 -2.899538,-19.90352 -3.538457,-23.62332 -3.981595,-23.18083 -0.170334,0.17009 -0.423215,9.88234 -0.561952,21.58279 l -0.25225,21.27354 -8.607038,0.13762 c -4.733875,0.0757 -8.763568,-0.0189 -8.954875,-0.21021 z m 69.651536,0.0341 c -0.2081,-0.21008 -0.37837,-17.21207 -0.37837,-37.78222 0,-28.416432 0.14542,-37.545691 0.6054,-38.005669 0.75221,-0.752212 16.05636,-0.813499 26.41826,-0.105795 11.56021,0.789548 16.5406,3.080446 19.45607,8.949486 l 1.19552,2.406674 0.14777,25.923614 c 0.0996,17.47044 -0.0333,26.79609 -0.40768,28.59926 -0.97826,4.71224 -3.61612,7.45602 -8.77651,9.12891 -2.12333,0.68834 -5.6194,0.86984 -20.22458,1.04995 -9.71163,0.11977 -17.82777,0.0459 -18.03588,-0.1642 z m 25.1551,-14.11339 c 0.58588,-0.36441 1.2102,-1.38739 1.38738,-2.27329 0.17718,-0.88589 0.32215,-11.12771 0.32215,-22.75959 v -21.14887 l -1.26835,-1.26835 c -0.98824,-0.98823 -1.68461,-1.233859 -3.15313,-1.11219 l -1.88477,0.156156 -0.13106,24.158364 c -0.094,17.31842 0.0295,24.35185 0.4361,24.84175 0.62776,0.7564 2.5479,0.49065 4.29168,-0.59396 z"
         id="path845"
         inkscape:connector-curvature="0" />
    </g>
  </g>
</svg>
