<?xml version="1.0" encoding="UTF-8" standalone="no"?>
<!-- Created with Inkscape (http://www.inkscape.org/) -->

<svg
   xmlns:dc="http://purl.org/dc/elements/1.1/"
   xmlns:cc="http://creativecommons.org/ns#"
   xmlns:rdf="http://www.w3.org/1999/02/22-rdf-syntax-ns#"
   xmlns:svg="http://www.w3.org/2000/svg"
   xmlns="http://www.w3.org/2000/svg"
   xmlns:sodipodi="http://sodipodi.sourceforge.net/DTD/sodipodi-0.dtd"
   xmlns:inkscape="http://www.inkscape.org/namespaces/inkscape"
   width="256px"
   height="256px"
   viewBox="0 0 256 256"
   version="1.1"
   id="SVGRoot"
   inkscape:version="0.92.3 (2405546, 2018-03-11)"
   sodipodi:docname="linkedin.svg">
  <sodipodi:namedview
     id="base"
     pagecolor="#ffffff"
     bordercolor="#666666"
     borderopacity="1.0"
     inkscape:pageopacity="0.0"
     inkscape:pageshadow="2"
     inkscape:zoom="3.6203867"
     inkscape:cx="-90.089849"
     inkscape:cy="138.67045"
     inkscape:document-units="px"
     inkscape:current-layer="g37"
     showgrid="false"
     inkscape:window-width="3840"
     inkscape:window-height="2104"
     inkscape:window-x="-16"
     inkscape:window-y="-16"
     inkscape:window-maximized="1"
     inkscape:grid-bbox="true" />
  <defs
     id="defs10" />
  <metadata
     id="metadata13">
    <rdf:RDF>
      <cc:Work
         rdf:about="">
        <dc:format>image/svg+xml</dc:format>
        <dc:type
           rdf:resource="http://purl.org/dc/dcmitype/StillImage" />
        <dc:title></dc:title>
      </cc:Work>
    </rdf:RDF>
  </metadata>
  <g
     id="layer1"
     inkscape:groupmode="layer"
     inkscape:label="Layer 1">
    <g
       id="g37"
       transform="translate(-272.89902,-45.575242)">
      <path
         style="fill:#1a74ba;stroke-width:0.11007449"
         d="m 279.73648,300.01278 c -0.39297,-0.0597 -0.4048,-0.0698 -0.11007,-0.0938 l 0.33022,-0.0269 -0.35498,-0.0843 c -0.56274,-0.13375 -0.89238,-0.41008 -1.02094,-0.85588 -0.0852,-0.29532 -0.11002,-24.28897 -0.0871,-84.09429 l 0.0321,-83.68107 0.25072,-0.25073 0.25072,-0.25072 25.56175,-0.0279 c 24.17637,-0.0264 25.58221,-0.0174 25.93919,0.16511 0.20759,0.10613 0.48002,0.33282 0.60541,0.50374 l 0.22797,0.31078 0.0318,83.23576 c 0.0175,45.77967 0.002,83.44605 -0.0342,83.70305 -0.0915,0.64782 -0.50507,1.10949 -1.08089,1.20658 -0.45302,0.0764 -0.45435,0.0779 -0.12755,0.15178 0.31321,0.0708 0.30754,0.0755 -0.11007,0.0916 -1.42656,0.0549 -49.94221,0.0522 -50.30405,-0.003 z m 31.9026,-0.1807 c -3.64291,-0.0161 -9.63646,-0.0161 -13.31901,-2e-5 -3.68255,0.0161 -0.70199,0.0292 6.62347,0.0292 7.32546,10e-6 10.33845,-0.0131 6.69554,-0.0292 z m 53.79039,0.20127 c -0.32947,-0.0768 -0.34541,-0.0935 -0.11007,-0.11552 0.26043,-0.0244 0.25748,-0.03 -0.055,-0.10545 -0.53011,-0.12793 -0.81001,-0.32032 -1.01705,-0.69907 -0.1845,-0.33752 -0.19377,-4.35088 -0.19377,-83.84598 0,-73.99892 0.0188,-83.52792 0.16511,-83.81182 0.0908,-0.17618 0.30496,-0.42385 0.47588,-0.55038 l 0.31077,-0.23004 24.26515,-0.0283 c 21.1488,-0.0246 24.3149,-0.007 24.65258,0.13363 0.74367,0.31072 0.70974,-0.24405 0.70974,11.60224 0,10.99296 0,10.98882 0.3986,10.70987 0.0569,-0.0398 0.66159,-0.8718 1.34376,-1.84887 9.10378,-13.03947 21.92406,-21.21199 37.35609,-23.81332 9.28329,-1.56485 19.19385,-1.40856 28.70743,0.45273 8.95718,1.75243 16.15551,4.6055 21.909,8.68368 8.47174,6.00491 14.37771,14.33141 18.22873,25.69966 2.32327,6.8583 3.71159,13.25669 4.38271,20.19867 0.43377,4.48686 1.12284,20.33813 1.26325,29.05967 l 0.0806,5.00838 0.04,-3.35727 c 0.0323,-2.71555 0.0539,-2.02123 0.11285,3.63246 0.1049,10.05863 0.10457,81.30562 0,81.89542 -0.0747,0.41976 -0.0922,0.44494 -0.11468,0.16511 -0.0186,-0.23109 -0.0405,-0.26413 -0.0731,-0.11007 -0.0256,0.12108 -0.0701,0.33069 -0.0989,0.46581 -0.12992,0.60971 0.89372,0.57758 -19.33424,0.60694 l -18.63558,0.027 18.65763,0.0555 18.65762,0.0555 -25.15202,0.055 c -13.83361,0.0303 -25.35015,0.0335 -25.59232,0.007 -0.43417,-0.0471 -0.4357,-0.0488 -0.11007,-0.12456 l 0.33022,-0.0768 -0.3493,-0.013 c -0.46327,-0.0173 -0.99204,-0.47622 -1.13287,-0.98325 -0.076,-0.27363 -0.11359,-15.13429 -0.11547,-45.64632 -0.002,-26.45391 -0.0461,-46.38336 -0.10719,-47.99248 -0.27781,-7.32314 -1.47718,-13.14393 -3.78971,-18.39211 -3.06166,-6.94827 -8.00115,-11.22871 -14.97931,-12.98071 -5.39699,-1.35502 -13.40218,-1.21254 -18.77585,0.33416 -11.13497,3.20499 -17.41481,11.39345 -19.7941,25.81012 -0.39543,2.39598 -0.61883,4.34372 -0.77644,6.76959 -0.0629,0.96865 -0.14343,2.03362 -0.17886,2.3666 -0.0354,0.33297 -0.0976,20.7518 -0.13804,45.37517 l -0.0736,44.76975 -0.25072,0.25071 -0.25072,0.25071 -18.8472,0.055 -18.84721,0.055 18.71266,0.0555 18.71267,0.0555 -21.73972,0.0273 c -11.95684,0.015 -23.25048,0.0493 -25.09698,0.0763 -1.8465,0.0269 -3.53064,0.009 -3.74253,-0.0407 z M 301.64131,107.5023 c -7.29334,-0.80912 -13.72028,-3.91318 -18.71934,-9.041011 -4.63042,-4.749691 -7.50879,-10.6779 -8.35371,-17.205077 -0.0937,-0.723977 -0.17894,-1.590814 -0.18939,-1.926304 l -0.019,-0.609982 -0.0639,0.715484 c -0.0576,0.644862 -0.0729,0.566092 -0.15497,-0.79804 -0.0963,-1.600493 0.0376,-5.160832 0.14595,-3.880125 0.054,0.638664 0.0586,0.624143 0.13824,-0.440298 0.16173,-2.161388 0.70642,-4.868194 1.4041,-6.97769 2.17521,-6.576937 6.29048,-11.996445 11.99766,-15.800024 2.17114,-1.44697 5.52747,-3.004555 8.0474,-3.734592 2.11026,-0.611353 5.06741,-1.13254 6.75433,-1.190427 0.53478,-0.01835 0.52927,-0.02117 -0.16182,-0.08263 -0.63082,-0.0561 -0.52859,-0.07437 0.86387,-0.154399 1.73482,-0.0997 5.14488,0.03423 3.92437,0.154136 l -0.66045,0.06488 0.57225,0.0185 c 0.905,0.02926 3.02498,0.330496 4.47861,0.636373 4.12647,0.86831 8.62104,2.968168 12.06572,5.637099 1.25807,0.974744 3.56259,3.236272 4.67458,4.587369 8.47081,10.292236 9.38454,24.765507 2.27587,36.049395 -1.2161,1.930376 -3.42532,4.561742 -5.08986,6.062461 -4.75927,4.290875 -10.27513,6.869875 -16.61057,7.766455 -1.37106,0.19403 -6.05315,0.28898 -7.31995,0.14844 z"
         id="path39"
         inkscape:connector-curvature="0" />
    </g>
  </g>
</svg>
