<?xml version="1.0" encoding="UTF-8" standalone="no"?>
<!-- Created with Inkscape (http://www.inkscape.org/) -->

<svg
   xmlns:dc="http://purl.org/dc/elements/1.1/"
   xmlns:cc="http://creativecommons.org/ns#"
   xmlns:rdf="http://www.w3.org/1999/02/22-rdf-syntax-ns#"
   xmlns:svg="http://www.w3.org/2000/svg"
   xmlns="http://www.w3.org/2000/svg"
   xmlns:sodipodi="http://sodipodi.sourceforge.net/DTD/sodipodi-0.dtd"
   xmlns:inkscape="http://www.inkscape.org/namespaces/inkscape"
   width="256px"
   height="256px"
   viewBox="0 0 256 256"
   version="1.1"
   id="SVGRoot"
   inkscape:version="0.92.3 (2405546, 2018-03-11)"
   sodipodi:docname="twitter.svg">
  <sodipodi:namedview
     id="base"
     pagecolor="#ffffff"
     bordercolor="#666666"
     borderopacity="1.0"
     inkscape:pageopacity="0.0"
     inkscape:pageshadow="2"
     inkscape:zoom="4.8323231"
     inkscape:cx="95.756835"
     inkscape:cy="151.28141"
     inkscape:document-units="px"
     inkscape:current-layer="g96"
     showgrid="false"
     inkscape:window-width="3840"
     inkscape:window-height="2104"
     inkscape:window-x="-16"
     inkscape:window-y="-16"
     inkscape:window-maximized="1"
     inkscape:grid-bbox="true" />
  <defs
     id="defs10" />
  <metadata
     id="metadata13">
    <rdf:RDF>
      <cc:Work
         rdf:about="">
        <dc:format>image/svg+xml</dc:format>
        <dc:type
           rdf:resource="http://purl.org/dc/dcmitype/StillImage" />
        <dc:title></dc:title>
      </cc:Work>
    </rdf:RDF>
  </metadata>
  <g
     id="layer1"
     inkscape:groupmode="layer"
     inkscape:label="Layer 1">
    <g
       id="g96">
      <path
         style="fill:#1ca0f1;stroke-width:0.9924041"
         d="m 63.391671,229.48856 c -17.027709,-2.37498 -32.20739,-7.12864 -47.883497,-14.99516 -5.321767,-2.67054 -9.6759405,-5.0092 -9.6759405,-5.197 0,-0.18781 2.1873098,-0.1313 4.8606885,0.12557 12.476537,1.19883 35.590606,-3.63533 49.02251,-10.25276 8.519175,-4.19711 19.554705,-11.22603 19.554705,-12.4551 0,-0.48172 -1.674682,-0.88114 -3.721515,-0.88762 -7.967599,-0.0252 -18.237731,-4.02358 -27.312474,-10.63328 -4.95792,-3.61116 -12.392517,-13.18911 -14.860982,-19.14531 l -1.447071,-3.49167 9.03306,-0.10798 c 8.796387,-0.10516 15.726471,-1.56335 12.506475,-2.63156 -13.835498,-4.5898 -21.371113,-9.26117 -28.24285,-17.50791 -6.44086,-7.72965 -11.453314,-20.20994 -11.453314,-28.51708 v -3.22965 l 4.246539,1.82029 c 4.466064,1.91437 13.309241,4.0636 16.720031,4.0636 1.542718,0 0.407085,-1.56548 -4.859417,-6.698725 C 17.586049,87.765666 12.009536,71.687737 14.634148,55.795106 c 0.979489,-5.93103 4.605827,-16.832642 5.599249,-16.832642 0.1447,0 3.774006,3.617696 8.065126,8.039324 18.889315,19.46381 43.153965,33.476785 69.572117,40.178299 9.25843,2.348594 27.64805,5.123092 28.44423,4.291468 0.21478,-0.224332 -0.0197,-2.864076 -0.52115,-5.866099 -2.86958,-17.180755 5.58447,-36.526713 20.67866,-47.320315 8.42376,-6.023695 15.66469,-8.471143 26.68808,-9.02062 14.49641,-0.722596 23.08118,1.952097 34.84567,10.856605 l 6.18561,4.68188 7.21761,-1.998363 c 3.96968,-1.099099 10.87505,-3.711415 15.34526,-5.805146 8.03558,-3.76365 8.1171,-3.778962 7.1941,-1.351306 -2.75154,7.237102 -8.79447,15.138498 -15.59509,20.391293 -2.87945,2.224082 -5.05919,4.219969 -4.84385,4.435305 0.6269,0.6269 14.81584,-2.51529 21.06175,-4.664198 3.14478,-1.081963 5.87069,-1.814296 6.05758,-1.627407 0.74959,0.74959 -12.61458,15.332268 -17.8732,19.502833 l -5.61755,4.45523 v 5.756027 c 0,15.706948 -4.1959,38.000416 -10.02532,53.266116 -7.64559,20.02178 -18.05894,36.06288 -33.62217,51.79281 -20.44808,20.66709 -42.29825,32.48662 -71.35657,38.59931 -10.96817,2.30726 -38.290917,3.39083 -48.742619,1.93305 z"
         id="path98"
         inkscape:connector-curvature="0" />
    </g>
  </g>
</svg>
