<?xml version="1.0" encoding="UTF-8" standalone="no"?>
<!-- Created with Inkscape (http://www.inkscape.org/) -->

<svg
   xmlns:dc="http://purl.org/dc/elements/1.1/"
   xmlns:cc="http://creativecommons.org/ns#"
   xmlns:rdf="http://www.w3.org/1999/02/22-rdf-syntax-ns#"
   xmlns:svg="http://www.w3.org/2000/svg"
   xmlns="http://www.w3.org/2000/svg"
   xmlns:sodipodi="http://sodipodi.sourceforge.net/DTD/sodipodi-0.dtd"
   xmlns:inkscape="http://www.inkscape.org/namespaces/inkscape"
   width="256px"
   height="256px"
   viewBox="0 0 256 256"
   version="1.1"
   id="SVGRoot"
   inkscape:version="0.92.3 (2405546, 2018-03-11)"
   sodipodi:docname="blog.svg">
  <sodipodi:namedview
     id="base"
     pagecolor="#ffffff"
     bordercolor="#666666"
     borderopacity="1.0"
     inkscape:pageopacity="0.0"
     inkscape:pageshadow="2"
     inkscape:zoom="5.6568542"
     inkscape:cx="138.81651"
     inkscape:cy="128.89244"
     inkscape:document-units="px"
     inkscape:current-layer="layer1"
     showgrid="false"
     inkscape:window-width="3840"
     inkscape:window-height="2104"
     inkscape:window-x="-16"
     inkscape:window-y="-16"
     inkscape:window-maximized="1"
     inkscape:grid-bbox="true" />
  <defs
     id="defs10" />
  <metadata
     id="metadata13">
    <rdf:RDF>
      <cc:Work
         rdf:about="">
        <dc:format>image/svg+xml</dc:format>
        <dc:type
           rdf:resource="http://purl.org/dc/dcmitype/StillImage" />
        <dc:title></dc:title>
      </cc:Work>
    </rdf:RDF>
  </metadata>
  <g
     id="layer1"
     inkscape:groupmode="layer"
     inkscape:label="Layer 1">
    <path
       style="fill:#ffffff;stroke-width:0.28625253"
       d="m 111.92212,244.63358 c -1.58652,-0.26892 -6.67491,-0.88952 -8.01507,-0.97754 -0.93148,-0.0612 -8.612329,-1.32637 -12.308864,-2.0275 -2.244718,-0.42577 -3.712156,-0.6766 -7.15631,-1.22322 -0.94463,-0.14992 -2.297177,-0.48344 -3.005652,-0.74115 -1.724924,-0.62745 -2.016475,-0.70386 -5.054121,-1.32455 -1.441536,-0.29455 -3.116114,-0.72326 -3.721284,-0.95267 -0.605169,-0.22942 -2.06641,-0.69355 -3.247202,-1.03143 -4.166866,-1.19232 -4.743992,-1.37975 -6.906315,-2.24291 -1.200729,-0.47931 -3.004121,-1.07911 -4.007536,-1.3329 -1.003412,-0.25378 -2.404049,-0.72787 -3.112524,-1.0535 -3.915376,-1.79967 -4.814817,-2.30415 -5.633882,-3.15991 -1.091865,-1.14079 -2.714902,-4.27637 -2.804754,-5.41857 -0.03591,-0.45645 -0.148517,-0.91315 -0.250239,-1.01487 -0.101726,-0.10173 -0.184954,-0.42516 -0.184954,-0.71873 0,-0.29358 -0.178764,-0.60238 -0.397258,-0.68623 -0.218491,-0.0838 -0.471283,-0.52259 -0.561765,-0.97498 -0.142001,-0.71002 -0.312825,-0.83477 -1.248693,-0.91202 -0.944098,-0.0779 -1.095912,-0.19141 -1.174921,-0.87831 -0.06389,-0.55537 0.06319,-0.84569 0.429378,-0.981 0.889905,-0.32882 0.944886,-0.75845 0.218869,-1.7103 -0.869099,-1.13945 -0.944928,-2.38805 -0.145029,-2.38805 0.305586,0 0.645158,-0.14489 0.754606,-0.32199 0.29637,-0.47952 0.403629,-2.82679 0.129172,-2.82679 -0.267468,0 -0.703957,-1.75471 -1.174903,-4.72316 -0.174843,-1.10208 -0.681183,-4.06479 -1.125202,-6.58382 -1.010228,-5.73129 -1.227296,-9.37778 -1.243922,-20.89643 -0.01394,-9.65558 0.142199,-11.87948 0.83404,-11.87948 0.296652,0 0.41184,-0.35665 0.41184,-1.27516 0,-1.24395 0.02593,-1.28004 1.059676,-1.47397 1.167775,-0.21908 1.277773,-0.29165 3.100072,-2.0456 0.695193,-0.66911 1.460595,-1.21658 1.700895,-1.21658 0.240304,0 0.436913,-0.11938 0.436913,-0.26528 0,-0.30544 1.616961,-1.16598 2.190875,-1.16598 0.211969,0 0.385398,-0.25763 0.385398,-0.5725 0,-0.38991 0.190836,-0.57251 0.598334,-0.57251 0.329084,0 0.937428,-0.38644 1.351879,-0.85876 0.414451,-0.47231 0.904303,-0.85875 1.088558,-0.85875 0.184255,0 0.409153,-0.19322 0.499777,-0.42938 0.09062,-0.23616 0.284,-0.42938 0.429731,-0.42938 0.145731,0 0.678651,-0.38644 1.184267,-0.85876 0.505617,-0.47231 1.034195,-0.85876 1.17462,-0.85876 0.140421,0 0.696945,-0.41864 1.236714,-0.93031 0.680843,-0.64541 1.009796,-1.23716 1.074111,-1.93221 0.07895,-0.85311 0.209846,-1.01536 0.881535,-1.09261 0.492887,-0.0567 0.848853,0.0657 0.948836,0.32625 0.122665,0.31966 0.406258,0.19082 1.214944,-0.55197 0.580214,-0.53293 1.183746,-0.97385 1.341185,-0.97984 0.157438,-0.006 0.608286,-0.28291 1.001883,-0.61539 0.496122,-0.41907 0.600509,-0.64477 0.340318,-0.7358 -0.294806,-0.10313 -0.277926,-0.23891 0.07869,-0.63296 0.411242,-0.45441 0.413652,-0.75488 0.02559,-3.19065 -0.235614,-1.47895 -0.495921,-3.26866 -0.578456,-3.97713 -0.259571,-2.22818 -0.721506,-5.52126 -1.003848,-7.15632 -0.149527,-0.86591 -0.341216,-2.02665 -0.425972,-2.57944 -0.120902,-0.78847 -0.4922,-1.27482 -1.723086,-2.25702 -1.864584,-1.48786 -3.637087,-3.75063 -4.14502,-5.29152 -0.601093,-1.82352 -0.268307,-5.26928 0.662254,-6.85717 1.030609,-1.7586 3.89734,-4.55784 6.234062,-6.08728 2.240988,-1.46679 7.840999,-4.17492 9.893627,-4.78448 0.795332,-0.23619 1.81681,-0.61932 2.269948,-0.8514 0.896938,-0.45937 9.372583,-2.20696 10.703589,-2.20696 0.451542,0 0.888569,-0.10937 0.971184,-0.24305 0.354118,-0.572967 9.050768,-0.939286 14.768702,-0.622075 l 2.1469,0.119105 0.87155,-1.702326 c 0.47934,-0.936277 1.1444,-2.368774 1.47789,-3.183326 l 0.60635,-1.481007 -0.68565,-0.929345 c -0.94363,-1.279014 -1.66093,-3.415308 -2.40324,-7.157449 -0.43818,-2.208948 -0.35261,-9.874706 0.14509,-12.996407 0.22591,-1.416951 0.67255,-3.606782 0.99254,-4.866293 0.31999,-1.259512 0.62287,-2.547648 0.67307,-2.862525 0.17473,-1.096054 0.87256,-2.719429 1.17087,-2.723782 0.18378,-0.0025 0.17233,-0.08599 -0.0295,-0.21469 -0.38997,-0.248662 0.83744,-4.295654 2.01217,-6.634492 1.8414,-3.666148 5.4526,-9.050529 9.27532,-13.829705 2.97583,-3.720398 10.6068,-11.522724 12.10703,-12.378899 0.27587,-0.157439 0.99578,-0.738451 1.5998,-1.29114 0.60402,-0.552688 1.67746,-1.454384 2.38541,-2.003769 0.70797,-0.549384 1.48084,-1.151488 1.71752,-1.33801 1.7663,-1.391979 3.37759,-2.50397 4.75338,-3.280419 0.88508,-0.499512 2.00997,-1.274206 2.49973,-1.721542 0.48978,-0.447337 1.05501,-0.829439 1.25608,-0.84912 1.45045,-0.141962 2.30179,-0.09086 2.77643,0.16665 1.0582,0.574131 2.31183,2.262464 3.12346,4.206558 0.45008,1.078071 0.9188,1.96013 1.04159,1.96013 0.27148,0 2.08404,-3.366513 3.39066,-6.297556 1.12807,-2.530514 2.33218,-4.514904 2.86326,-4.7187 0.20861,-0.08005 0.63023,-0.01124 0.93696,0.152923 0.72028,0.385476 1.11836,0.125428 1.11836,-0.730558 0,-0.382606 0.28301,-0.881735 0.64407,-1.135911 1.16357,-0.819119 10.57911,-3.5714163 13.74055,-4.0165626 0.66888,-0.094186 1.4194,-0.2308311 1.66782,-0.3036665 0.24842,-0.07284 3.01792,-0.3821122 6.15443,-0.6872799 5.48823,-0.5339793 11.06145,-0.6163339 12.85906,-0.1900171 6.57754,1.5599076 9.96623,3.2682036 12.29857,6.1999141 0.62267,0.782688 2.60885,5.231533 2.89693,6.488845 0.38963,1.700511 0.46112,7.097204 0.12206,9.213443 -0.29592,1.846913 -1.55971,6.802531 -2.52684,9.908373 -0.42675,1.370464 -1.82246,4.215387 -2.54107,5.179566 -0.3631,0.487179 -0.66019,1.283877 -0.66019,1.770444 0,2.398403 -2.1769,4.577029 -6.79819,6.803579 -1.85007,0.891369 -3.81461,1.847508 -4.36565,2.124752 -0.55104,0.277244 -1.58788,0.645582 -2.30409,0.818528 -0.71621,0.172947 -1.73595,0.496822 -2.26608,0.719725 l -0.96387,0.405275 1.2642,0.570894 c 0.6953,0.313991 1.71504,1.045964 2.26607,1.626604 0.97325,1.025537 0.99992,1.11453 0.93339,3.113286 -0.0943,2.833851 -0.43833,3.553667 -1.88429,3.943026 -1.58025,0.425514 -5.83067,2.550131 -10.06982,5.033493 -3.73729,2.189362 -12.22763,6.964301 -12.38326,6.964301 -0.38619,0 -3.2175,1.523768 -3.2175,1.731616 0,0.128241 0.37716,0.501735 0.83814,0.829981 1.23221,0.877409 1.59441,2.223137 0.99891,3.711418 -0.26135,0.653195 -0.77123,1.344577 -1.13305,1.536403 -0.36182,0.191829 -1.24823,0.903637 -1.9698,1.581794 -0.75705,0.711519 -1.4514,1.146823 -1.64168,1.029219 -0.18889,-0.116731 -0.25247,-0.07873 -0.14883,0.08896 0.0995,0.161014 -0.70438,0.881446 -1.78643,1.600959 -4.88243,3.246593 -13.78262,6.907139 -18.62997,7.66229 -0.86592,0.1349 -2.73372,0.5136 -4.15067,0.841556 -1.41695,0.32797 -3.41356,0.661808 -4.43692,0.741875 -1.02334,0.08009 -2.80385,0.267027 -3.95668,0.415477 -1.15282,0.14845 -4.34943,0.2699 -7.10357,0.2699 -4.94696,0 -5.70262,-0.119338 -6.63037,-1.047088 -0.56654,-0.566533 -0.82696,-0.474848 -1.14476,0.403023 -0.15674,0.432957 -0.37124,0.999331 -0.47668,1.258625 -0.15869,0.39023 0.0704,0.50609 1.33043,0.67274 6.00172,0.79379 15.38768,3.78632 17.57857,5.6046 0.18315,0.15201 1.21827,0.70786 2.30024,1.23522 3.92187,1.91153 7.13054,6.28657 7.10971,9.6941 -0.008,1.31348 -0.20962,2.02532 -0.99322,3.50727 -0.54073,1.02263 -1.20706,1.93038 -1.48072,2.01724 -0.27367,0.0869 -0.99409,0.78151 -1.60093,1.54369 -1.1402,1.43202 -1.3038,1.97214 -2.47566,8.17275 -0.59645,3.15601 -1.10033,7.80487 -0.88391,8.15505 0.0984,0.15916 0.33519,0.2894 0.52625,0.2894 0.33719,0 0.59924,0.44811 1.84147,3.14878 0.92388,2.00859 3.35955,4.46228 6.77324,6.82337 2.63539,1.82276 5.82772,4.30323 7.96457,6.18853 0.27553,0.24309 0.57085,0.44197 0.6563,0.44197 0.26672,0 3.22982,2.26057 4.17795,3.1874 0.49689,0.48573 1.06253,0.9065 1.25695,0.93503 0.7434,0.10911 2.4286,1.66263 2.60635,2.40269 0.10227,0.42587 0.42177,1.2453 0.70997,1.82093 0.80296,1.60375 1.14428,6.56023 0.97854,14.21001 -0.0809,3.73166 -0.20774,7.23568 -0.28197,7.78671 -0.0742,0.55103 -0.20997,2.1612 -0.30165,3.57815 -0.0917,1.41695 -0.28748,3.92882 -0.43512,5.58193 -0.14763,1.65311 -0.40077,4.74464 -0.56254,6.87006 -0.16176,2.12543 -0.35009,4.37967 -0.41851,5.00942 -0.0684,0.62976 -0.26709,2.81959 -0.44149,4.86629 -0.17441,2.04671 -0.4975,4.8162 -0.71798,6.15444 -0.22049,1.33823 -0.47551,2.88399 -0.56672,3.43502 -0.0913,0.55104 -0.22699,2.35443 -0.30173,4.00754 -0.0747,1.65311 -0.3329,3.53716 -0.57365,4.1868 -0.40223,1.08527 -0.61374,1.25501 -2.60617,2.09136 -1.19264,0.50062 -2.23892,0.83972 -2.3251,0.75354 -0.0862,-0.0862 -0.31727,-0.0234 -0.51354,0.1395 -0.19628,0.16289 -1.17423,0.53602 -2.17324,0.82918 -1.81431,0.53241 -4.17016,1.32332 -5.2514,1.76301 -1.17623,0.47833 -5.15804,1.6884 -6.13903,1.86566 -0.5595,0.1011 -1.33931,0.34133 -1.7329,0.53384 -1.01063,0.49431 -9.03807,2.32301 -12.45199,2.83664 -1.57439,0.23687 -4.33279,0.65118 -6.12979,0.92069 -2.30242,0.3453 -3.42246,0.64522 -3.79284,1.0156 -0.56383,0.56381 -1.01432,0.59376 -3.24499,0.21564 z m -3.21728,-9.25261 c 0.10324,0.10325 8.01331,-0.89178 9.37884,-1.17979 0.39751,-0.0838 1.42802,-0.20075 2.29002,-0.2598 0.86199,-0.0591 1.76048,-0.1726 1.99664,-0.25233 0.23616,-0.0798 1.45988,-0.29726 2.7194,-0.4834 1.25951,-0.18613 4.54426,-0.89206 7.29943,-1.56871 2.75519,-0.67667 5.46028,-1.30292 6.01131,-1.39169 3.6784,-0.59254 9.16008,-1.97098 9.16008,-2.30343 0,-0.0193 0.38888,-1.12889 0.86419,-2.46582 0.50525,-1.42118 0.97705,-3.50084 1.13592,-5.00707 0.14946,-1.41695 0.46357,-3.99322 0.69804,-5.72505 0.23446,-1.73183 0.49803,-3.79284 0.58571,-4.58004 0.0877,-0.78719 0.27891,-2.39737 0.42495,-3.57816 0.43647,-3.52903 1.14803,-10.09514 1.61311,-14.88512 0.084,-0.86592 0.33807,-2.83007 0.56444,-4.36477 0.22638,-1.53471 0.38639,-2.88725 0.35559,-3.00566 -0.0308,-0.11839 0.10306,-1.50341 0.29745,-3.07779 0.68339,-5.53478 1.07249,-9.73894 0.95865,-10.35782 -0.0632,-0.34388 -0.90671,-1.24476 -1.87433,-2.00197 -0.96762,-0.75721 -2.01693,-1.63679 -2.33181,-1.95463 -0.31489,-0.31784 -1.15218,-1.04166 -1.86065,-1.60849 -0.70848,-0.56683 -1.88744,-1.62155 -2.61994,-2.34383 -1.37113,-1.35199 -6.37137,-5.57828 -10.20828,-8.62819 -0.20693,-0.16449 -1.2186,-1.07195 -2.24816,-2.01658 -1.02956,-0.94464 -1.99391,-1.76263 -2.143,-1.81778 -0.14909,-0.0551 -0.58819,-0.6026 -0.97577,-1.21657 -0.38758,-0.61397 -0.9285,-1.11768 -1.20204,-1.11936 -0.54323,-0.003 -2.07346,-1.47097 -2.61855,-2.51141 -0.49945,-0.95335 -0.17882,-4.7533 1.08002,-12.80005 0.29557,-1.88927 0.50273,-3.47571 0.46037,-3.52541 -0.0423,-0.0497 -0.59103,0.048 -1.21925,0.21719 -0.69245,0.18645 -1.40753,0.20941 -1.81601,0.0584 -0.43393,-0.16052 -1.08211,-0.11547 -1.82076,0.12656 -3.62643,1.1882 -5.18881,1.48562 -8.07703,1.53757 -0.34786,0.006 -0.94803,0.3517 -1.33369,0.76762 -0.44275,0.47748 -0.8715,0.69089 -1.16315,0.57897 -0.25407,-0.0974 -1.13526,0.0732 -1.95821,0.37928 -0.82295,0.3061 -1.7539,0.5393 -2.06878,0.51821 -0.31487,-0.021 -1.22947,0.24838 -2.03242,0.59881 -1.23114,0.53727 -1.44061,0.73814 -1.33669,1.28179 0.0701,0.3668 -0.0701,0.80523 -0.3255,1.01712 -0.90808,0.75364 -2.00303,-0.41349 -1.35756,-1.44705 0.34392,-0.55069 0.14022,-0.66387 -0.64947,-0.36084 -0.24903,0.0956 -0.45279,0.40183 -0.45279,0.68059 0,0.96913 -0.72202,1.24118 -1.8604,0.70098 -1.0091,-0.47885 -1.045454,-0.47582 -1.464074,0.12184 -0.6747,0.96326 -2.31168,0.60151 -1.91821,-0.42391 0.19355,-0.50437 -0.16516,-0.50609 -0.74607,-0.004 -0.750899,0.64956 -1.915743,0.80284 -2.32783,0.3063 -0.201862,-0.24322 -0.61534,-0.57512 -0.918828,-0.73755 -0.440103,-0.23553 -0.636483,-0.17442 -0.970097,0.30188 -0.761659,1.08743 -2.9621,0.58934 -2.9621,-0.67048 0,-0.32545 -0.296789,-0.45528 -1.07345,-0.46955 -0.5904,-0.0109 -1.395481,-0.0675 -1.789075,-0.12581 -5.673375,-0.84111 -7.264894,-1.00069 -7.42573,-0.74456 -0.08798,0.14011 -0.675221,0.23668 -1.304977,0.2146 l -1.14501,-0.0401 -0.211318,1.86064 c -0.116223,1.02335 -0.232076,5.17779 -0.257452,9.23209 -0.0314,5.0168 -0.14803,7.456 -0.365123,7.63617 -0.175445,0.14561 -0.856557,0.3185 -1.513587,0.38419 -1.132578,0.11326 -2.280806,0.66405 -3.234444,1.55149 -0.236159,0.21977 -1.331074,0.93279 -2.433147,1.58451 -1.102072,0.65172 -2.873726,1.80551 -3.937009,2.56398 -1.063282,0.75847 -2.002679,1.37903 -2.087553,1.37903 -0.234206,0 -3.166194,2.20269 -5.120286,3.84668 -0.955084,0.80352 -2.122957,1.75829 -2.595274,2.1217 -0.472316,0.36342 -1.648798,1.42183 -2.614404,2.35202 -1.64013,1.57998 -1.769577,1.7998 -1.967352,3.34081 -0.116438,0.90724 -0.199815,3.64615 -0.185282,6.08645 0.02471,4.14702 0.175367,6.4937 0.900565,14.02638 0.668102,6.9396 0.873425,8.82656 1.152458,10.59134 0.161804,1.02336 0.418376,2.95556 0.570158,4.29379 0.151783,1.33823 0.326216,2.69077 0.387629,3.00565 0.06142,0.31488 0.203383,1.66742 0.315485,3.00566 0.228094,2.7229 0.272235,3.0616 0.757272,5.8107 0.326975,1.85322 0.401051,1.9801 1.548867,2.65277 3.951971,2.316 15.899771,6.41983 30.336131,10.41981 0.629753,0.17449 2.883992,0.69827 5.009422,1.16394 2.12542,0.46568 4.830511,1.1098 6.011301,1.43138 1.18079,0.32159 3.499434,0.72226 5.152544,0.89038 1.65311,0.16812 3.26082,0.40055 3.57268,0.51652 0.31186,0.11596 0.98169,0.11733 1.48849,0.003 0.50681,-0.1143 0.96795,-0.16134 1.02476,-0.10454 z m 8.484,-6.8782 c -0.0684,-0.0684 -1.83002,-0.15249 -3.9147,-0.18687 -4.90522,-0.0809 -6.93307,-0.38911 -7.57193,-1.15088 -0.43118,-0.51414 -0.61585,-0.55014 -1.43501,-0.2798 -1.37485,0.45375 -6.800834,0.001 -6.800834,-0.56691 0,-0.12753 -0.22542,-0.22823 -0.50094,-0.22379 -0.727303,0.0118 -4.130399,-0.61409 -4.465506,-0.82119 -0.156803,-0.0969 -0.745884,-0.26987 -1.30905,-0.38433 -5.674246,-1.15332 -8.367979,-1.76186 -9.370441,-2.11691 -0.654599,-0.23183 -1.981681,-0.54898 -2.949066,-0.70477 -0.967387,-0.1558 -2.158375,-0.48255 -2.646642,-0.72613 -0.488267,-0.24358 -1.099834,-0.44288 -1.359035,-0.44288 -0.259202,0 -0.593648,-0.1067 -0.743215,-0.23711 -0.149567,-0.13042 -1.302449,-0.6607 -2.56196,-1.17841 -4.901456,-2.01467 -6.260767,-2.79418 -8.24016,-4.72532 -1.068433,-1.04239 -1.885128,-1.98824 -1.814881,-2.10191 0.130284,-0.2108 0.02238,-0.85369 -0.778519,-4.63862 -0.673197,-3.18139 -2.026819,-13.06624 -2.466881,-18.01442 -0.236425,-2.65844 -0.218336,-3.35663 0.09641,-3.72128 0.213092,-0.24688 0.612629,-1.05245 0.887858,-1.79016 0.584845,-1.5676 1.110144,-1.88257 1.710411,-1.02557 0.236845,0.33815 0.514936,0.5305 0.617975,0.42746 0.103042,-0.10303 0.426823,-0.0592 0.719516,0.0974 1.299871,0.69567 6.201625,1.67917 9.198769,1.84567 1.770053,0.0984 4.08511,0.2979 5.144571,0.44347 2.652267,0.36444 9.829238,0.36116 13.030299,-0.006 3.465227,-0.39743 8.186927,-1.31605 10.402541,-2.02385 1.76153,-0.56274 2.5511,-0.9699 5.26989,-2.71752 0.7872,-0.50601 1.72311,-1.01073 2.07983,-1.12161 0.95871,-0.29801 2.4131,0.29067 3.50732,1.41962 0.53121,0.54806 1.11059,0.99649 1.28751,0.99649 0.17692,0 0.74675,0.37951 1.2663,0.84336 1.34703,1.20263 2.95444,1.88725 7.097,3.02272 5.13915,1.40862 9.93948,1.83238 13.3873,1.18178 0.31487,-0.0594 1.21657,-0.20112 2.00376,-0.31491 1.89629,-0.27408 3.70441,-1.11909 5.37178,-2.51045 l 1.36424,-1.13842 1.00054,0.47479 c 0.55029,0.26113 1.21531,0.80259 1.47783,1.20322 l 0.47729,0.72845 0.53285,-1.03863 c 0.46715,-0.91059 0.58438,-0.98711 0.95078,-0.62071 0.53055,0.53055 0.53271,1.16189 0.006,1.68884 -0.58575,0.58575 -0.70681,3.1155 -0.16916,3.53519 0.36457,0.28459 0.33122,0.51908 -0.25047,1.761 -0.48131,1.02764 -0.65924,1.88577 -0.6293,3.03517 0.0229,0.88135 0.0448,1.76348 0.0484,1.96029 0.004,0.19679 -0.13699,1.00187 -0.31263,1.78907 -0.37068,1.66133 -0.47377,2.75064 -0.70436,7.44256 -0.33287,6.77279 -0.34331,6.68346 0.82887,7.09517 0.14295,0.0502 0.16921,0.45263 0.0584,0.89426 -0.16441,0.65506 -0.32712,0.77897 -0.88335,0.67264 -0.65258,-0.12475 -0.67897,-0.0678 -0.61543,1.32884 0.0645,1.4177 0.0229,1.50166 -1.46117,2.95228 -0.84015,0.82119 -1.61361,1.48791 -1.71878,1.4816 -0.10517,-0.006 -0.29006,0.25569 -0.41087,0.58225 -0.14304,0.38665 -0.47244,0.59372 -0.9445,0.59372 -0.53666,0 -0.72486,0.15027 -0.72486,0.5788 0,0.99823 -2.21775,2.11828 -5.92748,2.99362 -1.85665,0.43809 -5.11471,1.23044 -7.24014,1.76079 -2.12542,0.53034 -4.31525,0.96884 -4.86629,0.97444 -0.55103,0.006 -1.32392,0.19428 -1.71751,0.41928 -0.68151,0.38959 -2.05389,0.57009 -2.31897,0.30501 z M 79.28933,134.45004 c 0.0973,-0.15743 0.305726,-0.28625 0.463165,-0.28625 0.157438,0 0.206643,0.12882 0.10934,0.28625 -0.0973,0.15744 -0.305726,0.28625 -0.463166,0.28625 -0.157438,0 -0.206642,-0.12881 -0.109339,-0.28625 z m 74.19183,58.6281 c -0.0914,-0.22835 -0.15921,-0.16053 -0.17295,0.17294 -0.0124,0.30177 0.0552,0.47083 0.15034,0.37571 0.0951,-0.0951 0.10529,-0.34201 0.0226,-0.54865 z m 0.23383,-0.80508 c 0.0974,-0.15744 0.0405,-0.28625 -0.12623,-0.28625 -0.16673,0 -0.30315,0.12881 -0.30315,0.28625 0,0.15743 0.0568,0.28625 0.12623,0.28625 0.0694,0 0.20585,-0.12882 0.30315,-0.28625 z m 0.0552,-2.78551 c -0.0726,-0.27852 -0.13672,-0.11996 -0.14256,0.35236 -0.006,0.47232 0.0536,0.70019 0.13195,0.50639 0.0784,-0.1938 0.0831,-0.58025 0.0107,-0.85875 z M 98.611336,123.9528 c 0,-0.10568 -0.17851,-0.39551 -0.39669,-0.64406 -0.33811,-0.3852 -0.33776,-0.66325 0.002,-1.88319 0.21949,-0.78719 0.66786,-2.52617 0.99637,-3.8644 0.32852,-1.33824 0.922684,-3.44644 1.320344,-4.6849 0.59725,-1.86001 0.65478,-2.29579 0.33063,-2.50494 -0.38259,-0.24686 -2.192724,-0.19167 -10.411249,0.31741 -8.048797,0.49857 -10.692526,1.04634 -14.45575,2.99518 -0.708475,0.36689 -1.674577,0.75598 -2.146894,0.86462 -1.180273,0.27149 -3.092867,2.56261 -2.839184,3.40109 0.450398,1.4887 2.731658,2.8977 6.078372,3.75428 2.173138,0.55622 8.999845,1.42887 14.508466,1.85463 2.204146,0.17035 4.458385,0.35138 5.009425,0.40227 0.55103,0.0509 1.2273,0.11316 1.50282,0.13835 0.27552,0.0252 0.50094,-0.0407 0.50094,-0.14634 z m 14.582414,-1.26315 c 1.18985,-0.29971 2.61421,-0.73007 3.16525,-0.95635 0.55103,-0.22627 2.22561,-0.74771 3.72128,-1.15876 3.95811,-1.08779 8.30132,-3.26104 8.30132,-4.15383 0,-0.34007 -3.56324,-2.2144 -4.67321,-2.45819 -0.48723,-0.10701 -1.46635,-0.44339 -2.17581,-0.7475 -0.70946,-0.3041 -2.84002,-0.85633 -4.73459,-1.22715 -6.1707,-1.20781 -6.23784,-1.2049 -6.40756,0.2776 -0.0541,0.47232 -0.193,0.98758 -0.30874,1.14501 -0.11573,0.15744 -0.36225,0.99473 -0.54781,1.86065 -0.18557,0.86591 -0.5407,2.41167 -0.78918,3.43503 -0.60226,2.48026 -0.78504,3.91174 -0.57078,4.47008 0.20555,0.53567 1.43441,0.41656 5.01983,-0.48659 z m 19.76789,-32.326294 c 3.77743,-0.502181 8.07792,-1.235987 11.4501,-1.953765 0.70847,-0.1508 3.47797,-0.920797 6.15444,-1.711103 7.19484,-2.124497 10.68547,-3.483802 10.94491,-4.26212 0.12328,-0.369853 -4.39659,-2.188378 -4.80767,-1.934317 -0.15227,0.09412 -0.79037,-0.363338 -1.41798,-1.016558 -0.91088,-0.948048 -1.14023,-1.399534 -1.13673,-2.237759 0.002,-0.577548 0.11185,-1.219561 0.2432,-1.426697 0.29227,-0.460903 1.66924,-1.197781 2.23825,-1.197781 0.47361,0 6.78084,-2.229823 9.44024,-3.337449 1.01888,-0.424361 1.92581,-0.641238 2.14689,-0.513395 0.21054,0.121741 0.28511,0.113752 0.16573,-0.01774 -0.11939,-0.131507 0.78231,-0.610102 2.00377,-1.063543 1.22145,-0.45344 2.4445,-0.946159 2.71788,-1.094928 0.27339,-0.148767 0.6813,-0.270487 0.90647,-0.270487 0.22518,0 0.45235,-0.09661 0.50483,-0.21469 0.0525,-0.118079 1.31915,-0.791734 2.81481,-1.497012 1.49567,-0.705275 3.07276,-1.518507 3.50464,-1.807178 0.43189,-0.288672 0.91024,-0.447608 1.06301,-0.35319 0.24145,0.149221 1.44365,-0.781191 1.44365,-1.117269 0,-0.06767 -0.60058,-0.421911 -1.33463,-0.787195 -1.57605,-0.784295 -3.96733,-2.86104 -4.51567,-3.921714 -0.40176,-0.777159 -0.53326,-1.59955 -0.47894,-2.995227 0.0217,-0.557316 0.21222,-0.861202 0.6042,-0.963706 0.31883,-0.08338 0.5725,-0.390455 0.5725,-0.69304 0,-0.586005 1.53479,-1.677085 2.36158,-1.678852 0.27552,-5.72e-4 0.50095,-0.09889 0.50095,-0.218464 0,-0.373206 1.20098,-0.996967 3.57816,-1.858401 1.2595,-0.45642 3.0629,-1.110891 4.00753,-1.454378 3.31781,-1.206422 9.29739,-5.06079 10.94932,-7.057796 1.89489,-2.290727 4.07502,-11.054115 4.07779,-16.391334 8.5e-4,-1.730428 -0.10906,-2.329696 -0.4998,-2.724123 -0.77945,-0.786809 -1.36178,-1.82321 -1.72637,-3.072496 -0.74385,-2.548858 -4.78909,-5.222186 -8.93653,-5.905771 -6.20869,-1.023321 -10.19796,-0.942064 -15.42083,0.314105 -1.8308,0.440329 -4.23041,0.956164 -5.33248,1.146299 -3.27852,0.56563 -4.55188,1.398445 -6.714,4.391178 -0.66091,0.914829 -1.38506,1.733696 -1.60919,1.819704 -0.22413,0.08601 -0.40751,0.282957 -0.40751,0.437664 0,0.154707 -0.79902,1.268045 -1.7756,2.474084 -2.27777,2.812965 -2.12225,2.623571 -2.97595,3.624061 -1.30882,1.533861 -2.87788,3.699723 -3.36988,4.651604 -0.40254,0.77881 -0.64282,0.93032 -1.47539,0.93032 -0.9142,0 -0.99453,0.06937 -0.99453,0.858758 0,0.472317 -0.13334,0.858758 -0.29632,0.858758 -0.85212,0 -2.41691,-1.70855 -3.54936,-3.875453 -0.16774,-0.32095 -0.82023,-1.386956 -1.44999,-2.368906 -0.99857,-1.557024 -1.23363,-1.763854 -1.83788,-1.617206 -1.1965,0.290377 -4.54077,2.629899 -8.8707,6.205608 -5.83584,4.819305 -8.88876,8.076639 -13.69697,14.614083 -2.06197,2.803551 -6.08034,9.568043 -6.08034,10.2356 0,0.247903 -0.10799,0.573107 -0.23998,0.722674 -0.13198,0.149566 -0.65479,1.366855 -1.1618,2.705086 -0.50699,1.338231 -1.17072,3.012808 -1.47493,3.721283 -0.82043,1.910699 -1.12845,4.384405 -1.31885,10.591344 -0.1665,5.427732 0.1018,8.279065 0.74179,7.883524 0.13244,-0.08185 0.90372,-1.254181 1.71393,-2.605173 1.27018,-2.117954 8.94514,-12.632294 11.36936,-15.575519 1.45276,-1.763771 7.85733,-8.574008 8.6438,-9.191291 0.41936,-0.329147 1.80181,-1.585679 3.07213,-2.792291 3.48928,-3.314321 7.58179,-6.734695 11.11675,-9.290996 1.74693,-1.263292 4.28391,-3.095418 5.63772,-4.07139 2.8673,-2.067052 4.01156,-3.015991 5.46179,-4.529494 1.11552,-1.164181 1.57689,-1.209439 3.02439,-0.296678 0.81605,0.51458 1.63497,2.381566 1.22464,2.791904 -0.16106,0.161052 -0.2937,0.55689 -0.29478,0.87964 -0.001,0.358786 -0.41833,0.863913 -1.07345,1.299893 -0.58931,0.392194 -1.13589,0.79158 -1.21462,0.887529 -0.0788,0.09595 -0.65838,0.497361 -1.28813,0.892026 -2.14331,1.343202 -7.39877,5.748509 -10.31357,8.645175 -3.88362,3.859475 -7.02377,6.752979 -7.32862,6.752979 -0.13672,0 -0.24859,0.121837 -0.24859,0.270748 0,0.148912 -0.80509,1.136712 -1.78909,2.195114 -2.58405,2.779463 -2.61386,2.812197 -3.00016,3.294303 -0.30414,0.379562 -0.21602,0.435202 0.64407,0.406662 0.75167,-0.02493 0.9964,0.08391 0.9964,0.443161 0,0.261924 -0.19322,0.636583 -0.42938,0.832578 -0.23616,0.195994 -0.42937,0.481711 -0.42937,0.634928 0,0.15322 -0.24348,0.620498 -0.54105,1.038398 -0.5278,0.741231 -0.60396,0.922964 -0.60396,1.441047 0,0.138514 -0.79233,0.309159 -1.76071,0.379205 -1.49508,0.108142 -1.86588,0.249646 -2.45795,0.937963 -0.45243,0.52598 -0.65222,1.046152 -0.56902,1.481438 0.0787,0.411624 -0.009,0.670829 -0.2264,0.670829 -0.19504,0 -0.51499,0.19322 -0.71098,0.429379 -0.196,0.236158 -0.58773,0.429379 -0.87053,0.429379 -0.80315,0 -6.51162,7.889572 -9.0096,12.451986 -0.431,0.787193 -1.06508,1.817703 -1.40904,2.290019 -0.78605,1.079327 -1.44174,2.679016 -1.198,2.922756 0.20039,0.200394 4.62007,0.547847 7.62088,0.599118 1.02335,0.01749 3.72843,-0.216521 6.0113,-0.520012 z m 76.05533,-70.051072 c -0.0726,-0.278514 -0.13673,-0.119948 -0.14256,0.352369 -0.006,0.472316 0.0536,0.700191 0.13195,0.506389 0.0785,-0.193802 0.0832,-0.580243 0.0107,-0.858758 z"
       id="path63"
       inkscape:connector-curvature="0" />
  </g>
</svg>
