<?xml version="1.0" encoding="UTF-8" standalone="no"?>
<!-- Created with Inkscape (http://www.inkscape.org/) -->

<svg
   xmlns:dc="http://purl.org/dc/elements/1.1/"
   xmlns:cc="http://creativecommons.org/ns#"
   xmlns:rdf="http://www.w3.org/1999/02/22-rdf-syntax-ns#"
   xmlns:svg="http://www.w3.org/2000/svg"
   xmlns="http://www.w3.org/2000/svg"
   xmlns:sodipodi="http://sodipodi.sourceforge.net/DTD/sodipodi-0.dtd"
   xmlns:inkscape="http://www.inkscape.org/namespaces/inkscape"
   width="256px"
   height="256px"
   viewBox="0 0 256 256"
   version="1.1"
   id="SVGRoot"
   inkscape:version="0.92.4 (5da689c313, 2019-01-14)"
   sodipodi:docname="cart.svg">
  <defs
     id="defs10" />
  <sodipodi:namedview
     id="base"
     pagecolor="#ffffff"
     bordercolor="#666666"
     borderopacity="1.0"
     inkscape:pageopacity="0.0"
     inkscape:pageshadow="2"
     inkscape:zoom="2"
     inkscape:cx="458.53597"
     inkscape:cy="104.49706"
     inkscape:document-units="px"
     inkscape:current-layer="layer1"
     showgrid="false"
     inkscape:window-width="3840"
     inkscape:window-height="2104"
     inkscape:window-x="-16"
     inkscape:window-y="-16"
     inkscape:window-maximized="1"
     inkscape:grid-bbox="true" />
  <metadata
     id="metadata13">
    <rdf:RDF>
      <cc:Work
         rdf:about="">
        <dc:format>image/svg+xml</dc:format>
        <dc:type
           rdf:resource="http://purl.org/dc/dcmitype/StillImage" />
        <dc:title></dc:title>
      </cc:Work>
    </rdf:RDF>
  </metadata>
  <g
     inkscape:label="Layer 1"
     inkscape:groupmode="layer"
     id="layer1">
    <path
       id="path34"
       style="fill:#ffffff;stroke-width:0.43461236"
       d="m 144.74609,34.525391 c -3.57974,0.06191 -5.043,1.152214 -5.86523,2.798828 -3.24174,6.738554 -6.53113,13.146576 -10.07813,19.107422 -2.56648,4.307896 -6.06503,11.64657 -6.28515,12.878906 -1.66969,-2.128191 -4.79902,-7.940342 -6.50391,-12.644531 -0.82256,-2.299086 -4.86583,-9.163441 -6.42969,-12.550782 -1.98755,-4.244936 -1.84478,-7.50486 -7.69726,-6.628906 -5.334918,0.885396 -19.091159,6.753293 -21.986329,9.648438 -5.532295,3.7392 -0.293981,10.049697 3.107421,18.080078 0.589552,1.33303 1.001316,2.492865 0.916016,2.578125 -0.23778,0.237776 -10.977803,-3.683785 -14.474609,-5.285157 -7.950557,-3.073258 -22.786859,-10.209119 -25.643234,-3.27447 6.605338,-0.427583 -3.043897,-1.33977 -7.639969,-2.35053 l -5.84961,-1.433593 -1.070312,-1.826172 c -3.786429,-6.461082 -14.987769,-6.557541 -18.207032,0.226562 -3.4030052,7.142215 -0.06979,14.229859 8.347657,15.810547 3.09531,-0.02478 6.101124,-1.030033 9.072265,-3.748047 1.267547,-1.159571 5.147169,-0.840153 9.308594,0.250001 l 2.46875,1.672794 1.0602,2.923444 c -0.622626,3.879689 -3.119893,12.521277 -3.124193,15.415404 -0.0043,2.882519 -0.769792,9.566804 -3.402804,21.966868 -0.609066,2.86845 -1.508152,7.75777 -1.998047,10.86524 -0.489938,3.10749 -1.105028,6.72629 -1.367187,8.04102 -0.262158,1.3147 -0.597286,8.35585 -0.744141,15.64648 -0.146856,7.29062 -0.744669,6.90967 1.401576,14.39656 9.096097,21.92078 19.443326,17.69974 19.22825,28.9328 -0.07449,4.23626 0.54342,11.4905 1.682674,13.81908 1.546046,3.15997 3.636544,5.2591 7.025391,7.05664 3.827631,2.03026 7.727945,2.82273 13.638672,2.77344 4.906558,-0.041 7.359985,-0.50547 12.421875,-2.35352 4.97684,-1.81698 10.141718,-5.67168 12.292968,-9.17383 1.493072,-2.43085 1.578123,-2.76908 1.578126,-6.32031 6.9e-4,-2.89781 -0.177773,-4.02733 -0.789063,-4.96094 l -0.792969,-1.20703 11.658204,0.18359 c 6.41123,0.10178 15.56692,0.41259 20.34766,0.68946 4.78074,0.27687 10.86651,0.61542 13.52343,0.7539 l 4.83008,0.25196 -1.02734,3.23828 c -1.23703,3.89546 -1.40002,9.29337 -0.35547,11.80078 1.94888,4.67822 8.1281,8.32612 16.27734,9.61133 1.31471,0.20734 4.73702,0.39983 7.60547,0.42773 10.72331,0.10431 20.1565,-2.91799 24.96289,-8 2.82927,-2.99159 3.94734,-5.50113 4.25391,-9.55469 0.20561,-2.71877 0.10263,-3.4572 -0.69336,-4.98437 l -0.93555,-1.79297 13.58789,0.27734 c 15.63975,0.32047 18.58677,-1.25577 20.58985,-4.96484 2.68496,-8.44006 5.75758,-24.39633 6.75034,-40.90054 0.84088,-10.18239 4.12253,-16.86605 -1.29898,-23.44904 -1.68496,-1.03662 -4.35977,-2.67181 -6.15254,-3.3887 -1.79278,-0.71689 -5.7054,-2.02668 -8.69336,-2.91211 -10.10217,-2.99355 -13.51095,-3.43123 -12.98242,-3.60742 5.14215,-8.68727 10.95348,-18.367662 14.95313,-25.503909 0.2476,-1.981711 0.14787,-2.623777 -0.59766,-3.830078 -1.24216,-2.009861 -2.98414,-2.876421 -12.45508,-6.199219 -4.5417,-1.593419 -9.92131,-3.586098 -11.95312,-4.427734 -2.99122,-1.239058 -7.73305,-3.043962 -11.17578,-4.253906 -0.35025,-0.123099 0.0311,-1.107391 1.13281,-2.921875 0.9136,-1.504681 2.1027,-3.943552 2.64062,-5.419922 0.53787,-1.47637 1.82059,-4.560305 2.39258,-5.097656 0.95648,-2.974502 -0.71563,-3.680326 -2.49804,-5.16211 -8.64085,-3.7201 -23.51306,-9.524002 -39.42969,-11.365234 -3.84679,-0.444996 -6.71153,-0.66605 -8.85938,-0.628906 z m 4.7793,9.548828 c 4.27576,0.750649 9.24043,1.622828 11.0332,1.9375 6.29701,1.105267 23.19055,5.508759 24.02735,6.263672 0.18745,0.169087 -0.44725,1.849494 -1.41016,3.732421 -0.96293,1.882932 -1.87323,4.078442 -2.02344,4.878907 -0.17663,0.941539 -0.47091,1.377604 -0.83398,1.238281 -4.25468,-1.632687 -4.77727,-2.320205 -10.47266,-2.75 -5.95006,2.192084 -6.70177,14.010194 -10.70896,22.90625 -1.79088,3.944108 -3.38113,7.709834 -3.5332,8.367188 -0.15212,0.657346 -0.51627,1.181525 -0.81055,1.166015 -0.29423,-0.01555 -2.88156,-0.892494 -5.75,-1.949219 -2.86844,-1.056722 -8.94522,-3.120128 -13.50391,-4.585937 l -8.28906,-2.666016 0.40039,-2.652343 c 0.38246,-2.527018 3.93209,-10.380324 6.60547,-14.615235 3.22882,-5.114844 6.46212,-13.573643 8.29492,-17.689453 2.87424,-3.930253 5.15495,-3.902355 6.97459,-3.582031 z m -47.14648,1.707031 1.91406,4.039062 c 4.65834,10.499539 11.36775,20.876317 15.0332,30.175782 0,0 -2.07279,-0.28541 -4.18359,-1.408203 -2.39036,-0.798334 -8.06182,-2.663705 -12.60352,-4.146485 -4.541694,-1.482776 -9.284853,-3.078356 -10.541013,-3.544922 -2.20514,-0.819061 2.550108,3.993484 3.181641,3.091797 1.132559,-1.616897 -4.074482,-8.09786 -7.201172,-14.615234 -0.614187,-2.544346 -2.254676,-3.49844 -2.199219,-5.960938 2.77852,-1.282777 4.361275,-2.128972 6.984375,-3.3125 2.62315,-1.183523 4.890639,-2.152343 5.037109,-2.152343 0.14642,0 1.235719,-0.48821 2.421879,-1.083985 z M 60.673255,67.462853 c 7.111433,3.124075 19.878709,8.66976 59.684165,21.962928 14.58124,4.86945 29.93404,10.124388 34.11719,11.677739 14.25424,5.29537 23.6764,8.45108 33.24805,11.13281 18.44264,5.16715 20.30718,6.36639 28.68554,8.76367 8.09789,2.31703 11.41734,2.27611 14.08203,5.38867 1.21213,4.1508 -0.50266,10.2022 -2.04105,19.12056 -0.27967,4.78073 -1.63679,11.22764 -1.74345,15.56449 -0.0889,3.61387 -0.32084,8.41636 -0.60807,10.62745 -0.45591,4.50647 -4.93047,4.04912 -11.13868,4.13487 -4.14328,0.0576 -7.56767,0.0692 -7.60937,0.0273 -0.0793,-0.0793 -18.81741,-0.39207 -45.72852,-0.76562 -14.55492,-0.20204 -37.53491,-1.21528 -41.04492,-1.8086 -1.84918,-0.31267 -31.615677,-0.28019 -50.416014,0.0547 C 41.097482,172.89979 40.913355,146.0505 42.193208,123.96396 44.115064,110.27427 46.736761,97.457216 49.46875,83.802804 51.552907,70.253186 51.498422,64.053157 60.673255,67.462853 Z M 173.8457,69.40625 c 0.76283,-0.09381 3.4269,0.982292 14.49805,5.701172 8.80598,3.753412 24.42137,9.776552 25.38086,9.789062 -0.73608,2.956045 -2.96094,6.623047 -2.96094,6.623047 -6.13627,10.965709 -4.7179,7.817692 -8.36722,15.060549 -0.1821,-0.0221 -5.22135,-1.36049 -11.19726,-2.97266 -10.33483,-2.78812 -21.26186,-6.117218 -26.15039,-7.966795 l -1.4336,-0.599609 1.56055,-3.1875 c 1.58491,-3.978363 4.40915,-9.652791 6.29688,-15.976563 0.98214,-3.290232 1.94773,-6.154134 2.14453,-6.365234 0.0503,-0.05397 0.11954,-0.09207 0.22851,-0.105469 z m -96.208981,116.4082 c 3.811437,0.0861 5.168207,0.85452 8.546875,3.41993 2.53561,1.92526 3.078134,2.54812 2.990234,3.4375 -0.13291,1.34448 -3.532283,3.68329 -7.93164,5.45703 -3.582814,1.44453 -8.327717,1.74551 -12.761719,0.81054 -5.108,-1.07711 -6.55445,-2.5815 -6.56836,-6.83789 -0.0053,-1.62921 0.18007,-3.31834 0.41211,-3.75195 0.812159,-1.51753 3.537269,-2.14809 10.517578,-2.43555 1.982212,-0.0816 3.524443,-0.12834 4.794922,-0.0996 z m 84.771481,2.07813 h 3.875 c 3.41675,0 4.7378,0.26203 11.13672,2.20703 10.84376,3.29605 12.43195,4.15427 11.49219,6.2168 -0.60651,1.33119 -3.83146,3.18519 -7.42383,4.26757 -2.14095,0.64506 -4.47288,0.90799 -8.97656,1.01563 -8.42591,0.20147 -12.08938,-0.48323 -14.66797,-2.74414 -1.6939,-1.48521 -0.50426,-5.75934 2.44531,-8.78711 z"
       inkscape:connector-curvature="0"
       sodipodi:nodetypes="sccccccccccccccccccccccccscccccccccccscccscscccccccccccccsccccccsscsccccccccsccccccccccccsccscccccssccscccsccccccccccccccccccccccccccccccsccccccc" />
    <path
       id="path68"
       style="fill:#ffffff"
       d="m 202.56641,207.36133 c -0.003,5.7e-4 -0.005,0.001 -0.008,0.002 1.1e-4,6.3e-4 -3e-5,0.001 0,0.002 0.10025,0.0566 0.19443,0.11175 0.22071,0.13672 0.0142,-0.004 0.0289,-0.007 0.043,-0.0117 -0.0653,-0.0333 -0.25539,-0.12981 -0.25586,-0.1289 z m 0.002,0.1875 c -0.006,4.9e-4 -0.0117,0.001 -0.0176,0.002 0,0 0,0.002 0,0.002 0.006,-0.001 0.0117,-0.003 0.0176,-0.004 z" />
    <path
       inkscape:connector-curvature="0"
       id="path34-0"
       style="fill:#000000;stroke-width:0.43461236"
       d="m -158.33727,6.2667406 c -3.57974,0.06191 -5.168,0.839714 -5.99023,2.486328 -0.56018,1.121795 -0.62454,1.7372794 -0.28516,2.7109374 0.3912,1.12213 0.30118,1.374585 -0.83203,2.328125 -0.6995,0.588587 -1.92418,2.302328 -2.7207,3.808598 -0.79651,1.50626 -3.54877,6.26437 -6.11524,10.57226 -2.56648,4.3079 -5.11309,8.75292 -5.66014,9.87891 -0.9389,1.93253 -1.03849,2.00814 -1.78125,1.33593 -0.43278,-0.39166 -1.25423,-1.70815 -1.82422,-2.92578 -1.90513,-4.06954 -2.96505,-6.49389 -3.52344,-8.05468 -0.82256,-2.29909 -5.24083,-9.91344 -6.9922,-12.05079 -1.30667,-1.594601 -1.4863,-2.079624 -1.24804,-3.349604 0.57321,-3.0554424 -1.6506,-4.4823394 -5.88672,-3.7792974 -5.33491,0.8853964 -16.34115,5.9407914 -19.23632,8.8359414 -1.46464,1.46463 -1.64693,1.88041 -1.61133,3.70117 0.0221,1.12837 -0.086,2.75337 -0.24219,3.61133 -0.37564,2.06291 0.85656,8.51756 2.21094,11.58007 0.58955,1.33303 1.00131,2.49287 0.91601,2.57813 -0.23778,0.23778 -10.9778,-3.68379 -14.47461,-5.28516 -1.70598,-0.78128 -5.51937,-2.88349 -8.47461,-4.67187 -2.95519,-1.78839 -6.19496,-3.66834 -7.19921,-4.17774 -3.53547,-1.83291 -6.56254,-4.71215 -10.53907,-3.58007 -3.06936,1.94488 -1.42751,5.52 -2.43554,9.68554 -0.46573,-0.074 -2.94495,-0.2451 -5.50977,-0.38086 l -4.66211,-0.24609 -1.07031,-1.82617 c -3.78643,-6.46108 -14.98777,-6.55754 -18.20703,0.22656 -3.40301,7.14221 -0.0698,14.22986 8.34765,15.81055 3.09531,-0.0248 6.10113,-1.03004 9.07227,-3.74805 1.26755,-1.15957 -0.38408,-0.71125 5.46484,-0.87109 l 6.01563,-0.16407 -0.28125,1.75196 c -0.62263,3.87969 -1.52891,13.67032 -1.53321,16.56445 -0.004,2.88252 -1.03495,8.8597 -3.66796,21.25976 -0.60907,2.86845 -1.50816,7.75777 -1.99805,10.86524 -0.48994,3.10749 -1.10503,6.72629 -1.36719,8.04102 -0.26216,1.314701 -0.59728,8.355851 -0.74414,15.646481 -0.14686,7.29062 -0.39112,13.45041 -0.54297,13.68945 -0.24208,0.38114 -0.70774,12.75561 -0.89258,23.74024 -0.078,4.63898 0.66783,6.20906 3.64844,7.69336 l 2.0293,1.01171 6.9668,-1.12109 c 3.83202,-0.61579 7.77029,-1.11914 8.75,-1.11914 1.52001,0 1.74381,0.1154 1.53125,0.78516 -0.13704,0.43175 -0.28579,2.84708 -0.33008,5.36718 -0.0745,4.23626 0.0131,4.77299 1.15234,7.10157 1.54605,3.15997 3.63654,5.2591 7.02539,7.05664 3.82763,2.03026 7.72795,2.82273 13.63867,2.77344 4.90656,-0.041 7.35999,-0.50547 12.42188,-2.35352 4.97684,-1.81698 10.14172,-5.67168 12.29297,-9.17383 1.49307,-2.43085 1.57812,-2.76908 1.57812,-6.32031 6.9e-4,-2.89781 -0.17777,-4.02733 -0.78906,-4.96094 l -0.79297,-1.20703 11.6582,0.18359 c 6.41124,0.10178 15.56692,0.41259 20.34766,0.68946 4.78074,0.27687 10.86651,0.61542 13.52343,0.7539 l 4.83008,0.25196 -1.02734,3.23828 c -1.23703,3.89546 -1.40002,9.29337 -0.35547,11.80078 1.94888,4.67822 8.1281,8.32612 16.27734,9.61133 1.31471,0.20734 4.73702,0.39983 7.60547,0.42773 10.72331,0.10431 20.1565,-2.91799 24.96289,-8 2.82927,-2.99159 3.94734,-5.50113 4.25391,-9.55469 0.20561,-2.71877 0.10263,-3.4572 -0.69336,-4.98437 l -0.93555,-1.79297 13.587895,0.27734 c 15.63975,0.32047 18.58677,-1.25577 20.58985,-4.96484 2.68496,-8.44006 4.8295,-25.23602 5.82226,-41.74023 -0.0872,-9.91722 3.28284,-16.379911 -2.13867,-22.962901 -1.15463,-0.4179 -2.592,-2.31826 -4.38477,-3.03515 -1.79278,-0.71689 -5.7054,-2.02668 -8.69336,-2.91211 -10.10217,-2.99355 -15.38595,-4.74373 -14.85742,-4.91992 0.28941,-0.0965 1.45094,-1.47962 2.58203,-3.07227 1.13107,-1.59264 4.73146,-6.45909 8.00196,-10.8164 5.5118,-7.34348 5.96851,-8.09666 6.24414,-10.30274 0.2476,-1.98171 0.14787,-2.62378 -0.59766,-3.83008 -1.24216,-2.00986 -2.98414,-2.87642 -12.45508,-6.19922 -4.5417,-1.59341 -9.921315,-3.58609 -11.953125,-4.42773 -2.99122,-1.23906 -7.73305,-3.04396 -11.17578,-4.25391 -0.35025,-0.12309 0.0311,-1.10739 1.13281,-2.92187 0.9136,-1.50468 2.1027,-3.94355 2.64062,-5.41992 0.53787,-1.47637 1.44559,-3.12281 2.01758,-3.66016 0.572,-0.53735 1.03907,-1.39481 1.03907,-1.9043 0,-1.02284 -1.65982,-3.48789 -3.16211,-4.69531 -5.32835,-4.282598 -23.51306,-9.5240004 -39.42969,-11.3652324 -3.84679,-0.444996 -6.71153,-0.66605 -8.85938,-0.628906 z m -3.25976,8.0175784 c 0.14642,0.09106 3.7633,0.7806 8.03906,1.53125 4.27576,0.75065 9.24043,1.62283 11.0332,1.9375 6.29701,1.10527 23.19055,5.50876 24.02735,6.26367 0.18745,0.16909 -0.44725,1.8495 -1.41016,3.73242 -0.96293,1.88293 -1.87323,4.07844 -2.02344,4.87891 -0.17663,0.94154 -0.47091,1.3776 -0.83398,1.23828 -4.25468,-1.63269 -12.33977,-3.8827 -14.59766,-4.0625 -2.53224,-0.20164 -2.9903,-0.11711 -3.80273,0.69531 -1.03468,1.0347 -1.19954,2.59172 -0.38086,3.60157 0.41496,0.51186 3.35603,2.79726 4.13867,3.21679 0.32697,0.17526 -3.66998,10.38632 -6.53906,16.70508 -1.79088,3.94411 -3.38113,7.70983 -3.5332,8.36719 -0.15212,0.65734 -0.51627,1.18152 -0.81055,1.16601 -0.29423,-0.0155 -2.88156,-0.89249 -5.75,-1.94922 -2.86844,-1.05672 -8.94522,-3.12012 -13.50391,-4.58593 l -8.28906,-2.66602 0.40039,-2.65234 c 0.38246,-2.52702 3.93209,-10.38033 6.60547,-14.61524 3.22882,-5.11484 7.33712,-17.07364 7.10742,-20.68945 -0.0796,-1.25265 -0.0234,-2.20433 0.12305,-2.11328 z m -39.10742,3.23828 1.91406,4.03906 c 1.05263,2.22214 2.71912,6.3747 3.70312,9.22852 3.32658,9.64734 6.57514,15.21233 10.33009,17.69726 1.034,0.68427 1.78416,1.56457 1.91406,2.24414 0.26511,1.38701 0.25795,1.38633 -5.09765,-0.40234 -2.39036,-0.79833 -8.06183,-2.6637 -12.60353,-4.14648 -4.54169,-1.48278 -9.28485,-3.07836 -10.54101,-3.54493 -2.20514,-0.81906 -2.26239,-0.88151 -1.63086,-1.7832 1.13256,-1.6169 0.73802,-3.22286 -2.38867,-9.74023 -1.67326,-3.4878 -3.04102,-6.38842 -3.04102,-6.44532 0,-0.0569 0.68824,-0.23284 1.5293,-0.39062 0.84102,-0.15778 3.67378,-1.25397 6.29688,-2.4375 2.62315,-1.18352 4.89064,-2.15234 5.03711,-2.15234 0.14642,0 1.23571,-0.48821 2.42187,-1.08399 z m -50.68164,16.07422 c 0.12575,0.0333 0.2601,0.16438 0.40234,0.39453 0.13443,0.21756 1.46583,1.07623 2.95899,1.9082 1.49315,0.83198 4.37834,2.478 6.41015,3.65821 6.13917,3.56601 19.08322,8.3162 58.88868,21.60937 14.58123,4.86945 29.93403,10.12439 34.11718,11.67774 14.25424,5.29537 23.6764,8.45108 33.24805,11.13281 18.442645,5.16715 20.348185,6.22746 28.685545,8.76367 10.08663,3.06833 10.1799,2.09933 14.08203,5.38867 0.23986,4.460161 -1.20977,11.395441 -1.6875,19.562501 -0.27967,4.78073 -0.88549,11.62539 -1.3457,15.21094 -0.46021,3.58555 -1.07214,8.32797 -1.35937,10.53906 l -0.52149,4.02149 -1.54297,0.004 c -0.84802,0.002 -4.93089,0.0519 -9.07422,0.10938 -4.14328,0.0576 -7.56767,0.0692 -7.60937,0.0273 -0.0793,-0.0793 -18.817415,-0.39207 -45.728525,-0.76562 -14.55492,-0.20204 -37.5349,-1.21528 -41.04491,-1.8086 -1.84918,-0.31267 -31.61568,-0.28019 -50.41602,0.0547 -12.82176,0.22837 -24.36383,0.79686 -27.01758,1.33008 -1.58012,0.3175 -1.65762,-0.10732 -1.47461,-8.07813 0.67448,-29.37487 1.03424,-37.31171 1.93946,-42.808591 1.00808,-6.12158 2.78173,-15.9993 3.74609,-20.86133 0.99513,-5.01732 1.89171,-13.12095 2.11523,-19.12305 0.21249,-5.70571 0.8929,-15.46479 1.3711,-19.66601 0.18241,-1.60261 0.48016,-2.38104 0.85742,-2.28125 z m 122.14843,7.55078 c 0.76283,-0.0938 3.4269,0.98229 14.49805,5.70117 8.80598,3.75341 24.421375,9.77655 25.380865,9.78906 0.28011,0.004 0.78058,0.17726 1.11133,0.38672 0.45729,0.28962 -0.15856,1.09464 -2.57227,3.36133 -6.20483,5.82693 -10.363445,12.76676 -9.794925,16.3457 0.14241,0.89639 0.10992,1.61205 -0.0723,1.58985 -0.1821,-0.0221 -5.22135,-1.36049 -11.19726,-2.97266 -10.33483,-2.78812 -21.26186,-6.11722 -26.15039,-7.96679 l -2.2461,-0.84961 1.56055,-2.4375 c 2.58491,-4.04087 5.22165,-10.15279 7.10938,-16.47657 0.98214,-3.29023 1.94773,-6.15413 2.14453,-6.36523 0.0503,-0.054 0.11954,-0.0921 0.22851,-0.10547 z m -89.81445,28.54688 c -0.77984,-0.0354 -1.57641,0.10899 -2.20117,0.44335 -1.01873,0.5452 -2.10937,2.9038 -2.10937,4.56446 0,1.11946 -0.0522,1.14217 -1.99024,0.85156 -1.09483,-0.16419 -4.8586,-1.16141 -8.36523,-2.2168 -3.50663,-1.05536 -6.85338,-1.92348 -7.43555,-1.92578 -1.53544,-0.007 -3.07031,1.61353 -3.07031,3.24219 0,3.12105 4.23474,5.41005 15.32031,8.2793 2.76114,0.71465 4.67188,1.42926 4.67188,1.74609 0,0.29486 -0.48324,4.12752 -1.07422,8.51758 -0.59099,4.39005 -1.28243,10.603981 -1.53711,13.808591 -0.25464,3.20462 -0.56481,5.99171 -0.68945,6.19336 -0.12461,0.20165 -3.01746,0.36524 -6.42774,0.36524 -5.86992,0 -6.24914,0.0528 -7.11328,0.97851 -1.31118,1.40472 -1.60228,3.04098 -0.81445,4.56445 0.91334,1.76627 2.25674,2.1711 8.3125,2.50391 2.86844,0.15765 5.30189,0.37286 5.4082,0.47852 0.10635,0.10564 -0.15879,3.38705 -0.58984,7.29296 -0.86275,7.8184 -0.72683,9.39105 0.92382,10.68946 0.6115,0.48099 1.47051,0.87307 1.90821,0.87304 1.5995,0 3.73361,-1.43319 5.07422,-3.4082 1.8165,-2.67611 2.50914,-4.77218 3.41601,-10.33789 l 0.75586,-4.63476 5.85352,0.28125 c 3.22001,0.15443 8.75694,0.28125 12.30468,0.28125 h 6.45118 v 5.01953 c 0,5.47978 0.52178,7.2786 2.24219,7.72851 2.63858,0.69 5.66877,-3.48986 6.52539,-9 l 0.51563,-3.31445 9.59178,0.0566 c 5.27573,0.0304 11.74364,0.1773 14.37305,0.32617 l 4.78125,0.26953 0.13672,1.19532 c 0.20623,1.79186 2.70909,4.23828 4.33593,4.23828 1.59282,0 3.5,-1.49663 4.66407,-3.65821 l 0.83593,-1.55273 9.6836,0.0137 9.68164,0.0137 -0.27344,2.94141 c -0.45835,4.93153 1.50917,7.17518 4.88281,5.56641 1.78786,-0.85258 3.00273,-2.70836 3.94336,-6.02344 l 0.70508,-2.48242 1.99805,-0.24024 c 6.84425,-0.82156 6.76942,-0.79926 6.91406,-2.05273 0.11318,-0.9804 -0.1394,-1.31333 -1.53516,-2.02539 -0.91821,-0.46847 -2.787,-1.17673 -4.15429,-1.57422 -1.85089,-0.53805 -2.48633,-0.92408 -2.48633,-1.51367 0,-1.25544 1.35608,-7.58639 1.70508,-7.95899 0.17371,-0.18547 1.5738,-0.0472 3.10937,0.3086 1.53558,0.35582 4.72746,0.93778 7.09375,1.29296 3.717645,0.55803 4.463945,0.56212 5.490245,0.0312 1.3469,-0.69652 2.05694,-3.12191 1.31836,-4.50195 -0.54752,-1.0231 -6.357065,-3.47046 -11.437505,-4.81836 -3.67582,-0.97524 -3.80274,-1.04986 -3.80274,-2.269531 0,-1.6762 -1.73475,-3.39648 -3.42578,-3.39648 -0.95042,0 -1.62703,0.40699 -2.55859,1.53711 l -1.26563,1.53515 -9.37304,-2.05664 -9.3711,-2.05664 -0.15039,-3.57617 c -0.17671,-4.22117 -1.10392,-5.9428 -3.31836,-6.16406 -1.87378,-0.18722 -2.82829,0.93343 -3.95312,4.63672 -0.5191,1.70904 -1.19031,3.10156 -1.49219,3.10156 -0.65648,0 -27.21659,-5.38285 -29.66211,-6.01172 -0.93993,-0.24171 -2.82515,-0.66342 -4.18944,-0.93555 l -2.48047,-0.49414 -0.30274,-2.68164 c -0.23891,-2.11142 -0.55884,-2.9377 -1.50586,-3.88477 -2.37373,-2.37371 -5.97193,-1.13475 -6.98828,2.40626 -0.28789,1.00306 -0.56263,1.88307 -0.61133,1.95507 -0.0487,0.0719 -1.72486,-0.28749 -3.72461,-0.79883 -1.99974,-0.5113 -7.04054,-1.68399 -11.20117,-2.60546 -4.16063,-0.92147 -7.72569,-1.93174 -7.92383,-2.24414 -0.19814,-0.31239 -0.36414,-1.15398 -0.36914,-1.8711 -0.015,-2.1593 -0.85029,-4.49772 -1.85742,-5.20312 -0.55376,-0.38787 -1.31586,-0.60327 -2.09571,-0.63867 z m 5.04493,16.85546 c 1.86286,0.19497 9.14581,1.73947 16.8164,3.58789 l 5.9629,1.43555 0.12109,4.58594 c 0.0679,2.52171 0.0649,7.371061 -0.008,10.777341 l -0.13086,6.19336 h -12.3631 c -11.48924,0 -12.36446,-0.053 -12.35546,-0.75976 0.005,-0.41832 0.29206,-4.67239 0.63867,-9.45313 0.3466,-4.780721 0.63558,-10.372101 0.64258,-12.423831 0.007,-2.05173 0.10813,-3.8249 0.2246,-3.9414 0.0303,-0.0303 0.18505,-0.0298 0.45118,-0.002 z m 31.80274,7.07032 2.39453,0.625 c 2.44625,0.63879 14.49275,3.2106 25.24217,5.38867 3.29575,0.667791 6.10547,1.328091 6.24415,1.466801 0.13869,0.13865 -0.42055,3.04879 -1.24219,6.46679 h -0.002 l -1.49414,6.21485 -4.5332,0.0137 c -2.49329,0.008 -9.3729,-0.0431 -15.28906,-0.11524 l -10.75585,-0.13086 v -4.44726 c -9.6e-4,-2.44595 -0.12844,-6.93037 -0.2832,-9.964851 z m 43.89647,9.513671 c 0.6171,0 16.31491,3.5143 16.55859,3.70703 0.0719,0.0569 -0.24825,1.64126 -0.71289,3.52148 -0.46469,1.88021 -0.96758,3.95789 -1.11718,4.61524 -0.14964,0.65735 -0.41509,1.1633 -0.58985,1.125 -0.38724,-0.0848 -1.55463,-0.20919 -9.85937,-1.04688 -3.57473,-0.36059 -6.55319,-0.70738 -6.61719,-0.77148 -0.0641,-0.0641 0.0539,-0.79009 0.26172,-1.61328 0.20778,-0.82319 0.62147,-3.30649 0.91992,-5.51758 0.3932,-2.91311 0.71221,-4.01953 1.15625,-4.01953 z m -87.13867,54.42187 c 3.81144,0.0861 5.16821,0.85452 8.54688,3.41993 2.53561,1.92526 3.07813,2.54812 2.99023,3.4375 -0.13291,1.34448 -3.53228,3.68329 -7.93164,5.45703 -3.58281,1.44453 -8.32771,1.74551 -12.76172,0.81054 -5.108,-1.07711 -6.55445,-2.5815 -6.56836,-6.83789 -0.005,-1.62921 0.18007,-3.31834 0.41211,-3.75195 0.81216,-1.51753 3.53727,-2.14809 10.51758,-2.43555 1.98221,-0.0816 3.52444,-0.12834 4.79492,-0.0996 z m 84.77148,2.07813 h 3.875 c 3.41675,0 4.7378,0.26203 11.13672,2.20703 10.84376,3.29605 12.43195,4.15427 11.49219,6.2168 -0.60651,1.33119 -3.83146,3.18519 -7.42383,4.26757 -2.14095,0.64506 -4.47288,0.90799 -8.97656,1.01563 -8.42591,0.20147 -12.08938,-0.48323 -14.66797,-2.74414 -1.6939,-1.48521 -0.50426,-5.75934 2.44531,-8.78711 z" />
  </g>
</svg>
