<?xml version="1.0" encoding="UTF-8" standalone="no"?>
<!-- Created with Inkscape (http://www.inkscape.org/) -->

<svg
   xmlns:dc="http://purl.org/dc/elements/1.1/"
   xmlns:cc="http://creativecommons.org/ns#"
   xmlns:rdf="http://www.w3.org/1999/02/22-rdf-syntax-ns#"
   xmlns:svg="http://www.w3.org/2000/svg"
   xmlns="http://www.w3.org/2000/svg"
   xmlns:sodipodi="http://sodipodi.sourceforge.net/DTD/sodipodi-0.dtd"
   xmlns:inkscape="http://www.inkscape.org/namespaces/inkscape"
   width="256px"
   height="256px"
   viewBox="0 0 256 256"
   version="1.1"
   id="SVGRoot"
   sodipodi:docname="home.svg"
   inkscape:version="0.92.3 (2405546, 2018-03-11)">
  <sodipodi:namedview
     id="base"
     pagecolor="#ffffff"
     bordercolor="#666666"
     borderopacity="1.0"
     inkscape:pageopacity="0.0"
     inkscape:pageshadow="2"
     inkscape:zoom="2"
     inkscape:cx="136.17335"
     inkscape:cy="103.36686"
     inkscape:document-units="px"
     inkscape:current-layer="layer1"
     showgrid="false"
     inkscape:window-width="3840"
     inkscape:window-height="2104"
     inkscape:window-x="-16"
     inkscape:window-y="-16"
     inkscape:window-maximized="1"
     inkscape:grid-bbox="true" />
  <defs
     id="defs50" />
  <metadata
     id="metadata53">
    <rdf:RDF>
      <cc:Work
         rdf:about="">
        <dc:format>image/svg+xml</dc:format>
        <dc:type
           rdf:resource="http://purl.org/dc/dcmitype/StillImage" />
        <dc:title></dc:title>
      </cc:Work>
    </rdf:RDF>
  </metadata>
  <g
     id="layer1"
     inkscape:groupmode="layer"
     inkscape:label="Layer 1">
    <path
       style="fill:#ffffff;stroke-width:0.27666667"
       d="m 107.90719,226.54484 c -0.83296,-0.12914 -1.63599,-0.3563 -1.7845,-0.50482 -0.14851,-0.14851 -0.5875,-0.2719 -0.97552,-0.27419 -0.38803,-0.002 -1.2035,-0.18357 -1.81217,-0.40285 -0.60867,-0.21928 -1.60467,-0.40693 -2.21333,-0.41699 -1.1499,-0.019 -2.0832,-0.57431 -2.56921,-1.52866 -0.32884,-0.64572 0.0662,-9.33578 0.49993,-10.9965 0.14902,-0.57062 0.38842,-1.50437 0.53199,-2.075 0.37323,-1.48328 0.77918,-9.00035 0.50628,-9.37478 -0.12585,-0.17267 -0.15868,-2.41367 -0.073,-4.98 0.13438,-4.02249 0.14129,-8.32297 0.0249,-15.50197 -0.0152,-0.93826 -0.0954,-1.77372 -0.17812,-1.85659 -0.27228,-0.27262 -0.0526,-14.56235 0.22928,-14.91356 0.14887,-0.1855 0.34082,-1.08426 0.42655,-1.99726 0.90784,-9.66753 1.22737,-12.25672 1.57055,-12.72667 0.11113,-0.15217 0.27135,-1.49811 0.35606,-2.99097 0.11474,-2.02205 0.0665,-2.74789 -0.18903,-2.84595 -0.18867,-0.0724 -1.46084,0.0312 -2.82704,0.23028 -1.64504,0.23969 -3.50768,0.29847 -5.51495,0.17406 -3.56939,-0.22124 -5.69707,-0.10549 -7.07044,0.38464 -0.74514,0.26593 -1.8606,0.30029 -4.42667,0.13636 -6.10319,-0.38989 -13.99273,-0.34874 -14.50409,0.0757 -0.18234,0.15133 -0.27515,0.61657 -0.20624,1.03386 0.0689,0.4173 0.16834,2.50173 0.22094,4.63206 0.0526,2.13033 0.16789,4.37133 0.25618,4.98 0.0883,0.60867 0.03,2.66292 -0.12953,4.565 -0.15953,1.90208 -0.26574,5.07683 -0.23602,7.055 0.0732,4.87069 0.0102,7.30765 -0.31097,12.035 -0.32842,4.83387 -0.35895,7.06595 -0.17593,12.865 0.12328,3.90664 0.27621,6.08667 0.42695,6.08667 0.0605,0 0.38172,3.86351 0.41412,4.98 0.0132,0.4565 0.11042,0.89525 0.21595,0.97499 0.10552,0.0798 0.07,1.82276 -0.079,3.87334 -0.14899,2.05058 -0.43196,5.97827 -0.62882,8.72819 -0.35254,4.92451 -0.37137,5.0194 -1.24966,6.29595 -1.338,1.94472 -2.583,2.47036 -6.19398,2.61512 -1.70935,0.0685 -3.12473,0.005 -3.32,-0.14964 -0.35572,-0.28121 -1.45304,-0.37934 -11.59245,-1.03668 -3.39785,-0.22029 -7.92093,-0.52152 -10.05126,-0.66941 -2.13033,-0.14789 -5.11833,-0.34281 -6.64,-0.43317 -6.8581,-0.40722 -8.27211,-1.26205 -7.98472,-4.8271 0.0805,-0.99821 0.21784,-2.00168 0.30527,-2.22993 0.0874,-0.22825 0.13301,-0.52695 0.10128,-0.66378 -0.0317,-0.13682 0.0359,-0.44807 0.15021,-0.69166 0.11434,-0.24359 0.35817,-1.93689 0.54185,-3.76289 0.18367,-1.826 0.47532,-3.88025 0.64812,-4.565 0.17279,-0.68475 0.41901,-2.31613 0.54715,-3.6253 0.12814,-1.30916 0.35744,-2.61641 0.50955,-2.905 0.15212,-0.28858 0.36679,-1.70745 0.47705,-3.15303 0.11027,-1.44559 0.29733,-2.75284 0.41571,-2.905 0.11838,-0.15217 0.29741,-1.08592 0.39785,-2.075 0.34806,-3.42741 0.76471,-5.94993 1.03785,-6.28344 0.39181,-0.47842 0.38418,-6.63625 -0.01,-8.01641 -0.31694,-1.11012 -0.50432,-3.29488 -0.71925,-8.38686 -0.0546,-1.29342 -0.17767,-2.78742 -0.2735,-3.32 -0.0958,-0.53258 -0.22287,-1.59083 -0.28232,-2.35167 -0.0594,-0.76083 -0.17117,-1.75683 -0.24827,-2.21333 -0.33653,-1.99255 -1.09695,-6.688 -1.16495,-7.19333 -0.041,-0.30434 -0.0985,-0.55334 -0.12784,-0.55334 -0.0294,0 -0.0908,-0.3735 -0.13657,-0.83 -0.0457,-0.4565 -0.28537,-1.9505 -0.53247,-3.32 -0.24711,-1.3695 -0.56825,-3.67275 -0.71364,-5.11833 -0.14539,-1.44558 -0.45989,-3.18103 -0.69888,-3.85655 -0.239,-0.67552 -0.40155,-1.61106 -0.36124,-2.07898 0.12025,-1.39571 -0.18545,-1.59395 -1.44532,-0.93727 -0.94313,0.49159 -1.45939,0.55918 -3.46643,0.45384 -2.13982,-0.11231 -2.395,-0.0713 -2.75489,0.44249 l -0.39662,0.56626 v -0.59857 c 0,-0.32921 -0.11039,-0.66679 -0.2453,-0.75017 -0.13492,-0.0834 -0.32589,-0.58116 -0.42438,-1.10616 -0.15523,-0.82741 -0.2976,-0.96602 -1.06887,-1.04056 -0.7840998,-0.0758 -0.8897798,-0.18413 -0.8897798,-0.91221 0,-0.60678 0.14695,-0.85409 0.5533298,-0.93117 0.86101,-0.16332 0.95901,-0.59406 0.37266,-1.638 -0.67354,-1.19918 -0.57959,-2.10849 0.22975,-2.22372 0.80496,-0.11462 1.16543,-0.59773 1.24725,-1.67156 0.0449,-0.5896 0.3606,-1.15694 0.93411,-1.67882 0.79148,-0.72023 2.75519,-3.4116 4.1329,-5.66435 0.98436,-1.60958 2.08438,-2.73989 5.68301,-5.8395 1.94331,-1.67383 5.58901,-4.94196 8.10156,-7.2625 2.51255,-2.32054 4.65359,-4.21917 4.75787,-4.21917 0.27386,0 3.01175,-2.48968 3.17589,-2.88798 0.0761,-0.18462 1.34664,-1.42982 2.82345,-2.767119 1.70305,-1.54216 3.24149,-3.254707 4.20631,-4.682343 0.83666,-1.237989 1.85324,-2.604009 2.25906,-3.0356 2.38518,-2.536644 5.53514,-6.556923 6.89618,-8.801569 0.15217,-0.250956 1.03244,-1.371456 1.95615,-2.49 0.92372,-1.118547 2.23854,-2.842969 2.92181,-3.832052 1.70084,-2.462049 6.79236,-10.932832 8.39793,-13.971667 0.72358,-1.3695 1.55298,-2.825154 1.8431,-3.234784 0.29013,-0.409633 0.71423,-1.156633 0.94245,-1.66 0.22823,-0.50337 0.91467,-1.786716 1.52544,-2.851883 0.61076,-1.065166 1.29778,-2.372416 1.5267,-2.905 0.80055,-1.86247 1.0962,-2.364908 2.88142,-4.8969 0.98908,-1.402822 2.12266,-3.029965 2.51906,-3.615873 1.03945,-1.536371 3.10824,-2.83056 4.52472,-2.83056 0.98545,0 1.337,-0.185978 2.60907,-1.380254 1.48616,-1.39528 2.59281,-1.877283 4.63382,-2.018264 0.58758,-0.04059 1.22395,-0.17137 1.41416,-0.290633 0.19021,-0.11926 0.46038,-0.146044 0.60039,-0.05952 0.14,0.08653 1.35387,-0.09909 2.6975,-0.412469 1.34362,-0.313385 2.95922,-0.610542 3.59023,-0.66035 0.631,-0.04981 1.25879,-0.159482 1.3951,-0.243722 0.2487,-0.153704 1.75658,-0.394803 3.82095,-0.61094 1.28284,-0.134311 3.99465,-0.610546 6.34029,-1.113454 0.90033,-0.19303 1.80454,-0.286657 2.00936,-0.208061 0.20482,0.0786 0.52644,0.02086 0.71471,-0.128291 0.18827,-0.149153 0.71581,-0.282261 1.17231,-0.29579 0.4565,-0.01353 2.1995,-0.289811 3.87333,-0.613967 1.67383,-0.324154 3.69402,-0.634774 4.4893,-0.690265 0.79528,-0.05549 1.68154,-0.226967 1.96946,-0.381056 0.28792,-0.15409 0.58992,-0.213731 0.67111,-0.132536 0.14944,0.14944 1.52403,-0.08821 5.04346,-0.871948 1.06517,-0.237201 2.43467,-0.472657 3.04334,-0.523236 1.89678,-0.15762 4.94074,-0.672167 7.4826,-1.264851 1.34247,-0.313021 3.13382,-0.629971 3.98079,-0.704331 2.26359,-0.198736 4.26443,-0.593214 5.38623,-1.061932 0.54453,-0.227518 2.26737,-0.682549 3.82855,-1.011178 1.56117,-0.32863 3.63384,-0.957983 4.60593,-1.398564 0.97209,-0.440581 1.8851,-0.801056 2.02891,-0.801056 0.14381,0 1.19425,-0.3735 2.3343,-0.83 2.75433,-1.102886 4.25906,-1.102886 5.99813,0 0.71983,0.4565 1.46782,0.83 1.6622,0.83 1.08072,0 2.82831,1.301409 4.67945,3.484734 1.1016,1.299278 2.06516,2.50961 2.14124,2.689628 0.13979,0.330757 1.18421,2.007799 2.35759,3.785638 0.58501,0.886374 1.7095,2.926459 3.33408,6.04878 0.34544,0.663915 0.92511,1.535415 1.28815,1.936667 1.31278,1.450964 2.72579,3.733362 4.97453,8.035224 0.90727,1.735622 1.87572,3.478622 2.15211,3.873334 1.09972,1.570531 2.43529,3.857452 3.32745,5.697662 1.48437,3.061729 2.77493,4.82858 6.90748,9.456741 1.9695,2.205708 3.04503,3.561671 3.06265,3.861232 0.008,0.131281 0.53685,0.948346 1.17584,1.815696 3.27303,4.442786 3.79012,5.182864 3.79012,5.424532 0,0.144309 0.19972,0.428133 0.44382,0.63072 0.2441,0.202586 0.5607,0.622455 0.70355,0.933041 0.41866,0.910272 0.94572,1.770598 1.40412,2.291965 0.23506,0.26734 0.68971,1.007947 1.01034,1.64579 0.32064,0.637844 0.90785,1.633844 1.30493,2.213334 0.39708,0.579489 0.83934,1.302616 0.98281,1.606949 0.14347,0.304333 0.41114,0.803094 0.59481,1.108354 0.18367,0.305263 0.79703,1.376945 1.36301,2.381517 0.56597,1.004571 1.56851,2.43556 2.22785,3.179979 1.42288,1.60647 2.12642,2.781227 3.25757,5.439381 0.56851,1.33598 1.52054,2.77511 2.93959,4.44357 1.15432,1.35721 2.37099,2.94693 2.70372,3.53271 1.09891,1.93468 2.75216,3.78766 3.52169,3.94717 0.40671,0.0843 0.9389,0.43844 1.18263,0.78696 2.71804,3.88668 4.02623,6.25034 4.02623,7.27469 0,1.27349 -0.73826,2.57938 -1.71019,3.02513 -0.50498,0.2316 -1.1049,0.54785 -1.33315,0.70278 -1.52202,1.03315 -8.79708,3.98689 -11.62,4.71783 -1.42476,0.36891 -2.00844,0.7583 -1.75394,1.17008 0.27364,0.44276 0.0884,4.4432 -0.22316,4.81857 -0.45336,0.54626 -1.33851,3.74532 -1.34078,4.84578 -0.001,0.56165 -0.12662,1.09812 -0.27878,1.19217 -0.15217,0.094 -0.27667,0.71654 -0.27667,1.38333 0,0.66679 -0.10841,1.27935 -0.24091,1.36124 -0.1325,0.0819 -0.31372,0.74286 -0.4027,1.46882 -0.56117,4.57824 -0.75299,5.80689 -0.98358,6.29994 -0.47198,1.00916 -1.12581,4.39337 -1.30958,6.77833 -0.0997,1.29342 -0.29963,2.50184 -0.44437,2.68539 -0.14474,0.18354 -0.17948,0.46911 -0.0772,0.63461 0.10228,0.1655 0.0618,0.45108 -0.09,0.63462 -0.36278,0.43867 -0.81439,2.6695 -1.29975,6.42038 -0.3647,2.81846 -0.90771,6.31844 -1.50233,9.68334 -0.96249,5.44658 -1.16856,9.8247 -0.49838,10.58818 0.66421,0.75667 0.87367,1.72636 0.78695,3.64327 -0.0897,1.98259 -0.41749,2.66716 -2.07612,4.33559 -0.6217,0.62538 -1.5858,1.69162 -2.14245,2.36943 -1.20261,1.46438 -2.61221,1.99567 -4.59646,1.73245 -1.13276,-0.15026 -1.61017,-0.0449 -3.25448,0.71813 -1.05983,0.49182 -2.79847,1.29774 -3.86364,1.79094 -1.06517,0.49319 -2.24763,0.99295 -2.62769,1.11058 -1.00993,0.31258 -6.43146,2.90218 -6.91731,3.30406 -0.68786,0.56898 -6.28323,2.78386 -9.82167,3.88783 -6.51228,2.03179 -11.76967,4.16493 -15.07833,6.11791 -0.68475,0.40418 -1.6415,0.95959 -2.12613,1.23423 -0.48461,0.27464 -1.40673,0.83115 -2.04915,1.23669 -1.09159,0.68909 -2.34953,1.40261 -4.67805,2.65346 -1.0899,0.58548 -1.55747,0.87043 -3.2507,1.98108 -2.027,1.32959 -4.68131,2.16165 -6.61462,2.07353 -1.25672,-0.0573 -1.83735,0.0394 -2.21333,0.36835 -1.28363,1.12323 -4.32491,1.30397 -6.25305,0.37163 -0.89335,-0.43198 -3.53123,-0.60879 -4.07439,-0.2731 -0.45669,0.28225 -4.09843,0.22205 -8.02725,-0.13269 -3.43022,-0.30973 -12.89393,-0.156 -13.36635,0.21712 -0.82361,0.65051 -1.50472,0.77854 -2.94979,0.5545 z m 27.67838,-14.26234 c 0.0104,-0.11413 0.18893,-2.1995 0.39675,-4.63417 0.20782,-2.43466 0.56014,-5.42266 0.78293,-6.64 0.22279,-1.21733 0.55211,-4.76558 0.73181,-7.885 0.1797,-3.11941 0.43252,-6.97401 0.56182,-8.56576 0.1293,-1.59175 0.16161,-3.01299 0.0718,-3.1583 -0.24167,-0.39104 -0.13627,-6.87187 0.19403,-11.93094 0.15896,-2.43466 0.47602,-7.53916 0.70457,-11.34333 0.4832,-8.04255 0.92122,-13.79619 1.13112,-14.85784 0.0813,-0.41131 0.40769,-1.07817 0.72527,-1.48191 l 0.57742,-0.73406 -0.73865,-1.4231 c -0.40625,-0.7827 -0.9841,-1.79659 -1.2841,-2.25309 -0.3,-0.4565 -0.65884,-1.08412 -0.79741,-1.3947 -0.13858,-0.31059 -0.46945,-0.74522 -0.73528,-0.96584 -0.26584,-0.22062 -0.98743,-1.4605 -1.60355,-2.7553 -1.21872,-2.56119 -3.86855,-6.42524 -6.10259,-8.89894 -1.25984,-1.39499 -2.20186,-2.57916 -6.26982,-7.88149 -0.60043,-0.78262 -1.09169,-1.49991 -1.09169,-1.59397 0,-0.0941 -0.498,-0.90059 -1.10667,-1.79228 -0.60866,-0.8917 -1.10666,-1.73203 -1.10666,-1.8674 0,-0.13537 -0.42921,-0.74277 -0.95381,-1.34977 -0.52459,-0.607 -1.21403,-1.60164 -1.53208,-2.21031 -0.68864,-1.31784 -1.00261,-1.82987 -2.00995,-3.27776 -0.41845,-0.60148 -0.76083,-1.25211 -0.76083,-1.44586 0,-0.19374 -0.31125,-0.72216 -0.69167,-1.17426 -0.38041,-0.4521 -0.69166,-0.90867 -0.69166,-1.0146 0,-0.10593 -0.56025,-0.84838 -1.245,-1.64989 -0.68475,-0.801507 -1.245,-1.584244 -1.245,-1.739416 0,-0.155171 -0.17883,-0.430537 -0.39739,-0.611928 -0.21856,-0.181391 -0.88164,-1.286011 -1.47351,-2.454709 -2.96691,-5.8584 -4.35725,-8.005095 -8.21695,-12.687003 -1.52743,-1.85282 -3.39965,-4.37267 -4.16049,-5.599667 -0.76083,-1.227 -1.47671,-2.232183 -1.59083,-2.233741 -0.11413,-0.0017 -0.2075,-0.150445 -0.2075,-0.33086 0,-0.180417 -0.47706,-0.896292 -1.06014,-1.590833 C 93.1685,69.399619 91.3,66.775784 91.3,66.515537 c 0,-0.09724 -0.43036,-0.65316 -0.95635,-1.235372 -0.52599,-0.582212 -1.22497,-1.593301 -1.55327,-2.246865 -0.3283,-0.653564 -0.92507,-1.6221 -1.32615,-2.152298 -0.86295,-1.14076 -1.19326,-1.687633 -1.95601,-3.238392 -1.04475,-2.124072 -0.6786,-2.556524 -5.99304,7.07826 -4.83212,8.760354 -4.90095,8.882029 -5.66574,10.014874 -0.36911,0.546743 -0.98236,1.515591 -1.36277,2.152995 -1.53196,2.566855 -4.25843,6.610787 -5.27969,7.830898 -0.59601,0.712048 -1.08365,1.501829 -1.08365,1.755068 0,0.253236 -0.2204,0.518067 -0.48977,0.588509 -0.30057,0.0786 -0.70666,0.747174 -1.05121,1.730705 l -0.56144,1.602624 0.56704,0.24923 c 0.35395,0.155564 0.56705,0.509164 0.56705,0.940894 0,0.553383 -0.15623,0.709567 -0.78141,0.781196 -0.6,0.06874 -0.81624,-0.04366 -0.93143,-0.484167 C 63.35966,91.568163 63.19547,91.31 63.07733,91.31 c -0.36988,0 -0.58274,0.908587 -0.28307,1.208264 0.62212,0.622116 0.31449,1.574624 -0.63693,1.972155 -0.8122,0.339356 -0.90786,0.486427 -0.79898,1.22832 0.10128,0.690073 0.005,0.888166 -0.52983,1.093126 -0.38493,0.147444 -0.76154,0.148496 -0.91635,0.0025 -0.42862,-0.404038 -0.75409,-0.283118 -0.63631,0.236406 0.19377,0.854739 -0.56664,2.005829 -1.32505,2.005829 -1.14263,0 -1.77581,0.54801 -1.49291,1.29208 0.35033,0.92144 -0.66355,1.82804 -1.8879,1.68814 -1.0395,-0.11877 -2.05937,0.75604 -6.2492,5.36037 -1.33576,1.4679 -3.46284,3.50065 -4.72685,4.51722 -1.264,1.01657 -2.57432,2.2218 -2.91181,2.67828 -0.33749,0.45648 -1.19417,1.19665 -1.90372,1.64481 -0.70955,0.44816 -3.06093,2.43822 -5.22529,4.42235 l -3.93521,3.60752 0.71013,1.12492 c 0.51849,0.82135 0.74403,1.61935 0.83575,2.95712 0.0691,1.00771 0.25525,2.41766 0.41369,3.13323 0.15843,0.71557 0.21278,1.42284 0.12077,1.57171 -0.092,0.14888 -0.0566,0.3391 0.0787,0.42271 0.13529,0.0836 0.25738,0.71941 0.27129,1.41287 0.0139,0.69347 0.10063,1.38271 0.19268,1.53166 0.092,0.14895 0.21571,0.54888 0.2748,0.88875 0.41954,2.41336 0.71761,4.63557 0.81823,6.10021 0.0647,0.94108 0.37522,2.95323 0.69014,4.47144 0.31492,1.51821 0.63275,3.26121 0.70628,3.87333 0.0735,0.61212 0.31429,2.22831 0.53503,3.59153 0.22073,1.36322 0.34539,2.53452 0.27703,2.60288 -0.0684,0.0684 -0.005,0.26799 0.14071,0.44362 0.14576,0.17562 0.33788,1.36983 0.42694,2.65379 0.0891,1.28395 0.22875,3.08146 0.31043,3.99446 0.0817,0.913 0.18046,2.79234 0.21951,4.1763 0.0391,1.38397 0.14859,2.64185 0.24342,2.79529 0.16548,0.26775 0.26069,1.03562 0.69647,5.61675 0.242,2.54405 -0.12204,9.51815 -0.53734,10.29415 -0.16668,0.31144 -0.3705,1.55022 -0.45293,2.75285 -0.0824,1.20263 -0.25632,2.25238 -0.38642,2.33279 -0.13011,0.0805 -0.23656,0.69182 -0.23656,1.35861 0,0.66679 -0.10654,1.2782 -0.23676,1.35867 -0.13022,0.0805 -0.32502,1.54118 -0.4329,3.246 -0.10788,1.70482 -0.37302,3.6072 -0.58921,4.2275 -0.21619,0.62031 -0.39489,1.71186 -0.3971,2.42567 -0.002,0.71381 -0.12853,1.37479 -0.28069,1.46883 -0.15217,0.094 -0.27667,0.38643 -0.27667,0.64974 0,0.39656 0.29684,0.48881 1.72917,0.53739 3.08472,0.10463 9.43311,0.60883 11.13583,0.88442 0.913,0.14777 2.656,0.38997 3.87333,0.53821 2.73071,0.33255 4.83309,0.70652 5.43918,0.96752 0.31545,0.13585 0.50567,0.0399 0.60773,-0.30644 0.22772,-0.77278 0.28206,-5.29785 0.0841,-7.00584 -0.097,-0.83692 -0.2238,-2.15318 -0.28182,-2.92503 -0.058,-0.77185 -0.253,-1.67899 -0.4333,-2.01587 -0.30393,-0.5679 -0.34188,-1.81851 -0.35382,-11.6591 -10e-4,-1.14125 0.14874,-4.1915 0.33362,-6.77833 0.31597,-4.42133 0.67829,-19.18331 0.59076,-24.07 -0.14721,-8.21906 -0.27226,-10.20686 -0.83285,-13.23913 -0.49602,-2.68302 -0.55543,-3.55385 -0.32684,-4.79041 0.64432,-3.48545 4.02021,-5.9423 8.14577,-5.9282 4.40121,0.015 10.3182,-0.16382 10.57011,-0.31951 0.15428,-0.0953 1.95455,-0.0532 4.00059,0.0936 5.43567,0.39008 6.54033,0.39007 7.01043,-8e-5 0.23122,-0.19189 0.55188,-0.26764 0.71257,-0.16833 0.1607,0.0993 1.19328,0.0508 2.29462,-0.10786 1.17658,-0.16947 3.14629,-0.20546 4.77586,-0.0873 3.43101,0.24886 5.65876,-0.0113 7.149,-0.8348 0.78193,-0.43211 1.71369,-0.65954 2.94259,-0.71825 1.53013,-0.0731 1.99495,0.0242 3.11667,0.65231 0.72509,0.40603 1.44248,0.97018 1.5942,1.25367 0.16152,0.3018 0.70449,0.58113 1.30999,0.67392 2.6728,0.4096 4.76075,1.69088 5.45221,3.34577 0.65925,1.57781 0.77486,4.4469 0.27781,6.89457 -0.2472,1.21733 -0.56797,3.64508 -0.71281,5.395 -0.14485,1.74991 -0.37717,3.43066 -0.51627,3.735 -0.40327,0.88229 -0.59878,2.17215 -0.85245,5.62375 -0.23371,3.18006 -0.49024,5.2141 -1.07028,8.48625 -0.33151,1.87007 -0.40244,6.71532 -0.15594,10.65166 0.24627,3.93275 0.32953,16.7183 0.12432,19.09 -0.0987,1.14125 -0.0771,2.20953 0.0481,2.37394 0.23976,0.31482 0.11572,7.07938 -0.19517,10.64335 l -0.18285,2.09611 4.66538,0.33466 c 2.56597,0.18407 6.47064,0.46313 8.67706,0.62015 2.20642,0.15702 5.25667,0.38604 6.77833,0.50894 3.92351,0.31689 4.28605,0.32464 4.30724,0.092 z m 13.26552,-1.59362 c 0.60505,-0.38196 1.81645,-1.08074 2.692,-1.55285 1.37563,-0.74175 4.40948,-2.52541 5.84261,-3.43496 2.93543,-1.86301 9.99287,-4.89044 10.77447,-4.62193 0.19902,0.0684 0.57252,-0.0563 0.83,-0.27703 0.25749,-0.22073 0.67788,-0.47547 0.9342,-0.56608 0.40045,-0.14157 0.42046,-0.28551 0.14215,-1.02284 -0.2671,-0.70761 -0.25179,-0.90368 0.0873,-1.11807 0.67415,-0.42624 1.33072,-0.30474 1.51652,0.28066 0.13065,0.41163 0.37383,0.52726 0.97134,0.46185 0.43838,-0.048 0.96974,-0.23057 1.1808,-0.40573 0.21105,-0.17516 0.68496,-0.35187 1.05313,-0.39268 0.36817,-0.0408 0.87164,-0.29312 1.11883,-0.56067 0.24719,-0.26755 0.83676,-0.62147 1.31016,-0.7865 0.73681,-0.25685 0.81967,-0.37679 0.57553,-0.83297 -0.67453,-1.26038 1.60387,-3.13616 2.43264,-2.00276 0.19953,0.27287 0.29494,0.67294 0.21201,0.88904 -0.12148,0.31658 -0.0718,0.32739 0.25557,0.0557 0.30972,-0.25704 0.34141,-0.50799 0.13329,-1.05538 -0.1993,-0.52421 -0.17657,-0.8114 0.0842,-1.06347 0.60383,-0.58376 1.87887,-0.60591 1.87887,-0.0326 0,0.59941 2.15568,0.54514 2.48085,-0.0625 0.38132,-0.71251 1.69548,-1.00792 2.00706,-0.45116 0.21282,0.38029 0.35104,0.38483 1.17923,0.0388 0.51599,-0.21559 1.19497,-0.32483 1.50884,-0.24275 0.43599,0.11401 0.57068,0.0186 0.57068,-0.4041 0,-0.7164 1.06799,-1.0153 1.67262,-0.46812 0.39898,0.36107 0.61735,0.28421 1.99477,-0.70215 0.85072,-0.60918 1.61616,-1.1076 1.701,-1.1076 0.44583,0 4.91771,-2.30373 5.00874,-2.5803 0.0588,-0.17858 0.2328,-2.1922 0.38673,-4.4747 0.15392,-2.2825 0.40721,-4.95925 0.56286,-5.94833 0.15565,-0.98909 0.36451,-2.64184 0.46414,-3.67279 0.0996,-1.03095 0.2887,-1.94092 0.42015,-2.02216 0.13144,-0.0812 0.23899,-0.69326 0.23899,-1.36005 0,-0.66679 0.10877,-1.27957 0.2417,-1.36172 0.13293,-0.0822 0.31941,-1.17888 0.4144,-2.43716 0.25483,-3.37559 0.6481,-5.72309 1.42615,-8.51279 0.1061,-0.38042 0.24283,-1.12742 0.30384,-1.66 0.3767,-3.28813 1.09478,-7.16964 1.50992,-8.16167 0.12735,-0.30433 0.43297,-1.92283 0.67915,-3.59666 0.24618,-1.67384 0.55965,-3.41684 0.69661,-3.87334 0.38237,-1.27447 1.46371,-7.60508 1.32306,-7.74573 -0.0684,-0.0684 -2.73189,0.74426 -5.91879,1.80598 -3.18691,1.06172 -8.34662,2.6693 -11.46604,3.5724 -3.11941,0.9031 -6.66766,1.97313 -7.885,2.37784 -1.21733,0.40472 -2.40008,0.76851 -2.62833,0.80844 -0.22825,0.0399 -0.63901,0.16779 -0.91281,0.28416 -0.27379,0.11637 -1.58104,0.49326 -2.905,0.83753 -1.32395,0.34427 -3.19724,0.96086 -4.16285,1.3702 -0.96561,0.40933 -2.08611,0.78815 -2.49,0.84182 -0.40389,0.0537 -0.76547,0.10615 -0.80351,0.11663 -0.038,0.0105 -0.16254,0.0297 -0.27666,0.0426 -0.11413,0.0129 -0.332,0.11559 -0.48417,0.22811 -0.15217,0.11252 -1.08592,0.42786 -2.075,0.70076 -0.98908,0.27291 -2.54533,0.84685 -3.45833,1.27543 -0.913,0.42858 -1.97125,0.91724 -2.35167,1.08592 -0.94092,0.4172 -1.63148,0.84181 -2.771,1.70382 -2.36682,1.79042 -4.1868,2.22916 -6.76623,1.63112 -0.6044,-0.14012 -1.12738,-0.22629 -1.1622,-0.19148 -0.0632,0.0632 -0.25493,2.90709 -1.09435,16.22946 -0.24449,3.88025 -0.47703,10.1675 -0.51676,13.97167 -0.0397,3.80417 -0.21206,8.78417 -0.38298,11.06667 -0.17091,2.2825 -0.39225,5.74205 -0.49185,7.68789 -0.0996,1.94584 -0.28614,3.60281 -0.41453,3.68216 -0.12839,0.0794 -0.23343,0.67227 -0.23343,1.31761 0,0.64533 -0.11162,1.29161 -0.24805,1.43617 -0.31634,0.3352 -0.54533,5.65783 -0.24341,5.65783 0.12418,0 0.72083,-0.3125 1.32588,-0.69445 z m 5.27098,-73.05979 c 0.51365,-0.61891 3.14171,-1.88578 5.0996,-2.45829 0.913,-0.26697 2.08014,-0.61089 2.59365,-0.76427 0.54375,-0.16241 0.9927,-0.50464 1.07503,-0.81949 0.11328,-0.43317 0.34011,-0.52332 1.14135,-0.45361 1.30101,0.1132 3.6283,-0.56097 3.6283,-1.05105 0,-0.42427 0.10708,-0.44363 2.12115,-0.38364 1.00429,0.0299 1.86838,-0.15993 2.905,-0.63826 0.81154,-0.37445 2.34702,-0.83515 3.41218,-1.02377 1.06517,-0.18862 2.09158,-0.46569 2.28091,-0.61572 0.18934,-0.15002 0.65542,-0.21329 1.03575,-0.14058 0.38234,0.0731 0.82452,-0.0281 0.98904,-0.22633 0.28369,-0.34183 1.82699,-0.83474 2.26514,-0.72345 0.11412,0.029 0.2075,-0.0791 0.2075,-0.24029 0,-0.16115 0.12995,-0.21268 0.28878,-0.11452 0.15884,0.0982 0.4876,0.0135 0.73058,-0.18817 0.24299,-0.20167 0.76666,-0.38645 1.16372,-0.41063 0.39705,-0.0242 1.09542,-0.20185 1.55192,-0.39481 0.4565,-0.19296 0.89225,-0.37203 0.96833,-0.39792 0.80882,-0.27526 1.10667,-0.57291 1.10667,-1.10596 0,-0.34785 0.20428,-0.71086 0.45397,-0.80667 0.7156,-0.2746 1.48269,0.0983 1.48269,0.72086 0,0.40945 0.0968,0.49561 0.34584,0.30786 0.1902,-0.14339 0.84383,-0.4092 1.4525,-0.5907 0.60866,-0.18149 2.26952,-0.70192 3.69078,-1.1565 1.42126,-0.45458 2.77296,-0.82651 3.00377,-0.82651 0.25528,0 0.35861,-0.15908 0.2638,-0.40614 -0.15185,-0.39571 0.23115,-0.80526 0.78831,-0.84296 0.68102,-0.0461 2.62121,-0.72888 2.77411,-0.97627 0.093,-0.15051 0.28245,-0.20362 0.42096,-0.11802 0.13851,0.0856 0.53453,-0.001 0.88005,-0.19318 0.34552,-0.19186 0.69047,-0.35624 0.76655,-0.36529 0.65605,-0.0781 2.81218,-0.8213 2.92846,-1.00943 0.0811,-0.13129 0.42031,-0.24267 0.7537,-0.24751 0.3334,-0.005 0.84784,-0.19159 1.14322,-0.415 0.29537,-0.22341 0.7968,-0.4062 1.11427,-0.4062 0.31748,0 0.82281,-0.16818 1.12296,-0.37372 0.48078,-0.32925 1.67333,-0.74292 2.48239,-0.86109 0.15217,-0.0222 0.62949,-0.19013 1.06072,-0.37311 0.43122,-0.18299 0.8895,-0.26754 1.01838,-0.18788 0.12888,0.0797 0.31379,0.0163 0.4109,-0.14087 0.0971,-0.15713 0.29843,-0.21038 0.44737,-0.11833 0.14894,0.0921 0.48271,0.0777 0.74171,-0.0319 0.25901,-0.10958 0.84008,-0.247 1.29127,-0.30537 0.4512,-0.0584 0.93309,-0.21888 1.07088,-0.35667 0.35382,-0.35382 -1.5717,-3.42499 -3.12869,-4.99019 -1.74928,-1.75851 -2.81331,-3.40003 -3.74779,-5.78186 -0.51671,-1.31702 -1.34137,-2.66715 -2.39706,-3.92447 -0.88515,-1.0542 -1.60936,-1.97146 -1.60936,-2.03836 0,-0.10809 -3.74523,-6.57879 -4.41597,-7.629557 -0.1457,-0.22825 -0.73684,-1.206073 -1.31363,-2.17294 -1.52252,-2.552131 -1.71698,-2.869844 -2.23788,-3.656266 -1.07525,-1.623358 -2.58455,-3.785962 -3.36564,-4.82246 -0.97159,-1.289295 -2.792,-3.87768 -3.19188,-4.538418 -0.44591,-0.736819 -4.15078,-5.082051 -4.97644,-5.836582 -1.15095,-1.051812 -2.87826,-3.693298 -4.52291,-6.916667 -0.81522,-1.59775 -2.02996,-3.7302 -2.69943,-4.738777 -0.66946,-1.00858 -1.94175,-3.24958 -2.8273,-4.98 -1.55635,-3.041206 -3.1216,-5.530777 -4.27636,-6.801684 -0.61605,-0.67801 -0.66273,-0.756863 -2.37611,-4.013656 -0.66287,-1.259984 -1.84562,-3.321494 -2.62833,-4.58113 -0.78272,-1.259635 -1.55248,-2.522483 -1.71058,-2.806326 -0.56539,-1.015016 -1.03534,-1.405094 -1.69281,-1.405094 -0.36714,0 -0.98004,-0.204766 -1.362,-0.455039 -0.54027,-0.353995 -0.82992,-0.388681 -1.30444,-0.156211 -1.83714,0.900046 -3.40815,1.44125 -4.18366,1.44125 -1.43786,0 -4.05778,0.798397 -4.54664,1.385544 -0.4013,0.48199 -0.53972,0.504729 -1.14799,0.188598 -0.56827,-0.295344 -0.91377,-0.29434 -1.93666,0.0056 -0.68475,0.200802 -1.3695,0.524828 -1.52167,0.720061 -0.18582,0.238403 -1.00347,0.350622 -2.49,0.341736 -1.21733,-0.0073 -2.46233,0.100518 -2.76667,0.23954 -0.30433,0.139025 -0.64671,0.279088 -0.76083,0.31125 -0.11413,0.03217 -0.23862,0.08188 -0.27667,0.110473 -0.038,0.0286 -1.00291,0.116145 -2.14416,0.194555 -1.14125,0.07841 -2.19328,0.257325 -2.33784,0.397589 -0.14455,0.140268 -0.71518,0.255029 -1.26805,0.255029 -0.55288,0 -1.09821,0.09338 -1.21186,0.2075 -0.21824,0.219139 -2.95449,0.839606 -4.58892,1.040574 -2.26635,0.278667 -3.38873,0.791109 -3.78058,1.726093 -0.42803,1.021295 -0.36497,0.99235 -1.34787,0.618654 -0.48918,-0.185984 -0.68419,-0.420215 -0.57871,-0.695086 0.16564,-0.431653 -0.47767,-0.370958 -1.99356,0.188089 -0.35514,0.130974 -0.74204,0.178602 -0.85977,0.105839 -0.11774,-0.07276 -0.63641,-0.0039 -1.15262,0.153118 -0.51621,0.156981 -1.18756,0.33265 -1.49189,0.390377 -0.30433,0.05773 -1.0432,0.229008 -1.64193,0.380624 -0.7087,0.17946 -1.26427,0.181643 -1.59199,0.0063 -0.31955,-0.171019 -0.88186,-0.174948 -1.53974,-0.01076 -0.56999,0.142257 -1.50934,0.267855 -2.08745,0.279107 -0.57812,0.01126 -1.17299,0.09578 -1.32194,0.187835 -0.14895,0.09206 -0.67195,0.2163 -1.16222,0.276094 -1.61042,0.196411 -3.07592,0.435988 -5.0414,0.824156 -1.06516,0.210364 -2.68366,0.454246 -3.59666,0.541957 -1.45969,0.140234 -3.60757,0.58152 -9.26834,1.904192 -0.83691,0.195551 -1.5188,0.470635 -1.5153,0.6113 0.007,0.272036 1.01986,2.374904 1.58936,3.298985 0.18752,0.30428 1.01988,1.61153 1.84969,2.905 0.82982,1.293472 1.7458,2.787516 2.03551,3.320099 0.28972,0.532584 0.85578,1.38778 1.25792,1.900437 0.7574,0.965562 1.01133,1.328377 2.36648,3.381266 0.44292,0.67098 1.38765,1.904714 2.09939,2.741631 0.71174,0.836916 1.58602,2.019666 1.94284,2.628333 1.54122,2.629008 3.05405,4.770696 4.00632,5.671667 0.56291,0.532583 1.51325,1.653083 2.11187,2.49 0.59862,0.836916 1.46148,2.019666 1.91748,2.628333 0.45599,0.608667 0.95123,1.355667 1.10054,1.66 0.1493,0.304333 0.53882,0.989083 0.86561,1.521667 0.60671,0.988795 2.13195,3.745516 3.44417,6.225 0.40265,0.760833 1.03223,1.756833 1.39907,2.213333 1.55891,1.939951 2.60424,3.413793 3.43397,4.841667 0.48632,0.836916 1.24403,2.144166 1.68377,2.905001 1.08709,1.88081 1.27729,2.17715 2.78714,4.34238 0.72279,1.03653 1.53748,2.28878 1.81042,2.78278 1.02178,1.84931 2.53502,4.01523 4.18516,5.99026 0.93635,1.12071 1.83907,2.30096 2.00605,2.62278 0.16698,0.32182 0.98282,1.25497 1.81298,2.07366 0.83016,0.8187 2.07259,2.37495 2.76096,3.45834 0.68836,1.08339 1.50372,2.24525 1.8119,2.58192 0.70788,0.77332 1.03928,1.34068 2.42296,4.14816 0.6154,1.24866 1.44379,2.65638 1.84086,3.12828 0.39707,0.47189 0.93412,1.25551 1.19344,1.74138 1.08676,2.03614 2.67056,5.15616 3.16312,6.2312 0.56368,1.23025 0.98027,1.42091 1.56506,0.71628 z"
       id="path77"
       inkscape:connector-curvature="0" />
  </g>
</svg>
