<?xml version="1.0" encoding="UTF-8" standalone="no"?>
<!-- Created with Inkscape (http://www.inkscape.org/) -->

<svg
   xmlns:dc="http://purl.org/dc/elements/1.1/"
   xmlns:cc="http://creativecommons.org/ns#"
   xmlns:rdf="http://www.w3.org/1999/02/22-rdf-syntax-ns#"
   xmlns:svg="http://www.w3.org/2000/svg"
   xmlns="http://www.w3.org/2000/svg"
   xmlns:sodipodi="http://sodipodi.sourceforge.net/DTD/sodipodi-0.dtd"
   xmlns:inkscape="http://www.inkscape.org/namespaces/inkscape"
   width="256px"
   height="256px"
   viewBox="0 0 256 256"
   version="1.1"
   id="SVGRoot"
   inkscape:version="0.92.4 (5da689c313, 2019-01-14)"
   sodipodi:docname="login.svg">
  <defs
     id="defs10" />
  <sodipodi:namedview
     id="base"
     pagecolor="#ffffff"
     bordercolor="#666666"
     borderopacity="1.0"
     inkscape:pageopacity="0.0"
     inkscape:pageshadow="2"
     inkscape:zoom="8"
     inkscape:cx="25.011565"
     inkscape:cy="112.13155"
     inkscape:document-units="px"
     inkscape:current-layer="layer1"
     showgrid="false"
     inkscape:window-width="3840"
     inkscape:window-height="2104"
     inkscape:window-x="-16"
     inkscape:window-y="-16"
     inkscape:window-maximized="1"
     inkscape:grid-bbox="true" />
  <metadata
     id="metadata13">
    <rdf:RDF>
      <cc:Work
         rdf:about="">
        <dc:format>image/svg+xml</dc:format>
        <dc:type
           rdf:resource="http://purl.org/dc/dcmitype/StillImage" />
        <dc:title></dc:title>
      </cc:Work>
    </rdf:RDF>
  </metadata>
  <g
     inkscape:label="Layer 1"
     inkscape:groupmode="layer"
     id="layer1">
    <path
       style="fill:#ffffff;stroke-width:0.29235852"
       d="m 179.77193,249.21552 c -0.95206,-0.47984 -1.42147,-2.21845 -0.94197,-3.48879 0.97551,-2.58441 2.55939,-4.8746 9.01514,-12.11214 5.71324,-6.40513 10.26499,-12.15576 13.44572,-16.98718 2.71014,-4.11658 6.41226,-11.19322 8.09194,-15.46771 1.21767,-3.09879 3.95831,-12.08179 4.86027,-15.93045 1.61639,-6.89725 1.71859,-8.17926 1.57836,-19.79925 -0.13738,-11.38208 -0.29908,-13.13258 -1.8306,-19.81534 -5.16139,-22.52193 -18.29554,-34.32973 -42.82018,-38.4959 -3.65571,-0.62102 -4.79869,-0.67052 -15.495,-0.67121 -11.7013,-8.8e-4 -14.48075,0.15553 -23.68105,1.33148 -28.16494,3.59997 -51.294537,14.45488 -64.679704,30.35475 -6.100149,7.24618 -9.571614,14.56414 -11.642653,24.54296 -0.48318,2.32807 -0.567525,3.94259 -0.565129,10.81727 0.0058,17.02047 2.221722,27.30941 8.900769,41.33038 1.455361,3.05513 5.945724,9.77835 7.421082,11.11126 0.657719,0.5942 1.855366,1.41457 2.661428,1.82304 2.526328,1.2802 2.997026,3.41062 1.10526,5.00245 -0.780976,0.65714 -1.099735,0.74507 -2.169386,0.59846 -2.612839,-0.35812 -6.248756,-3.00251 -8.894308,-6.46879 -0.613807,-0.80423 -1.781252,-2.31741 -2.594359,-3.36258 -1.627649,-2.09227 -4.652507,-7.3589 -6.304918,-10.97751 -2.637891,-5.77675 -5.257658,-14.84708 -6.582423,-22.78991 -1.204985,-7.22459 -1.410923,-21.33039 -0.396992,-27.18935 2.396725,-13.84923 8.357536,-25.03501 18.45057,-34.62356 15.015681,-14.2651 37.224373,-23.83682 63.812103,-27.50233 8.48729,-1.170103 13.4765,-1.459681 25.15971,-1.460307 10.47279,-5.84e-4 11.5914,0.04961 16.07971,0.721221 24.1394,3.612066 40.01579,15.737856 47.27804,36.109166 1.39556,3.9147 2.59802,8.93175 3.60975,15.06147 0.53103,3.21723 0.65041,5.42667 0.77764,14.39285 0.16219,11.42919 0.07,12.69839 -1.55658,21.42107 -1.53898,8.25299 -5.16988,18.72582 -9.27452,26.75081 -3.37112,6.59099 -10.13101,16.23208 -15.46646,22.0587 -1.40605,1.53547 -3.62859,3.97582 -4.93898,5.423 -8.20593,9.06232 -9.67562,9.67137 -12.41228,8.29197 z m -17.20502,-52.16663 c -0.97939,-0.97938 -0.64939,-2.02557 3.03185,-9.61185 1.61592,-3.33009 3.38223,-7.56427 4.42826,-10.61542 0.95706,-2.79164 2.34141,-6.35059 3.07631,-7.90879 0.73491,-1.55817 1.52457,-3.45076 1.7548,-4.20571 0.50178,-1.64529 1.56598,-2.57419 2.9492,-2.57419 2.98536,0 3.7537,2.5835 2.30413,7.74749 -1.66419,5.92869 -4.91855,15.26614 -6.06269,17.39534 -1.89163,3.5201 -5.50237,7.59387 -8.17885,9.22766 -1.81371,1.10713 -2.60987,1.23862 -3.30301,0.54547 z m -65.501591,-1.40673 c -1.953276,-1.95329 -7.79346,-16.53997 -9.063728,-22.63799 -0.786387,-3.77498 -0.358315,-9.95756 0.851376,-12.29686 0.517065,-0.99987 2.013123,-2.07978 2.883737,-2.0816 0.876697,-0.002 2.196168,0.82884 2.431283,1.5306 0.121825,0.36355 0.190881,1.38459 0.153489,2.26897 -0.03739,0.88438 0.06942,3.0601 0.237365,4.8349 0.330716,3.49469 1.328711,6.84732 4.47861,15.04549 2.050979,5.33801 2.681719,8.22843 2.275279,10.427 -0.32723,1.77017 -0.42798,2.0023 -1.27971,2.9484 -0.784603,0.87154 -2.074168,0.85462 -2.967701,-0.0389 z M 119.83651,83.337808 c -6.58417,-0.93671 -12.36474,-2.924392 -16.82789,-5.78636 -2.03622,-1.305729 -6.308194,-5.316022 -7.985104,-7.495983 -2.915839,-3.790547 -5.77452,-9.781991 -6.892849,-14.446536 -0.809483,-3.376279 -0.810272,-11.762072 -0.0029,-15.535681 0.646816,-3.017951 1.596804,-5.563332 2.782349,-7.455143 1.477637,-2.357848 4.198801,-7.376479 6.332666,-9.016078 2.064194,-1.586072 8.127178,-8.48973 12.745268,-10.406391 6.18777,-2.568134 15.84092,-7.1362511 22.89971,-8.0345171 4.90274,-0.623893 19.21543,1.925913 23.91329,2.54136 11.11549,1.456216 17.57541,8.5546651 22.87891,13.8266031 3.65548,3.633701 4.89216,6.019454 5.28108,10.187949 0.33357,3.575406 -0.11514,8.729464 -1.08494,12.462032 -1.75231,6.74431 -6.56061,15.679603 -11.54758,21.458965 -4.79556,5.557533 -9.75811,9.387718 -15.63106,12.064355 -5.8798,2.679752 -9.79484,3.936791 -16.37207,5.25674 -3.91908,0.786495 -16.04813,1.010653 -20.49028,0.378683 z m 21.22117,-9.153394 c 8.84984,-1.998162 15.06189,-4.902876 20.54644,-9.607378 5.74706,-4.929691 11.67077,-14.488876 14.00713,-22.603522 0.84474,-2.933957 0.96799,-3.790165 0.96799,-6.724182 0,-3.709252 -0.28035,-4.760316 -1.71561,-6.431887 -3.37677,-3.932788 -9.89628,-11.077114 -18.81421,-12.225224 -4.61257,-0.593827 -11.17027,-4.063089 -21.63516,-2.66463 -14.79595,1.428368 -16.70711,3.463634 -21.027,6.608504 -11.13829,5.201558 -17.918061,20.151859 -17.937515,26.621378 0,4.65697 0.02397,4.840772 1.030828,7.95573 2.954953,9.140662 8.894247,15.499525 17.075967,18.282301 1.74365,0.593058 4.74486,1.193051 8.64401,1.72809 0.48239,0.0662 4.03455,0.08246 7.89369,0.03615 6.59771,-0.07917 7.25224,-0.1374 10.96344,-0.975335 z"
       id="path34"
       inkscape:connector-curvature="0"
       sodipodi:nodetypes="ccccccccscsccccccccccccccsccccscccccccsccsccccccccccccccccccsccccsscccssscccccsscsccccccscc" />
  </g>
</svg>
