<?xml version="1.0" encoding="UTF-8" standalone="no"?>
<!-- Created with Inkscape (http://www.inkscape.org/) -->

<svg
   xmlns:dc="http://purl.org/dc/elements/1.1/"
   xmlns:cc="http://creativecommons.org/ns#"
   xmlns:rdf="http://www.w3.org/1999/02/22-rdf-syntax-ns#"
   xmlns:svg="http://www.w3.org/2000/svg"
   xmlns="http://www.w3.org/2000/svg"
   xmlns:sodipodi="http://sodipodi.sourceforge.net/DTD/sodipodi-0.dtd"
   xmlns:inkscape="http://www.inkscape.org/namespaces/inkscape"
   width="256px"
   height="256px"
   viewBox="0 0 256 256"
   version="1.1"
   id="SVGRoot"
   inkscape:version="0.92.3 (2405546, 2018-03-11)"
   sodipodi:docname="mail.svg">
  <sodipodi:namedview
     id="base"
     pagecolor="#ffffff"
     bordercolor="#666666"
     borderopacity="1.0"
     inkscape:pageopacity="0.0"
     inkscape:pageshadow="2"
     inkscape:zoom="1"
     inkscape:cx="128"
     inkscape:cy="128"
     inkscape:document-units="px"
     inkscape:current-layer="layer1"
     showgrid="false"
     inkscape:window-width="3840"
     inkscape:window-height="2104"
     inkscape:window-x="-16"
     inkscape:window-y="-16"
     inkscape:window-maximized="1"
     inkscape:grid-bbox="true" />
  <defs
     id="defs42" />
  <metadata
     id="metadata45">
    <rdf:RDF>
      <cc:Work
         rdf:about="">
        <dc:format>image/svg+xml</dc:format>
        <dc:type
           rdf:resource="http://purl.org/dc/dcmitype/StillImage" />
        <dc:title></dc:title>
      </cc:Work>
    </rdf:RDF>
  </metadata>
  <g
     id="layer1"
     inkscape:groupmode="layer"
     inkscape:label="Layer 1">
    <path
       style="fill:#ffffff;stroke-width:0.315"
       d="m 50.970859,213.00999 c -0.4311,-0.2393 -1.711071,-0.35919 -3.358004,-0.31454 -2.219273,0.0602 -2.789231,-0.0284 -3.431081,-0.5333 -0.958662,-0.75409 -2.834172,-4.31423 -3.48596,-6.61715 -2.66789,-9.42626 -3.643366,-15.58272 -4.616769,-29.1375 -0.186622,-2.59875 -0.478322,-5.92988 -0.64822,-7.4025 -0.494563,-4.28668 -1.256595,-12.4182 -1.579304,-16.8525 -0.163909,-2.25225 -0.360961,-4.59113 -0.437891,-5.1975 -0.07693,-0.60638 -0.223381,-3.29963 -0.325445,-5.985 -0.102064,-2.68538 -0.316858,-6.72525 -0.477322,-8.9775 -0.160463,-2.25225 -0.369648,-7.56787 -0.464854,-11.8125 -0.09521,-4.24463 -0.269714,-11.19037 -0.387794,-15.435 -0.11808,-4.24463 -0.222796,-9.84375 -0.232703,-12.4425 -0.02073,-5.439099 0.412789,-19.204592 0.6228,-19.775502 0.07779,-0.211475 0.275539,-2.085498 0.439441,-4.164498 0.424147,-5.380071 0.708358,-6.145259 2.945078,-7.929101 0.254542,-0.203008 0.564039,-0.911758 0.687765,-1.575 0.453855,-2.432937 2.339203,-3.161123 9.619404,-3.71535 1.299375,-0.09892 3.283875,-0.250481 4.41,-0.33681 6.186402,-0.474249 10.605748,-1.066319 14.0175,-1.877958 1.962774,-0.466931 8.94595,-1.55621 13.104041,-2.044051 2.172561,-0.254888 8.86318,-0.583024 22.805959,-1.118492 5.63446,-0.216393 7.18229,-0.316937 11.4975,-0.746871 1.64588,-0.163983 3.20513,-0.302908 3.465,-0.308719 0.60323,-0.01348 6.19071,-0.844896 8.6625,-1.288955 1.0395,-0.186748 2.7405,-0.412247 3.78,-0.501105 1.0395,-0.08886 2.1735,-0.219306 2.52,-0.289888 0.3465,-0.07058 3.11062,-0.217083 6.1425,-0.325559 3.03187,-0.108477 6.64278,-0.328271 8.02424,-0.488436 1.38145,-0.160162 3.64945,-0.292276 5.04,-0.293583 1.39054,-0.0013 3.37876,-0.139706 4.41826,-0.307544 1.90973,-0.308347 9.54346,-0.806501 17.64,-1.151127 2.4255,-0.103241 12.53731,-0.206552 22.47068,-0.229581 l 18.06069,-0.04187 0.74546,0.86625 c 0.41,0.476438 1.02426,0.86625 1.36503,0.86625 0.34077,0 1.02089,0.195291 1.51136,0.433982 0.49048,0.238691 1.41205,0.680179 2.04794,0.981093 0.65219,0.308624 1.23127,0.846357 1.32846,1.233618 0.0948,0.377581 0.67256,1.328607 1.28398,2.113392 1.34438,1.72557 1.29616,0.95674 0.9658,15.397915 -0.20384,8.910266 -0.15772,11.91703 0.25605,16.695 0.724,8.360283 1.01476,19.7762 0.85846,33.705 -0.26251,23.39344 -0.0804,42.36341 0.42047,43.78861 0.0906,0.25789 0.3246,2.16989 0.51996,4.24889 0.19535,2.079 0.4059,4.20525 0.46787,4.725 0.062,0.51975 0.20125,2.646 0.30948,4.725 0.10824,2.079 0.25977,3.97516 0.33674,4.21368 0.077,0.23852 -0.0104,0.6148 -0.19412,0.83619 -0.2256,0.27183 -0.24866,1.38821 -0.071,3.43852 0.28312,3.26813 0.007,4.58889 -1.07639,5.1464 -0.31728,0.1633 -2.13613,0.76401 -4.04188,1.33493 -1.90575,0.57091 -3.67763,1.13981 -3.9375,1.26423 -1.40377,0.67206 -2.96326,0.95292 -4.2335,0.76243 -1.07168,-0.1607 -2.03667,-0.0128 -4.08864,0.62674 -1.47724,0.46039 -2.77682,0.9842 -2.88795,1.16402 -0.11113,0.17982 -0.64651,0.24836 -1.18973,0.15231 -0.63148,-0.11165 -1.44122,0.0396 -2.24526,0.41943 -0.82206,0.38833 -1.38258,0.49033 -1.6185,0.29453 -0.23065,-0.19143 -0.68626,-0.16833 -1.26242,0.064 -1.54413,0.62267 -2.0936,0.81078 -4.42363,1.51439 l -2.26213,0.6831 0.1718,1.05867 c 0.14303,0.88135 0.0607,1.09393 -0.4913,1.26914 -0.81333,0.25813 -1.25595,0.008 -1.60309,-0.90469 -0.29392,-0.77306 -1.32638,-0.84496 -2.96809,-0.20667 -0.50046,0.19458 -0.97671,0.287 -1.05832,0.20538 -0.0816,-0.0816 -0.6623,0.12705 -1.2904,0.46369 -0.62811,0.33664 -1.3213,0.61208 -1.54042,0.61208 -0.22044,0 -0.39842,0.37084 -0.39842,0.83013 0,0.95475 -1.30055,2.31987 -2.21015,2.31987 -0.70805,0 -1.38548,-1.09522 -1.11439,-1.80167 0.1549,-0.40366 0.10489,-0.42267 -0.27738,-0.10541 -0.30472,0.25289 -0.40475,0.69496 -0.28865,1.27551 0.13674,0.68368 0.0295,0.96778 -0.46516,1.23252 -0.94824,0.50749 -1.66855,0.41938 -1.83698,-0.22471 -0.0818,-0.31282 -0.56232,-0.72488 -1.06782,-0.91568 -0.76795,-0.28987 -1.04463,-0.24815 -1.6827,0.25377 -0.85551,0.67294 -1.45177,0.77624 -1.45177,0.25152 0,-0.21143 -0.29875,-0.27417 -0.75744,-0.15904 -1.16958,0.29354 -8.21103,1.49132 -14.99256,2.55028 -0.43313,0.0676 -1.52587,0.26894 -2.42832,0.44734 -4.37668,0.86519 -14.60344,2.17608 -19.93668,2.55551 -2.16563,0.15407 -6.98513,0.57595 -10.71,0.9375 -11.25382,1.09235 -12.60352,1.20611 -16.695,1.40714 -2.16563,0.1064 -5.28413,0.32266 -6.93,0.48058 -1.645875,0.15792 -3.98475,0.36743 -5.1975,0.46557 -4.024481,0.32569 -12.862902,1.35356 -13.7025,1.59355 -0.259875,0.0743 -3.3075,0.38011 -6.7725,0.67962 -5.726237,0.49498 -8.711486,0.59997 -13.23,0.4653 -1.419626,-0.0423 -4.740917,0.28371 -7.245,0.71117 -0.51975,0.0887 -1.258488,-0.0127 -1.641641,-0.22538 z m 30.512569,-17.69045 c 0.406489,-0.0631 2.227447,-0.20464 4.046572,-0.31453 1.819125,-0.10988 4.4415,-0.32795 5.8275,-0.4846 2.241398,-0.25332 6.758127,-0.692 11.34,-1.10136 0.86625,-0.0774 2.77987,-0.21987 4.2525,-0.31661 1.47263,-0.0967 3.74062,-0.30552 5.04,-0.46396 1.29938,-0.15844 3.85088,-0.45427 5.67,-0.65741 1.81912,-0.20315 5.36288,-0.71844 7.875,-1.14511 2.51212,-0.42668 5.52251,-0.9022 6.68974,-1.05673 3.99827,-0.52931 8.26138,-1.2689 10.78664,-1.87133 3.05747,-0.7294 8.24749,-1.89066 14.18112,-3.17302 2.4255,-0.52419 5.544,-1.22683 6.93,-1.56142 3.37095,-0.81379 6.70861,-1.4567 9.765,-1.88098 1.386,-0.1924 4.16763,-0.76162 6.1814,-1.26493 2.01377,-0.50331 5.69927,-1.35115 8.19,-1.88408 6.56683,-1.40508 8.94436,-2.0447 14.86509,-3.99919 l 5.29648,-1.74841 -0.0662,-4.60919 c -0.0364,-2.53505 0.10671,-11.83843 0.31803,-20.67418 0.21132,-8.83575 0.30408,-18.12038 0.20614,-20.6325 -0.0979,-2.51213 -0.2627,-8.96175 -0.36614,-14.3325 -0.10343,-5.37075 -0.24248,-10.19025 -0.309,-10.71 -0.19245,-1.503801 -0.4508,-10.813632 -0.60315,-21.735 -0.14792,-10.604633 -0.42175,-16.738385 -0.77744,-17.415033 -0.20701,-0.393804 -8.52499,7.655536 -15.71765,15.210033 -1.64952,1.7325 -5.48955,5.7015 -8.53341,8.82 -7.21263,7.389494 -16.07811,17.28354 -20.02418,22.34735 -1.51152,1.93967 -3.57596,4.24258 -6.19931,6.91543 -1.34294,1.36829 -2.48198,2.58653 -2.5312,2.70722 -0.0492,0.12069 -0.95966,1.19831 -2.0232,2.39472 -5.44504,6.12529 -11.06139,12.76234 -13.02879,15.3966 -0.43312,0.57994 -1.23502,1.27126 -1.782,1.53626 -0.91841,0.44497 -1.08712,0.43427 -2.205,-0.13976 -0.7203,-0.36987 -1.50993,-0.54795 -1.94991,-0.43976 -0.59383,0.14603 -0.99697,-0.10549 -2.0475,-1.27746 -0.99459,-1.10956 -2.15544,-1.86712 -4.84366,-3.1609 -1.94456,-0.93588 -4.77956,-2.45966 -6.3,-3.38619 -3.25855,-1.98571 -6.73337,-4.01635 -8.27693,-4.83694 -0.60637,-0.32236 -1.92032,-1.1144 -2.91987,-1.76009 -0.99955,-0.64569 -1.93424,-1.17398 -2.07708,-1.17398 -0.14284,0 -0.99768,-0.70756 -1.89965,-1.57235 -1.71799,-1.6472 -2.41768,-2.11466 -3.77856,-2.52442 -0.45228,-0.13619 -1.070402,-0.34842 -1.37359,-0.47162 -0.389242,-0.15818 -0.55125,-0.0752 -0.55125,0.28219 0,0.323 -0.271054,0.5062 -0.748931,0.5062 -0.881033,0 -1.540193,-0.67425 -1.29185,-1.32142 0.211302,-0.55065 -1.478922,-1.43572 -5.346627,-2.79974 -1.37901,-0.48634 -1.599967,-0.49535 -1.905319,-0.0778 -0.302094,0.41314 -0.527508,0.3839 -1.797705,-0.23321 -0.958554,-0.4657 -1.394943,-0.85505 -1.283593,-1.14523 0.127877,-0.33323 -0.02444,-0.39117 -0.629295,-0.23936 -0.941881,0.2364 -1.713959,-0.12902 -3.009163,-1.42423 -0.52198,-0.52198 -1.282794,-0.94905 -1.690697,-0.94905 -0.91091,0 -2.14182,-0.82146 -2.14182,-1.42936 0,-0.24675 -0.343942,-0.53496 -0.764316,-0.64047 -0.420377,-0.10551 -1.006321,-0.45924 -1.3021,-0.78607 -0.295778,-0.32683 -0.668644,-0.51337 -0.828585,-0.41452 -0.5382,0.33263 -1.829819,-0.19548 -1.838816,-0.75183 -0.01188,-0.73474 -4.947834,-3.53775 -6.229793,-3.53775 -0.562353,0 -1.344599,-0.32526 -1.893943,-0.7875 -0.514742,-0.43313 -1.03482,-0.7875 -1.155735,-0.7875 -0.486562,0 -1.621082,-1.134391 -1.499451,-1.499283 0.07157,-0.214714 -0.129723,-0.48751 -0.447316,-0.606218 -0.317595,-0.118708 -1.042634,-0.650343 -1.611199,-1.181414 -0.568563,-0.531071 -1.135563,-0.972553 -1.26,-0.98107 -0.762735,-0.0522 -1.534091,-0.546595 -1.804062,-1.156299 -0.190049,-0.4292 -0.866751,-0.895911 -1.729684,-1.192934 -1.036448,-0.356743 -1.444584,-0.676245 -1.51825,-1.188532 -0.05541,-0.385346 -0.409786,-0.864307 -0.7875,-1.064354 -0.377713,-0.20005 -1.749875,-1.454468 -3.04925,-2.787596 -2.380783,-2.442626 -4.122487,-3.640032 -4.874767,-3.351354 -0.224349,0.08609 -0.707931,-0.05362 -1.074622,-0.310458 -0.366695,-0.256841 -0.795331,-0.387497 -0.952529,-0.290345 -0.157194,0.09715 -0.285809,1.354825 -0.285809,2.794829 0,1.639524 -0.180473,3.050119 -0.48281,3.773712 -0.391129,0.936108 -0.405008,1.20141 -0.07309,1.39717 0.318311,0.187737 0.453162,2.771543 0.604466,11.581646 0.107116,6.237 0.263315,11.67235 0.347111,12.07856 0.0838,0.40621 0.182032,5.72183 0.218298,11.8125 0.03627,6.09067 0.174661,12.77494 0.307547,14.85394 0.132883,2.079 0.395536,6.54412 0.583673,9.9225 0.805039,14.45617 0.786706,14.28869 2.67235,24.4125 0.45177,2.4255 1.02186,5.85161 1.26687,7.61358 0.24501,1.76197 0.578765,3.74647 0.741674,4.41 0.162912,0.66353 0.473814,2.21372 0.690899,3.44487 0.38562,2.18697 0.4209,2.24609 1.533968,2.57073 1.046068,0.30509 27.051044,0.24055 29.065198,-0.0721 z m 53.118442,-73.82069 c 3.22428,-3.33928 10.00229,-10.74876 12.45427,-13.61456 0.66201,-0.77374 2.50476,-2.76293 4.095,-4.42044 2.88896,-3.01115 9.34152,-9.873479 12.48817,-13.281224 0.91662,-0.992679 2.00782,-2.268429 2.4249,-2.835 0.41707,-0.566569 1.63918,-1.894108 2.7158,-2.950086 1.07662,-1.055977 2.70206,-2.778413 3.61209,-3.827634 0.91003,-1.049224 6.26109,-6.557071 11.89125,-12.239665 5.63016,-5.682594 10.23665,-10.374346 10.23665,-10.426116 0,-0.460303 -19.20034,0.242544 -22.995,0.841753 -2.64274,0.417312 -13.97618,1.757753 -19.845,2.347131 -2.51213,0.25228 -7.18988,0.544795 -10.395,0.650034 -3.20513,0.105235 -6.25275,0.250091 -6.7725,0.321901 -0.51975,0.07181 -2.00813,0.213451 -3.3075,0.314764 -3.86531,0.30138 -10.53206,1.092241 -15.9075,1.887067 -4.52157,0.668572 -8.08748,1.07262 -13.86,1.570458 -4.184526,0.360883 -12.134994,1.11556 -14.805,1.405322 -1.55925,0.169221 -5.457375,0.531245 -8.6625,0.804498 -3.205125,0.273256 -7.812,0.703833 -10.2375,0.956841 -2.4255,0.253004 -6.678,0.678969 -9.45,0.946587 -2.772,0.267621 -5.2562,0.550806 -5.520447,0.629304 -0.264248,0.0785 -1.583669,0.282599 -2.932049,0.453559 -1.348379,0.170957 -2.685813,0.441904 -2.972075,0.602104 -0.567759,0.317734 -0.469545,0.387595 4.929703,3.506388 1.452074,0.838766 3.057081,2.030861 3.566685,2.649099 0.5096,0.618235 1.145173,1.124065 1.412381,1.124065 0.267208,0 0.930201,0.466896 1.473318,1.037547 0.543117,0.570654 2.192359,1.806849 3.664984,2.747102 1.472625,0.940253 3.306328,2.250896 4.0749,2.912541 0.768568,0.661642 3.320068,2.137883 5.67,3.280536 2.349928,1.142653 5.54835,2.819338 7.1076,3.725962 1.55925,0.906626 4.536,2.53254 6.615,3.613141 2.079,1.080601 3.992625,2.14709 4.2525,2.369975 0.259875,0.222888 2.1735,1.277577 4.2525,2.343756 2.079,1.06618 4.984875,2.64402 6.4575,3.5063 1.47263,0.86229 3.68058,2.04134 4.90656,2.62012 1.88367,0.88927 4.77139,2.63182 5.96464,3.59925 1.54522,1.25281 7.57517,4.72379 13.3838,7.70402 2.33888,1.20002 4.96125,2.58028 5.8275,3.06726 2.07007,1.16374 3.10169,1.17763 4.18437,0.0563 z"
       id="path69"
       inkscape:connector-curvature="0" />
  </g>
</svg>
