<?xml version="1.0" encoding="UTF-8" standalone="no"?>
<!-- Created with Inkscape (http://www.inkscape.org/) -->

<svg
   xmlns:dc="http://purl.org/dc/elements/1.1/"
   xmlns:cc="http://creativecommons.org/ns#"
   xmlns:rdf="http://www.w3.org/1999/02/22-rdf-syntax-ns#"
   xmlns:svg="http://www.w3.org/2000/svg"
   xmlns="http://www.w3.org/2000/svg"
   xmlns:sodipodi="http://sodipodi.sourceforge.net/DTD/sodipodi-0.dtd"
   xmlns:inkscape="http://www.inkscape.org/namespaces/inkscape"
   width="256px"
   height="256px"
   viewBox="0 0 256 256"
   version="1.1"
   id="SVGRoot"
   inkscape:version="0.92.4 (5da689c313, 2019-01-14)"
   sodipodi:docname="shop.svg">
  <defs
     id="defs23" />
  <sodipodi:namedview
     id="base"
     pagecolor="#ffffff"
     bordercolor="#666666"
     borderopacity="1.0"
     inkscape:pageopacity="0.0"
     inkscape:pageshadow="2"
     inkscape:zoom="8"
     inkscape:cx="72.85918"
     inkscape:cy="128.99544"
     inkscape:document-units="px"
     inkscape:current-layer="layer1"
     showgrid="false"
     inkscape:window-width="3840"
     inkscape:window-height="2104"
     inkscape:window-x="-16"
     inkscape:window-y="-16"
     inkscape:window-maximized="1"
     inkscape:grid-bbox="true" />
  <metadata
     id="metadata26">
    <rdf:RDF>
      <cc:Work
         rdf:about="">
        <dc:format>image/svg+xml</dc:format>
        <dc:type
           rdf:resource="http://purl.org/dc/dcmitype/StillImage" />
        <dc:title></dc:title>
      </cc:Work>
    </rdf:RDF>
  </metadata>
  <g
     inkscape:label="Layer 1"
     inkscape:groupmode="layer"
     id="layer1">
    <path
       style="fill:#ffffff;stroke-width:0.26099369"
       d="m -66.937932,277.57584 c -0.39667,-0.16004 -0.434019,-1.29567 -0.05043,-1.53278 0.484955,-0.29971 1.551124,0.12263 1.551124,0.61444 0,0.8345 -0.67889,1.24996 -1.500713,0.91834 z M 19.098085,234.0923 c -1.737446,-1.16069 -2.137198,-2.89692 -1.417373,-6.15607 0.303326,-1.37337 0.438988,-5.91148 0.652607,-21.8303 0.14832,-11.05308 0.353798,-22.21057 0.456605,-24.7944 0.247405,-6.21768 0.254383,-31.7049 0.01102,-41.237 -0.106139,-4.16285 -1.4579,-14.85975 -1.552479,-24.15285 -0.165288,-16.241501 -1.5874,-20.783951 -1.04061,-25.74146 -0.514402,-5.741113 -0.0728,-12.579764 -0.274938,-17.338119 0.192367,-0.643449 0.166201,-3.093586 0.166201,-3.093586 1.252855,-2.394979 1.610953,-2.384444 2.89485,-4.583813 1.579012,-0.968149 4.023942,-2.478901 5.433173,-3.357245 5.094604,-3.175358 6.364647,-3.917856 9.573963,-5.597115 3.312024,-1.733013 8.40232,-4.70495 11.483722,-6.70471 3.164868,-2.053918 4.664638,-2.96999 6.445026,-3.936634 0.976951,-0.530435 4.360113,-2.431649 7.518136,-4.224915 3.158024,-1.793266 7.11471,-3.938459 8.792647,-4.767077 1.677925,-0.828619 3.860433,-2.03034 4.850015,-2.670496 3.93777,-2.547321 15.086453,-8.222391 19.373037,-9.861546 1.220149,-0.466569 2.947443,-1.240664 3.838493,-1.720185 1.81302,-0.975738 2.77243,-1.075362 4.19544,-0.435682 2.08298,-0.189974 2.97727,0.450067 5.27675,0.499329 2.3685,0.03477 12.72932,-0.07299 13.94945,0.08471 2.76152,0.356933 24.89647,0.0998 29.80624,-0.255365 1.88622,-0.136348 6.60303,0.16314 9.6175,0.01734 3.01448,-0.145799 7.06641,-0.432035 9.00429,-0.636092 1.93787,-0.204057 5.46129,-0.441045 7.82981,-0.526664 2.36851,-0.08557 5.3047,-0.270884 6.52485,-0.411737 2.21571,-0.255768 9.48468,-0.569168 24.01141,-1.035273 4.23463,-0.135869 8.28656,-0.36435 9.00429,-0.507724 0.71773,-0.143388 4.41731,-0.383008 8.22129,-0.532492 11.75764,-0.462027 11.51972,-0.464475 12.32331,0.127069 0.81784,0.602025 1.50937,1.883966 1.50937,2.798032 0,0.461525 0.22799,0.731542 0.84822,1.004531 0.51712,0.227599 1.03038,0.745901 1.31486,1.327751 0.40228,0.82284 0.42432,1.122396 0.15977,2.172895 -0.18554,0.736853 -0.24735,2.061801 -0.15643,3.351981 0.10307,1.462789 0.0253,2.689313 -0.2474,3.901489 -0.31037,1.379581 -0.37447,2.985022 -0.29177,7.307822 -0.12331,39.587244 1.8382,68.712321 0.53767,98.504431 -0.20082,1.57902 -0.32481,4.22156 -0.27552,5.87236 0.0494,1.65078 0.16359,9.22612 0.25403,16.83408 0.0905,7.60797 0.23029,10.82626 0.31075,11.2569 0.0804,0.43063 0,0 0.0453,3.8647 -2.32635,4.25584 -2.13882,3.86582 -4.24255,6.07427 -0.29865,0.85664 -4.69311,7.24022 -6.28936,7.95898 -0.60631,0.273 -1.10238,0.58599 -1.10238,0.6955 0,0.10956 -0.6166,0.64345 -1.37022,1.18651 -0.75361,0.54305 -2.05982,1.57535 -2.90264,2.29398 -0.84285,0.71861 -2.10145,1.72302 -2.7969,2.23202 -3.928,2.87474 -8.18519,6.36543 -9.93938,8.1498 -1.10111,1.12004 -3.27387,3.04333 -4.82838,4.27401 -1.5545,1.23069 -3.82467,3.151 -5.04483,4.26741 -2.72996,2.49787 -6.49433,5.65029 -9.26527,7.75909 -1.14838,0.87398 -2.57745,1.98693 -3.17572,2.47324 -2.26191,2.78087 -2.46593,2.91581 -4.2638,5.07186 -0.41795,1.63075 -1.97976,2.77582 -3.31087,3.23713 -0.64243,0.22264 -2.88789,0.38719 -6.3447,0.46498 -4.41814,0.0994 -6.1462,0.0227 -9.91776,-0.44054 -4.50699,-0.55348 -5.0834,-0.56018 -43.58594,-0.50587 -45.095743,0.0637 -60.301108,0.27181 -63.029972,0.86299 -1.048052,0.22704 -3.162223,0.39851 -4.958881,0.40219 -1.722558,0.004 -4.54129,0.20501 -6.263848,0.44774 -2.789168,0.39305 -4.103072,0.41107 -12.00571,0.16475 -8.899125,-0.27737 -11.514669,-0.19623 -12.575782,0.39021 -0.942834,0.52105 -2.769323,0.38641 -3.762972,-0.27738 z m 26.126018,-8.03505 c 0.645959,-0.13912 3.464692,-0.36389 6.263848,-0.49949 2.799157,-0.13561 6.05711,-0.42204 7.239919,-0.6365 1.182771,-0.21447 3.355544,-0.45386 4.82837,-0.53198 1.472816,-0.0781 23.935793,-0.19945 49.91771,-0.26962 41.73247,-0.11274 47.60499,-0.0802 50.37178,0.2786 1.72256,0.2234 4.87499,0.47133 7.00534,0.55093 3.74419,0.70354 3.04413,-1.75089 2.87877,-6.23036 -0.14427,-4.02684 -0.10026,-5.09258 0.27804,-6.74054 0.92278,-4.01933 0.55963,-8.42043 0.41205,-19.09117 -0.10809,-7.81366 -0.25642,-11.03166 -0.65772,-14.26558 -0.28931,-2.33134 -0.57788,-6.65451 -0.65327,-9.78726 -0.0819,-3.40475 0.28635,-7.43884 -0.0181,-9.57672 -0.78761,-5.52997 -1.0146,-9.24782 -1.02769,-16.83408 -0.007,-3.87576 -0.11752,-7.86897 -0.24617,-8.87379 -0.12868,-1.00483 -0.30541,-4.05846 -0.39274,-6.78583 -0.14228,-4.44321 -0.48417,-9.32084 -0.80496,-11.48373 -0.0639,-0.43064 -0.23302,-3.36682 -0.37588,-6.52485 -0.14285,-3.15802 -0.37048,-6.79888 -0.50584,-8.0908 -0.13535,-1.291916 -0.38663,-4.110648 -0.55839,-6.263847 -0.17175,-2.153197 -0.48313,-4.619587 -0.69191,-5.480866 -1.07688,-4.442109 -1.37071,-6.198196 -1.3747,-8.216258 -0.003,-1.674325 -0.1432,-2.548336 -0.57439,-3.588663 l -0.57001,-1.37526 -18.02578,0.0086 c -20.43383,0.0098 -33.30502,0.307487 -38.6443,0.892054 -2.00964,0.220033 -7.17732,0.523212 -11.48372,0.673736 -4.306399,0.150537 -10.354919,0.445624 -13.441173,0.655754 -7.360833,0.501163 -24.10196,0.497136 -27.926326,-0.0061 -2.166063,-0.28538 -5.584946,-0.330698 -16.312105,-0.216238 -7.46442,0.07969 -13.6207,0.18911 -13.680635,0.243231 -0.05987,0.05411 -0.199687,0.714917 -0.310584,1.46842 -0.110911,0.753503 -0.377291,2.192139 -0.592011,3.196965 -0.52173,2.441564 -0.679662,5.523884 -0.862798,16.839172 -0.09573,5.9131 -0.04211,11.46143 0.141296,14.61565 0.162569,2.79635 0.35731,7.43323 0.432769,10.30416 0.07541,2.87094 0.19009,6.39435 0.254737,7.82982 0.829708,18.42493 0.979939,28.65428 0.686064,46.71788 -0.165814,10.19179 -0.299568,24.90204 -0.297229,32.68944 l 0.0049,14.15892 2.153199,0.0361 c 1.184252,0.0199 4.091076,0.11593 6.459593,0.21348 6.638078,0.27338 9.420171,0.27254 10.700742,-0.003 z M 38.67998,148.6007 c -1.883218,-1.19431 -2.590656,-2.21057 -2.590656,-3.72165 0,-1.10352 0.128428,-1.42891 0.893426,-2.26367 0.840639,-0.91729 0.985508,-0.97488 2.452031,-0.97488 1.163491,0 1.697144,0.12536 2.105051,0.49451 0.481749,0.43596 0.801649,0.47351 2.702583,0.31709 2.400002,-0.19746 7.975045,-1.25544 9.98597,-1.89501 2.02422,-0.64384 5.089377,-2.43075 5.089377,-2.967 0,-0.3313 -2.165966,-1.00937 -4.56739,-1.42988 -1.291918,-0.22622 -2.877455,-0.57227 -3.523414,-0.76903 -1.763715,-0.53718 -2.475242,-0.65089 -5.637464,-0.90089 -3.425407,-0.27083 -5.041218,-0.86776 -5.853824,-2.16256 -0.770041,-1.227 -0.60386,-3.22822 0.374622,-4.51106 2.201418,-2.88621 8.919287,-6.53079 14.497733,-7.86531 2.02641,-0.48477 6.097753,-0.47025 7.055815,0.0252 1.056413,0.54631 1.568827,1.38411 1.568827,2.5651 0,0.80884 -0.183638,1.19564 -0.914677,1.9267 -0.849589,0.84959 -0.993527,0.90144 -2.022702,0.72873 -3.254231,-0.54611 -6.361279,0.177 -11.025783,2.56601 -1.683298,0.86216 -1.961505,1.08362 -1.435466,1.14281 1.685393,0.18961 4.346855,0.68169 4.708819,0.87062 0.221355,0.11557 1.359751,0.34111 2.529816,0.50131 5.869957,0.8037 9.481977,2.71626 10.232262,5.41796 0.39313,1.41572 0.341298,4.1514 -0.09426,4.97897 -0.820048,1.55769 -3.916839,4.04627 -6.537083,5.25314 -4.04801,1.86452 -11.329012,3.41194 -16.053903,3.41194 -2.597487,0 -2.848431,-0.047 -3.939646,-0.73911 z m 46.084662,-2.11278 c -0.430632,-0.29208 -0.988511,-0.91318 -1.239712,-1.38021 -0.572619,-1.06457 -0.606377,-3.71381 -0.06871,-5.38964 0.213474,-0.66522 0.564246,-2.32525 0.779547,-3.68894 0.215258,-1.3637 0.470253,-2.76225 0.566577,-3.1079 0.157987,-0.56673 0.113482,-0.61072 -0.453253,-0.44779 -2.344427,0.67396 -4.870334,1.23827 -5.908677,1.32009 l -1.217975,0.096 -0.720519,2.30953 c -0.396299,1.27024 -0.842513,3.09412 -0.9916,4.05304 -0.149079,0.95894 -0.388723,2.05297 -0.532537,2.43119 -0.143782,0.37822 -0.261435,0.92275 -0.261435,1.21008 0,0.74475 -1.187358,2.2025 -2.102849,2.58169 -1.221416,0.50595 -2.859837,0.16785 -3.690267,-0.7615 -0.955712,-1.0695 -1.166514,-2.38609 -0.64771,-4.04481 0.229361,-0.73326 0.491065,-1.86171 0.58158,-2.50767 0.09047,-0.64597 0.557403,-2.4664 1.037523,-4.04541 1.385177,-4.55542 1.636793,-5.61793 1.8203,-7.68679 0.09488,-1.06972 0.326901,-2.42036 0.515599,-3.00143 0.188687,-0.58106 0.489124,-1.87862 0.667587,-2.88345 0.605558,-3.40936 1.678951,-4.82838 3.652317,-4.82838 0.554611,0 1.061312,0.2453 1.581733,0.76573 l 0.76573,0.76573 -0.148531,3.47542 c -0.08164,1.91147 -0.252568,3.94203 -0.379634,4.51231 -0.127109,0.5703 -0.195286,1.07273 -0.151494,1.11653 0.04381,0.0438 0.418896,-0.0527 0.833559,-0.21468 1.709987,-0.66749 5.02168,-1.58286 6.348839,-1.75485 1.353142,-0.17536 1.429357,-0.22629 1.642094,-1.09738 0.122717,-0.50242 0.438565,-1.5007 0.701913,-2.21844 0.263368,-0.71773 0.604748,-2.1271 0.758627,-3.13193 0.233193,-1.52267 0.413129,-1.94648 1.080359,-2.54468 1.012737,-0.90793 2.068295,-0.92808 3.100941,-0.0592 0.850736,0.71584 1.345319,2.34543 1.345319,4.4326 0,1.31072 -0.956823,7.08065 -2.098786,12.65639 -0.730807,3.5682 -1.021679,5.35725 -1.530094,9.41157 -0.241315,1.92433 -0.465767,2.44934 -1.434526,3.35546 -0.949962,0.88859 -3.108149,1.04353 -4.201872,0.30169 z m 19.809898,-0.14582 c -3.34764,-0.72831 -5.72158,-2.54824 -7.17923,-5.50379 -1.03394,-2.09644 -1.35723,-4.46582 -1.16055,-8.50576 0.17754,-3.64699 0.60211,-5.67032 1.61322,-7.68768 2.31787,-4.62482 10.30777,-8.82323 16.66995,-8.7595 2.73587,0.0275 6.08779,0.68545 6.91633,1.3578 0.35887,0.29123 1.35717,0.86285 2.21845,1.27033 3.22412,1.52531 5.69044,3.85979 7.16769,6.78458 0.49425,0.9786 0.57567,1.55259 0.56261,3.96621 -0.011,2.01338 -0.15241,3.2281 -0.49375,4.23921 -1.58596,4.6978 -5.74218,8.22438 -13.11919,11.13175 -4.98728,1.96552 -9.38933,2.53493 -13.19553,1.70685 z m 9.69445,-7.24284 c 5.08544,-1.76026 8.66157,-3.94603 10.05753,-6.1472 0.66234,-1.04442 0.76165,-1.4495 0.76165,-3.10662 0,-1.82772 -0.0392,-1.9489 -0.95691,-2.96478 -2.01432,-2.22963 -4.21126,-2.99959 -9.3622,-3.28112 -4.33675,-0.23705 -8.0032,0.3839 -9.63821,1.63233 -0.64346,0.49129 -1.39173,1.39734 -1.74267,2.10999 -0.54358,1.104 -0.62521,1.69015 -0.70319,5.05064 -0.10027,4.31842 0.13092,5.55374 1.23748,6.6139 1.02586,0.98283 2.01596,1.1936 5.11459,1.08875 2.1566,-0.0729 3.06536,-0.24595 5.23193,-0.99589 z m 18.8069,6.34608 c -2.17273,-1.43237 -2.21603,-3.17975 -0.16456,-6.64481 1.88834,-3.18958 4.9124,-11.55296 6.41652,-17.74562 0.42637,-1.75536 0.42385,-1.81519 -0.11617,-2.77596 -0.8804,-1.56649 -0.61556,-3.03129 0.74112,-4.09946 0.90648,-0.71371 3.62698,-1.38234 6.27584,-1.54245 3.77506,-0.2282 6.09912,0.26537 9.65669,2.05077 5.48871,2.75461 6.81102,3.86212 8.21086,6.87715 2.55142,5.49534 1.66598,8.3465 -3.36168,10.82438 l -2.10867,1.03927 -7.43833,0.0606 c -4.09107,0.0333 -7.67619,-0.0271 -7.9669,-0.13419 -0.47637,-0.17547 -0.60132,0.0309 -1.26473,2.08795 -1.52353,4.72421 -4.07171,9.41033 -5.48061,10.0789 -1.18796,0.56374 -2.4721,0.53485 -3.3994,-0.0764 z m 24.65025,-19.21059 0.77081,-0.3986 -0.65158,-1.28587 c -0.48224,-0.95161 -0.97433,-1.46854 -1.89304,-1.98859 -0.68276,-0.3865 -2.15836,-1.22914 -3.2791,-1.87257 -1.89277,-1.0866 -2.20168,-1.17919 -4.34134,-1.3012 l -2.30357,-0.13134 -0.46183,2.56492 c -0.254,1.4107 -0.47318,2.98238 -0.48706,3.49264 l -0.0253,0.92773 5.35038,0.0706 c 4.63025,0.0613 6.12438,0.12703 6.47255,0.28525 0.043,0.0196 0.42506,-0.14382 0.84902,-0.36306 z m 31.01666,89.80818 c 1.06131,-0.84518 2.5294,-2.05337 3.26242,-2.6849 0.73307,-0.63153 1.57189,-1.34714 1.86413,-1.59023 0.29221,-0.2431 1.52724,-1.38158 2.74455,-2.52994 1.21728,-1.14839 3.64573,-3.23734 5.39657,-4.64212 1.75083,-1.40478 3.62813,-3.09874 4.17178,-3.76433 0.54364,-0.66559 2.45652,-2.36879 4.25085,-3.78488 1.79434,-1.41609 3.90838,-3.08987 4.69789,-3.71955 0.7895,-0.62967 2.72738,-2.15417 4.30639,-3.38777 2.73599,-4.54429 8.11331,-6.98333 11.49218,-9.63872 1.55044,-0.26692 0.94046,-3.25673 1.71095,-4.16469 l 0.25,-1.0625 c 0,0 -0.35099,-1.05871 -0.27479,-2.87778 0.0526,-1.25545 -0.002,-6.20562 -0.1234,-15.10551 -0.18797,-13.88365 -0.16264,-16.60784 0.17826,-19.18304 1.90555,-40.334489 -0.30096,-68.304447 -0.31401,-98.011096 0,-3.487155 0.11287,-5.453837 0.3701,-6.445234 0.20354,-0.784707 0.3235,-1.473329 0.26655,-1.530277 -0.057,-0.05692 -0.72264,0.573647 -1.47932,1.40131 -0.75667,0.827677 -2.08046,2.010693 -2.94173,2.628925 -0.86128,0.618244 -2.03576,1.613827 -2.60994,2.212422 -0.95704,0.997727 -3.79997,3.125449 -4.17604,3.125449 -0.0876,0 -1.06297,0.567821 -2.1675,1.261804 -1.10454,0.693996 -2.83848,1.743627 -3.85318,2.332502 -1.01469,0.588889 -2.30661,1.48955 -2.87093,2.001461 -1.11623,1.012637 -5.09394,3.424233 -8.20335,4.973559 -1.07659,0.536445 -2.66821,1.479462 -3.53689,2.095601 -0.86873,0.616151 -2.20976,1.491899 -2.98011,1.946105 -1.46901,0.866163 -4.10935,2.933044 -7.18515,5.624622 -1.00482,0.879298 -2.59037,2.139119 -3.52342,2.799584 -0.93305,0.66048 -2.69568,2.060529 -3.91696,3.111224 -2.3026,1.980993 -6.56881,4.930699 -8.61073,5.953582 -0.64597,0.323586 -1.20046,0.609662 -1.23222,0.635738 -0.0317,0.02607 0.18476,0.537546 0.48114,1.136607 0.43011,0.86931 0.581,1.867562 0.7475,4.944644 0.1147,2.120487 0.33659,4.180722 0.49307,4.578296 0.52363,1.330578 1.01928,3.953565 1.19504,6.323968 0.0958,1.291919 0.40132,4.697886 0.67895,7.568817 0.27762,2.870937 0.50539,6.340727 0.50612,7.710657 0,1.36991 0.24154,4.77588 0.53515,7.56881 0.29363,2.79292 0.64408,7.9555 0.77881,11.47239 0.13474,3.51688 0.36342,7.39264 0.50816,8.61279 0.14475,1.22014 0.26621,5.56569 0.26995,9.65676 0.006,6.49 0.0919,8.07053 0.67476,12.39721 0.46283,3.43557 0.11752,7.48532 0.27135,12.18665 0.14136,4.32065 0.3809,7.63916 0.65938,9.13477 0.31466,1.68995 0.50518,4.94836 0.67912,11.61422 0.13296,5.0959 0.27341,9.85251 0.31205,10.57025 0.11054,2.05272 -0.17669,11.62991 -0.65568,13.65172 -0.57969,2.44685 -0.41091,7.20277 0.28285,7.96936 0.45204,0.49948 0.50449,0.46859 2.57559,-1.51631 1.16276,-1.11443 2.98247,-2.7177 4.04374,-3.56288 z M 84.764642,69.910858 c 2.870932,-0.216948 8.038614,-0.468688 11.483728,-0.559411 3.44512,-0.09072 8.84768,-0.391539 12.00571,-0.668471 8.03137,-0.704281 21.27095,-1.034194 41.50316,-1.034194 14.89165,0 17.49877,0.05643 18.51199,0.400402 1.07703,0.365648 1.25332,0.362478 2.03184,-0.0366 1.73609,-0.889937 6.95778,-4.578897 9.09075,-6.422317 1.21083,-1.046436 2.96489,-2.487582 3.89794,-3.202547 0.93305,-0.714966 2.63603,-2.109299 3.78442,-3.098542 3.83565,-3.304128 10.14695,-7.775468 12.97926,-9.195363 3.16908,-1.588731 6.68956,-3.708827 8.28378,-4.988664 0.93742,-0.752548 2.3872,-1.75321 3.22178,-2.22371 0.83456,-0.470486 2.36137,-1.397271 3.39292,-2.059524 1.03152,-0.662241 2.49188,-1.515599 3.24525,-1.896342 0.75334,-0.380743 2.1627,-1.427888 3.13192,-2.326981 0.96921,-0.899094 2.232,-1.97879 2.80618,-2.399318 0.57418,-0.420528 1.89685,-1.620915 2.93927,-2.667534 l 1.89527,-1.902941 -1.76477,-0.04003 c -4.09826,-0.09292 -7.25833,0.05558 -11.68257,0.549031 -2.94752,0.328725 -6.20511,0.511519 -8.74328,0.490623 -5.77644,-0.0475 -18.19895,0.288953 -21.27098,0.57623 -1.43547,0.134219 -3.90186,0.309214 -5.48087,0.388859 -8.58526,0.433039 -12.36499,0.64629 -15.65962,0.883522 -10.10456,0.727563 -16.77558,0.896536 -33.4072,0.84621 -10.25321,-0.0311 -18.67414,-0.170539 -20.3575,-0.337272 -1.57902,-0.1564 -4.2803,-0.359147 -6.00286,-0.450557 -3.01546,-0.160024 -3.18529,-0.14067 -4.56738,0.520506 -0.78951,0.377693 -2.84484,1.245474 -4.56739,1.928403 -4.80759,1.906025 -14.260101,6.706288 -17.727765,9.002666 -1.096845,0.726363 -3.076829,1.849934 -4.399964,2.496822 -3.814912,1.86515 -5.80964,2.922996 -9.637715,5.111131 -1.967967,1.124881 -3.646627,2.045251 -3.730349,2.045251 -0.258386,0 -7.398803,4.139223 -10.033334,5.816217 -4.086191,2.601026 -8.573862,5.241726 -11.628493,6.842577 -1.579011,0.827528 -3.399442,1.800721 -4.045402,2.162648 -0.645959,0.361938 -1.409366,0.788024 -1.696459,0.94686 -0.287093,0.158838 -1.520288,0.941634 -2.740433,1.739563 -1.220146,0.797928 -2.629511,1.70482 -3.131924,2.015319 l -0.913479,0.564541 14.87664,0.02167 c 11.060207,0.01616 15.579683,0.114215 17.617074,0.382578 3.540749,0.466288 19.113139,0.336157 26.490855,-0.221355 z"
       id="path47"
       inkscape:connector-curvature="0"
       sodipodi:nodetypes="ccscccssccsccccscccscsccccccssccscscscccccccccccccsccccccscccccccccccccccccscccccccccccccccccsccccscccccccccscccccccscscccsccccccsscccccccccscccccccccccccsccccccccsccccccccccccscccccccccccccccccccsccccccccccccsccscccccccccccccccccccccccccccccccccscccccccccsccccccccccccccccccccccccccccccccssscscscccccccsccccccsccccsccccsccccscccccc" />
  </g>
</svg>
