<?xml version="1.0" encoding="UTF-8" standalone="no"?>
<!-- Created with Inkscape (http://www.inkscape.org/) -->

<svg
   xmlns:dc="http://purl.org/dc/elements/1.1/"
   xmlns:cc="http://creativecommons.org/ns#"
   xmlns:rdf="http://www.w3.org/1999/02/22-rdf-syntax-ns#"
   xmlns:svg="http://www.w3.org/2000/svg"
   xmlns="http://www.w3.org/2000/svg"
   xmlns:sodipodi="http://sodipodi.sourceforge.net/DTD/sodipodi-0.dtd"
   xmlns:inkscape="http://www.inkscape.org/namespaces/inkscape"
   width="256px"
   height="256px"
   viewBox="0 0 256 256"
   version="1.1"
   id="SVGRoot"
   inkscape:version="0.92.3 (2405546, 2018-03-11)"
   sodipodi:docname="volume2.svg">
  <sodipodi:namedview
     id="base"
     pagecolor="#ffffff"
     bordercolor="#666666"
     borderopacity="1.0"
     inkscape:pageopacity="0.0"
     inkscape:pageshadow="2"
     inkscape:zoom="4"
     inkscape:cx="127.58239"
     inkscape:cy="123.88573"
     inkscape:document-units="px"
     inkscape:current-layer="layer1"
     showgrid="false"
     inkscape:window-width="3840"
     inkscape:window-height="2104"
     inkscape:window-x="-16"
     inkscape:window-y="-16"
     inkscape:window-maximized="1"
     inkscape:grid-bbox="true" />
  <defs
     id="defs49" />
  <metadata
     id="metadata52">
    <rdf:RDF>
      <cc:Work
         rdf:about="">
        <dc:format>image/svg+xml</dc:format>
        <dc:type
           rdf:resource="http://purl.org/dc/dcmitype/StillImage" />
        <dc:title></dc:title>
      </cc:Work>
    </rdf:RDF>
  </metadata>
  <g
     id="layer1"
     inkscape:groupmode="layer"
     inkscape:label="Layer 1">
    <path
       style="fill:#ffffff;stroke-width:0.35169679"
       d="m 50.152302,236.47965 c -0.523107,-0.15772 -2.84426,-1.68719 -5.158115,-3.39882 -2.313859,-1.71163 -5.130268,-3.77651 -6.258684,-4.58863 -2.578644,-1.85582 -7.146603,-6.32989 -8.868818,-8.68653 -1.856356,-2.54019 -7.348011,-11.27401 -8.536592,-13.57643 -0.549211,-1.06389 -1.153234,-2.17173 -1.342274,-2.46188 -0.18904,-0.29015 -1.197067,-2.34758 -2.240062,-4.57206 -1.042994,-2.22448 -2.392187,-5.09585 -2.998208,-6.38082 -0.606021,-1.28497 -1.100065,-2.47195 -1.097877,-2.63773 0.0022,-0.16578 -0.542175,-1.80492 -1.209695,-3.64253 -2.11692,-5.82768 -2.6831809,-8.96231 -3.102758,-17.17583 -0.3442637,-6.73922 -0.3179016,-7.92143 0.2586135,-11.59749 0.5908065,-3.76718 1.4511095,-6.91147 2.3745445,-8.67863 0.638329,-1.22156 4.244211,-4.59686 5.895678,-5.51868 0.87045,-0.48587 2.453085,-1.43837 3.516968,-2.11669 1.063883,-0.67831 3.5961,-2.06332 5.627149,-3.0778 4.27629,-2.13595 7.180771,-3.83633 9.700228,-5.67886 1.370741,-1.00245 2.224376,-2.0724 3.664314,-4.59286 2.696006,-4.71907 6.311839,-11.86951 8.064094,-15.94704 0.83125,-1.93433 1.703627,-3.83349 1.938613,-4.22036 0.234986,-0.38687 0.939027,-1.9695 1.56453,-3.51697 0.625507,-1.54746 1.909703,-4.475338 2.853767,-6.506387 0.944066,-2.031049 2.289834,-5.117189 2.990597,-6.858088 0.700759,-1.740899 1.761234,-4.273116 2.356608,-5.627149 0.595373,-1.354033 1.20498,-2.778405 1.354683,-3.165271 0.1497,-0.386867 0.983541,-2.365161 1.852978,-4.39621 0.869437,-2.031049 1.897457,-4.642398 2.284489,-5.802997 0.387032,-1.1606 1.721795,-4.642398 2.96614,-7.73733 1.244346,-3.094932 2.550101,-6.497598 2.901678,-7.561481 1.175877,-3.558226 3.253252,-7.537193 4.627099,-8.862661 0.741771,-0.715647 2.456518,-1.88053 3.810551,-2.588629 2.448734,-1.280577 2.478607,-1.286212 5.595911,-1.055857 5.310119,0.392395 8.14291,2.296784 18.154598,12.204723 5.97043,5.908548 9.2505,9.709089 15.32219,17.753475 1.91544,2.537767 5.06525,6.472927 6.99958,8.744807 2.98974,3.511457 5.72228,7.275971 12.13007,16.711152 4.77561,7.031863 10.7305,17.281383 11.44266,19.695023 0.14268,0.48358 0.8756,2.11014 1.6287,3.61458 0.7531,1.50443 1.77655,4.03664 2.27435,5.62714 0.49779,1.5905 1.11134,3.36661 1.36344,3.94691 0.2521,0.5803 1.19821,3.11251 2.10246,5.62715 0.90425,2.51463 1.88513,5.20511 2.17975,5.97884 0.29461,0.77373 0.92607,2.4355 1.40323,3.69282 0.86452,2.27799 4.0027,11.9214 4.74967,14.59542 0.21614,0.77373 0.61913,2.11897 0.89553,2.98942 0.54964,1.73093 1.22843,5.70829 1.86067,10.9026 0.22367,1.83762 0.62484,4.2907 0.89149,5.4513 1.6965,7.38409 2.27172,24.0659 1.20058,34.81798 -0.70085,7.03519 -1.27146,8.47771 -4.13197,10.4458 -1.5726,1.08197 -1.80577,1.13342 -5.77878,1.27507 -5.35315,0.19086 -13.10105,-0.99746 -30.87073,-4.73473 -2.22448,-0.46785 -5.15236,-1.00361 -6.50639,-1.19058 -1.35403,-0.18697 -2.85754,-0.49324 -3.34112,-0.68059 -0.93157,-0.36092 -8.81924,-1.56959 -12.66108,-1.94014 -5.72995,-0.55264 -11.958124,-1.28195 -13.825546,-1.61893 -1.985273,-0.35825 -2.141117,-0.3271 -5.451301,1.08974 -1.874178,0.80219 -3.661459,1.68613 -3.971733,1.9643 -0.501674,0.44977 -2.306111,1.42692 -7.738884,4.1908 -0.891428,0.45351 -2.207601,1.22278 -2.924823,1.70951 -0.717226,0.48672 -3.627936,2.01641 -6.46825,3.39931 -7.54838,3.67518 -8.524736,4.18286 -10.193513,5.30031 -1.208592,0.8093 -1.87965,1.00663 -3.341119,0.98247 -1.005829,-0.0166 -2.256772,-0.15927 -2.779879,-0.31698 z m 11.356867,-18.94633 c 3.764594,-1.52008 7.948657,-3.33855 9.297924,-4.04106 7.940913,-4.13447 10.879755,-5.33931 14.059203,-5.76388 1.577902,-0.21071 10.219662,0.37323 17.408994,1.17637 7.92801,0.88565 13.89296,1.45985 21.4535,2.06516 6.9555,0.55687 17.17704,1.72101 18.99163,2.16296 0.67037,0.16327 0.33037,-0.29014 -1.43121,-1.90863 -1.35635,-1.24618 -2.8813,-3.10777 -3.69282,-4.50802 -0.7603,-1.31188 -3.04517,-4.68817 -5.07749,-7.50288 -2.03232,-2.8147 -4.39512,-6.30462 -5.25066,-7.75537 -0.85553,-1.45075 -2.45268,-3.98296 -3.5492,-5.62715 -1.09653,-1.64418 -2.59883,-4.09726 -3.33845,-5.4513 -0.73962,-1.35403 -1.61109,-2.85753 -1.93659,-3.34112 -0.32551,-0.48358 -2.41797,-4.44017 -4.64991,-8.79242 -2.23195,-4.35225 -4.53365,-8.82732 -5.1149,-9.94461 -0.58124,-1.1173 -1.16363,-2.45705 -1.29418,-2.97723 -0.23433,-0.93362 -0.87567,-2.45763 -2.48032,-5.89394 -0.45164,-0.96716 -1.32047,-3.02459 -1.93074,-4.57205 -2.03704,-5.16538 -3.251011,-7.72945 -4.088661,-8.63582 -0.456699,-0.49417 -0.830363,-1.0761 -0.830363,-1.29318 0,-0.21708 -0.53089,-1.55366 -1.179753,-2.97018 -0.648866,-1.41652 -1.684941,-4.07899 -2.302387,-5.9166 -0.617449,-1.83762 -1.263516,-3.65765 -1.435703,-4.04452 -0.172188,-0.38686 -0.859065,-2.36516 -1.5264,-4.39621 -0.667334,-2.03105 -1.450116,-4.32587 -1.739517,-5.0996 -0.2894,-0.77373 -1.358583,-4.01814 -2.375958,-7.20978 -1.017378,-3.19165 -2.064646,-6.322729 -2.327269,-6.957949 -0.262619,-0.635221 -0.477492,-1.46825 -0.477492,-1.851181 0,-0.382928 -0.142124,-0.971046 -0.315827,-1.30693 -0.173706,-0.335885 -0.59487,-2.114201 -0.935918,-3.951817 -0.341051,-1.837615 -0.921786,-4.211569 -1.290523,-5.275452 -1.868111,-5.389855 -2.732751,-8.148069 -2.728675,-8.704513 0.0025,-0.338498 -0.266185,-1.772756 -0.597033,-3.187238 l -0.601542,-2.571787 -0.992538,2.571787 c -0.545897,1.414482 -1.492257,4.07529 -2.103027,5.912906 -3.057607,9.199414 -4.312208,12.554658 -6.2466,16.705598 -0.81128,1.740899 -1.839043,3.956586 -2.283919,4.923756 -1.069274,2.32461 -3.709599,8.59333 -3.709599,8.8074 0,0.23339 -1.358834,3.297 -1.974257,4.45115 -0.278365,0.52204 -0.719125,1.55075 -0.979465,2.28603 -0.260344,0.73528 -0.786711,2.04905 -1.169712,2.9195 -0.965774,2.19494 -2.00777,4.73512 -2.923888,7.12785 -0.427111,1.11554 -0.915354,2.11403 -1.084984,2.21886 -0.169631,0.10484 -0.308417,0.49029 -0.308417,0.85655 0,0.36627 -0.827001,2.61218 -1.837782,4.99093 -2.672526,6.28946 -3.878695,7.34254 -14.51612,12.6737 -1.547466,0.77554 -3.684024,1.74656 -4.747906,2.15783 -2.068488,0.79961 -10.449155,5.16458 -12.031111,6.26625 -0.913067,0.63586 -0.944977,0.76154 -0.767757,3.02377 0.164629,2.10151 0.841812,5.57627 2.379143,12.20784 0.655715,2.82856 4.321099,12.78754 5.115438,13.89883 0.348334,0.48732 0.751296,1.27864 0.895472,1.75848 1.020938,3.39785 12.047367,20.74498 17.311058,27.23432 1.741915,2.14751 6.660852,5.81838 7.796597,5.81838 0.342595,0 3.70302,-1.24371 7.467614,-2.76379 z m 93.245591,-26.58889 c -0.0226,-2.13547 -0.28234,-5.38617 -0.57726,-7.22379 -3.05838,-19.05618 -3.58387,-21.38331 -7.98133,-35.34553 -0.97477,-3.09493 -2.23155,-6.73499 -2.79286,-8.08902 -0.56131,-1.35404 -1.26767,-3.173 -1.5697,-4.04215 -0.46326,-1.33309 -4.75076,-9.81006 -6.82933,-13.50251 -0.33911,-0.6024 -1.15522,-2.04376 -1.81358,-3.20302 -1.47369,-2.59489 -2.30918,-4.11118 -3.61108,-6.55354 -0.55399,-1.03929 -1.20326,-2.12701 -1.44281,-2.41716 -0.23956,-0.29015 -1.07623,-1.7245 -1.85926,-3.18743 -2.83513,-5.29684 -8.91026,-13.97231 -13.40679,-19.145319 -1.17696,-1.354033 -3.2374,-3.741706 -4.57875,-5.305938 -3.27504,-3.819237 -7.57816,-7.754481 -9.621615,-8.799063 l -1.670559,-0.853962 v 1.306532 c 0,1.941451 0.727161,7.231171 1.090467,7.932585 0.173977,0.335885 0.31632,1.480091 0.31632,2.542683 0,1.062596 0.227801,2.528679 0.506229,3.257968 0.278424,0.729289 0.679298,2.275563 0.890826,3.436163 1.081182,5.932112 3.283442,14.849931 4.033982,16.335201 0.24957,0.49387 0.6521,1.531 0.89453,2.30473 0.41906,1.33749 6.59381,17.1162 7.56971,19.34332 0.25428,0.5803 1.04647,2.3212 1.76041,3.86867 0.71395,1.54746 1.9014,4.17486 2.63877,5.83866 0.73738,1.66379 2.20405,4.6708 3.25928,6.68224 1.05523,2.01143 3.69225,7.12185 5.86004,11.35647 2.16779,4.23463 4.29645,8.27035 4.73035,8.96827 0.43391,0.69792 1.13084,1.98113 1.54874,2.85158 0.4179,0.87045 1.78355,3.08614 3.03478,4.92376 1.25124,1.83761 3.13211,4.60723 4.17971,6.15469 2.27791,3.36481 10.06023,11.90056 12.83749,14.08033 2.50236,1.96402 2.65897,1.75254 2.60329,-3.51542 z"
       id="path76"
       inkscape:connector-curvature="0"
       sodipodi:nodetypes="cscccsssccsssscssssscscscsssccsssscscccscccccscccscscccccccssccscccsccccccccccccccscscscscsccccscssscssccccsscccsscscssccccccccccccscscsccccccccscscscc" />
  </g>
</svg>
