<?xml version="1.0" encoding="UTF-8" standalone="no"?>
<!-- Created with Inkscape (http://www.inkscape.org/) -->

<svg
   xmlns:dc="http://purl.org/dc/elements/1.1/"
   xmlns:cc="http://creativecommons.org/ns#"
   xmlns:rdf="http://www.w3.org/1999/02/22-rdf-syntax-ns#"
   xmlns:svg="http://www.w3.org/2000/svg"
   xmlns="http://www.w3.org/2000/svg"
   xmlns:sodipodi="http://sodipodi.sourceforge.net/DTD/sodipodi-0.dtd"
   xmlns:inkscape="http://www.inkscape.org/namespaces/inkscape"
   width="256px"
   height="256px"
   viewBox="0 0 256 256"
   version="1.1"
   id="SVGRoot"
   inkscape:version="0.92.3 (2405546, 2018-03-11)"
   sodipodi:docname="volume1.svg">
  <sodipodi:namedview
     id="base"
     pagecolor="#ffffff"
     bordercolor="#666666"
     borderopacity="1.0"
     inkscape:pageopacity="0.0"
     inkscape:pageshadow="2"
     inkscape:zoom="4"
     inkscape:cx="80.639354"
     inkscape:cy="138.58088"
     inkscape:document-units="px"
     inkscape:current-layer="layer1"
     showgrid="false"
     inkscape:window-width="3840"
     inkscape:window-height="2104"
     inkscape:window-x="-16"
     inkscape:window-y="-16"
     inkscape:window-maximized="1"
     inkscape:grid-bbox="true" />
  <defs
     id="defs21" />
  <metadata
     id="metadata24">
    <rdf:RDF>
      <cc:Work
         rdf:about="">
        <dc:format>image/svg+xml</dc:format>
        <dc:type
           rdf:resource="http://purl.org/dc/dcmitype/StillImage" />
        <dc:title></dc:title>
      </cc:Work>
    </rdf:RDF>
  </metadata>
  <g
     id="layer1"
     inkscape:groupmode="layer"
     inkscape:label="Layer 1">
    <path
       style="fill:#ffffff;stroke-width:0.34856746"
       d="m 50.471092,236.13607 c -0.518452,-0.15631 -2.818952,-1.67217 -5.112219,-3.36857 -2.293271,-1.6964 -5.08462,-3.74291 -6.202995,-4.5478 -2.5557,-1.83931 -7.083014,-6.27357 -8.789905,-8.60924 -1.839838,-2.51759 -7.282629,-11.1737 -8.460635,-13.45563 -0.544323,-1.05442 -1.142972,-2.15241 -1.33033,-2.43997 -0.187358,-0.28757 -1.186416,-2.32669 -2.22013,-4.53138 -1.033714,-2.20469 -2.370903,-5.05051 -2.971531,-6.32405 -0.600628,-1.27354 -1.090277,-2.44995 -1.088108,-2.61426 0.0022,-0.1643 -0.537351,-1.78885 -1.198931,-3.61012 -2.098084,-5.77582 -2.659307,-8.88256 -3.075151,-17.023 -0.3412001,-6.67925 -0.3150725,-7.85094 0.256313,-11.49429 0.58555,-3.73367 1.438198,-6.84998 2.353416,-8.60142 0.63265,-1.21069 4.206446,-4.55595 5.843219,-5.46957 0.862705,-0.48154 2.431258,-1.42558 3.485675,-2.09785 1.054416,-0.67228 3.564102,-2.04497 5.577079,-3.05042 4.23824,-2.11694 7.116878,-3.8022 9.613917,-5.62833 1.358544,-0.99353 2.204583,-2.05396 3.631709,-4.55199 2.672017,-4.67708 6.255678,-11.7639 7.992342,-15.80515 0.823853,-1.91712 1.688467,-3.79938 1.921363,-4.18281 0.232895,-0.38342 0.930671,-1.95197 1.550609,-3.48567 0.619941,-1.5337 1.892711,-4.43552 2.828374,-6.448498 0.935667,-2.012977 2.26946,-5.071656 2.963988,-6.797065 0.694524,-1.725409 1.745563,-4.235094 2.335639,-5.577079 0.590075,-1.341985 1.194258,-2.753683 1.342629,-3.137107 0.148368,-0.383424 0.97479,-2.344116 1.83649,-4.357093 0.861701,-2.012978 1.880574,-4.601091 2.264162,-5.751363 0.383588,-1.150273 1.706475,-4.601091 2.939748,-7.668484 1.233274,-3.067394 2.527411,-6.439784 2.87586,-7.494201 1.165414,-3.526565 3.224304,-7.470128 4.585927,-8.783802 0.735171,-0.709279 2.43466,-1.863797 3.776645,-2.565596 2.426946,-1.269183 2.456554,-1.274767 5.54612,-1.046462 5.26287,0.388904 8.070455,2.276348 17.993069,12.096127 5.9173,5.855975 9.16818,9.6227 15.18584,17.595507 1.8984,2.515187 5.02019,6.415332 6.93731,8.666998 2.96314,3.480212 5.67136,7.211229 12.02213,16.562458 4.73312,6.9693 10.63502,17.12761 11.34085,19.51978 0.14141,0.47928 0.86781,2.09136 1.6142,3.58241 0.7464,1.49105 1.76075,4.00073 2.25412,5.57708 0.49336,1.57635 1.10145,3.33665 1.35131,3.91179 0.24986,0.57513 1.18754,3.08482 2.08375,5.57708 0.8962,2.49225 1.86836,5.15879 2.16035,5.92564 0.292,0.76685 0.91783,2.41383 1.39075,3.65996 0.85683,2.25772 3.96708,11.81533 4.70741,14.46555 0.21421,0.76685 0.61362,2.10012 0.88756,2.96282 0.54475,1.71553 1.2175,5.65751 1.84411,10.80559 0.22169,1.82127 0.61929,4.25253 0.88356,5.4028 1.68141,7.31839 2.25151,23.85177 1.1899,34.50818 -0.69462,6.97258 -1.26015,8.40227 -4.09521,10.35285 -1.5586,1.07235 -1.7897,1.12333 -5.72736,1.26373 -5.30551,0.18916 -12.98448,-0.98859 -30.59604,-4.69261 -2.20469,-0.46368 -5.10651,-0.99468 -6.4485,-1.17998 -1.34198,-0.18531 -2.83211,-0.48885 -3.31139,-0.67454 -0.92329,-0.3577 -8.74076,-1.55562 -12.54843,-1.92287 -5.67896,-0.54773 -11.851717,-1.27054 -13.702523,-1.60453 -1.967608,-0.35506 -2.122065,-0.32418 -5.402796,1.08005 -1.857502,0.79505 -3.62888,1.67112 -3.936393,1.94682 -0.497211,0.44577 -2.285592,1.41422 -7.670025,4.15351 -0.883496,0.44947 -2.187958,1.2119 -2.898798,1.69429 -0.710844,0.48239 -3.595655,1.99847 -6.410696,3.36907 -7.481216,3.64248 -8.448885,4.14564 -10.102813,5.25315 -1.197838,0.8021 -1.862926,0.99767 -3.311391,0.97373 -0.996878,-0.0165 -2.236691,-0.15785 -2.755143,-0.31417 z m 11.255815,-18.77774 c 3.731097,-1.50655 7.877931,-3.30885 9.215192,-4.0051 7.870256,-4.09768 10.782949,-5.29181 13.934106,-5.7126 1.563862,-0.20884 10.128729,0.36992 17.254085,1.1659 7.85747,0.87777 13.76935,1.44686 21.26262,2.04679 6.89361,0.55192 17.0242,1.70569 18.82264,2.14372 0.66441,0.16182 0.32744,-0.28756 -1.41847,-1.89166 -1.34428,-1.23508 -2.85567,-3.08011 -3.65996,-4.4679 -0.75354,-1.30021 -3.01808,-4.64646 -5.03232,-7.43612 -2.01424,-2.78966 -4.35601,-6.24852 -5.20393,-7.68636 -0.84793,-1.43785 -2.43086,-3.94753 -3.51763,-5.57708 -1.08677,-1.62956 -2.5757,-4.06081 -3.30874,-5.4028 -0.73304,-1.34198 -1.59675,-2.83211 -1.91936,-3.31139 -0.32261,-0.47928 -2.39645,-4.40066 -4.60854,-8.71419 -2.21208,-4.31352 -4.49331,-8.74878 -5.06938,-9.85613 -0.57607,-1.10735 -1.15328,-2.43518 -1.28267,-2.95073 -0.23224,-0.92531 -0.86787,-2.43576 -2.45825,-5.8415 -0.44762,-0.95856 -1.30872,-2.99768 -1.91356,-4.53137 -2.01892,-5.11942 -3.222083,-7.66067 -4.05228,-8.55898 -0.452636,-0.48977 -0.822975,-1.06652 -0.822975,-1.28167 0,-0.21515 -0.526166,-1.53984 -1.169256,-2.94375 -0.643093,-1.40392 -1.669948,-4.0427 -2.2819,-5.86396 -0.611955,-1.82127 -1.252274,-3.6251 -1.422929,-4.00853 -0.170655,-0.38342 -0.851421,-2.34411 -1.512818,-4.35709 -0.661396,-2.01298 -1.437213,-4.28738 -1.724039,-5.05423 -0.286825,-0.76685 -1.346495,-3.98238 -2.354817,-7.14563 -1.008325,-3.16325 -2.046275,-6.266467 -2.306561,-6.896035 -0.260282,-0.629569 -0.473243,-1.455186 -0.473243,-1.834709 0,-0.379521 -0.14086,-0.962406 -0.313017,-1.295301 -0.172161,-0.332896 -0.589578,-2.095389 -0.927591,-3.916654 -0.338016,-1.821265 -0.913584,-4.174095 -1.27904,-5.228512 -1.851489,-5.341897 -2.708435,-8.075569 -2.704395,-8.627062 0.0024,-0.335486 -0.263817,-1.756982 -0.591722,-3.158879 l -0.596189,-2.548903 -0.983707,2.548903 c -0.541039,1.401897 -1.478978,4.039029 -2.084314,5.860294 -3.030401,9.117559 -4.273838,12.442949 -6.191018,16.556954 -0.804062,1.725409 -1.822681,3.921384 -2.263598,4.879944 -1.05976,2.30393 -3.676591,8.51687 -3.676591,8.72904 0,0.23131 -1.346743,3.26766 -1.956691,4.41154 -0.275887,0.5174 -0.712726,1.53695 -0.97075,2.26569 -0.258027,0.72873 -0.77971,2.03082 -1.159304,2.89352 -0.95718,2.17541 -1.989905,4.69299 -2.897871,7.06443 -0.423311,1.10561 -0.90721,2.09522 -1.075331,2.19912 -0.168121,0.1039 -0.305672,0.48592 -0.305672,0.84893 0,0.363 -0.819643,2.58893 -1.821429,4.94651 -2.648747,6.2335 -3.844183,7.27721 -14.386958,12.56093 -1.533697,0.76865 -3.651244,1.73103 -4.705661,2.13863 -2.050082,0.7925 -10.356179,5.11863 -11.924059,6.2105 -0.904943,0.6302 -0.936569,0.75476 -0.760926,2.99687 0.163165,2.08281 0.834322,5.52664 2.357974,12.09921 0.649881,2.80339 4.282651,12.67376 5.069922,13.77516 0.345234,0.48299 0.744611,1.26727 0.887504,1.74284 1.011854,3.36761 11.940171,20.56039 17.157026,26.99198 1.726417,2.12841 6.601586,5.76662 7.727225,5.76662 0.339547,0 3.67007,-1.23264 7.401168,-2.7392 z m 92.415913,-26.3523 c -0.0224,-2.11647 -0.27983,-5.33825 -0.57213,-7.15952 -3.03117,-18.88662 -3.55199,-21.19305 -7.91032,-35.03103 -0.96609,-3.06739 -2.21169,-6.67506 -2.768,-8.01705 -0.55632,-1.34198 -1.2564,-3.14476 -1.55574,-4.00618 -0.45913,-1.32123 -4.70848,-9.72278 -6.76856,-13.38237 -0.33609,-0.59704 -1.14494,-2.02557 -1.79745,-3.17452 -1.46057,-2.57179 -2.28863,-4.0746 -3.57894,-6.49522 -0.54907,-1.03005 -1.19256,-2.10809 -1.42998,-2.39566 -0.23742,-0.28757 -1.06664,-1.70915 -1.84271,-3.15906 -2.80991,-5.24971 -8.83098,-13.847991 -13.2875,-18.974973 -1.16649,-1.341984 -3.2086,-3.708412 -4.53801,-5.258725 -3.2459,-3.785255 -7.51073,-7.685484 -9.536002,-8.720771 l -1.655695,-0.846364 v 1.294908 c 0,1.924176 0.720691,7.166829 1.080764,7.862001 0.17243,0.332896 0.313505,1.466922 0.313505,2.520059 0,1.053141 0.225775,2.506179 0.501725,3.228979 0.275947,0.7228 0.673255,2.255315 0.8829,3.405588 1.071563,5.879329 3.254223,14.717798 3.998093,16.189858 0.24734,0.48947 0.6463,1.51737 0.88656,2.28422 0.41534,1.32559 6.53515,16.9639 7.50236,19.17121 0.25202,0.57513 1.03716,2.30054 1.74475,3.83424 0.7076,1.5337 1.88448,4.13771 2.61529,5.78671 0.73081,1.64899 2.18444,4.62924 3.23028,6.62278 1.04584,1.99354 3.6594,7.05848 5.8079,11.25543 2.1485,4.19694 4.25821,8.19676 4.68826,8.88847 0.43004,0.69171 1.12077,1.9635 1.53495,2.82621 0.41418,0.8627 1.76768,3.05868 3.00779,4.87994 1.24009,1.82127 3.10423,4.56623 4.14252,6.09993 2.25764,3.33486 9.97071,11.79467 12.72326,13.95505 2.48009,1.94654 2.6353,1.73694 2.58013,-3.48414 z m 69.12441,-2.61737 c -0.93341,-1.03141 -0.59523,-5.64152 0.66559,-9.07353 1.81779,-4.9481 3.26921,-10.30285 4.06397,-14.99323 1.13863,-6.71989 1.16078,-18.56232 0.0531,-28.40341 -0.97104,-8.62727 -1.04362,-9.10871 -1.89168,-12.54843 -0.37813,-1.5337 -0.98149,-4.04338 -1.34081,-5.57708 -0.99126,-4.23106 -6.96013,-19.738135 -9.19051,-23.876872 -1.86287,-3.456775 -2.83102,-5.171709 -3.34525,-5.925647 -0.6869,-1.007077 -4.16809,-7.066476 -6.1078,-10.631307 -1.67884,-3.085397 -3.03092,-5.113052 -4.88105,-7.319917 -0.80361,-0.95856 -1.72503,-2.213403 -2.0476,-2.788539 C 197.97,64.977066 191.19893,57.187381 187.12572,53.308 c -3.68975,-3.514163 -11.61298,-9.934173 -12.26022,-9.934173 -0.12391,0 -1.5683,-0.980346 -3.20976,-2.178546 -5.04297,-3.681173 -6.59675,-4.75433 -6.91199,-4.773948 -0.16663,-0.01037 -1.18619,-0.554547 -2.26569,-1.209282 -3.52954,-2.140736 -7.96954,-4.337597 -9.25334,-4.578438 -1.74263,-0.32692 -2.64355,-1.675351 -2.64355,-3.956686 0,-1.555257 0.15869,-1.950811 1.28093,-3.193006 0.70452,-0.779812 1.71629,-1.642968 2.24838,-1.918125 2.26736,-1.172499 9.05899,-0.02042 12.30716,2.087684 0.9714,0.630456 2.62889,1.614785 3.68331,2.187396 2.76866,1.503552 5.93481,3.482254 6.7711,4.231635 0.3977,0.356376 2.44851,1.801221 4.55734,3.210768 7.37815,4.931565 8.4979,5.839785 18.45712,14.970493 4.47777,4.105263 13.09415,14.010135 15.17964,17.449604 0.67099,1.106624 2.64579,4.02503 4.38843,6.485344 3.02227,4.266919 3.90993,5.766279 7.91049,13.361769 0.95926,1.821265 2.03525,3.727744 2.39108,4.236618 0.35583,0.508874 0.64697,1.032077 0.64697,1.162671 0,0.130594 0.49307,1.282795 1.09572,2.560448 0.60264,1.277653 1.21794,2.636714 1.36734,3.020138 0.1494,0.383424 0.77308,1.951978 1.38596,3.485676 2.29828,5.75131 3.15089,8.77121 4.33013,15.33697 0.30989,1.72541 0.77548,4.07824 1.03465,5.22851 0.89017,3.95084 1.94263,15.53928 1.93605,21.31743 -0.007,5.88667 -1.32092,19.08871 -2.24296,22.53193 -0.2977,1.1117 -0.54127,2.39161 -0.54127,2.84425 0,0.45264 -0.47057,2.26297 -1.04571,4.02295 -0.57513,1.75999 -1.0457,3.37159 -1.0457,3.58134 0,0.20976 -0.30549,1.0191 -0.67887,1.79855 -0.37338,0.77945 -1.21345,2.69203 -1.86683,4.25019 -1.51968,3.62406 -2.66318,5.09961 -5.2594,6.7866 -2.45052,1.59231 -4.54586,1.84424 -5.605,0.6739 z m -26.48111,-2.17974 c -0.29843,-0.42607 -0.53887,-1.32799 -0.5343,-2.00426 0.009,-1.27422 0.0767,-1.58851 1.47346,-6.80665 0.46187,-1.72541 1.03093,-3.99981 1.26459,-5.05422 0.23366,-1.05442 0.57149,-2.54455 0.75075,-3.3114 1.139,-4.8727 1.37512,-15.24211 0.48814,-21.43689 -0.28823,-2.01298 -0.66432,-5.30694 -0.83577,-7.31992 -0.38077,-4.47062 -1.00754,-8.69687 -1.40054,-9.44369 -0.16069,-0.30537 -0.70763,-2.26606 -1.21542,-4.35709 -1.72771,-7.11448 -4.25797,-14.1757 -6.67073,-18.61599 -0.57295,-1.05442 -1.40496,-2.77983 -1.84893,-3.83425 -2.24554,-5.333147 -10.45232,-17.384571 -15.19152,-22.308313 -1.19942,-1.246128 -3.45616,-3.728368 -5.01498,-5.516087 -1.55881,-1.787719 -3.65336,-3.949611 -4.65454,-4.804204 -1.00119,-0.854593 -1.94743,-1.780918 -2.10277,-2.058496 -0.15534,-0.277579 -1.02141,-0.922941 -1.9246,-1.434139 -3.94418,-2.23238 -7.97425,-4.974581 -9.87379,-6.718471 l -2.05111,-1.883038 v -2.188895 c 0,-2.050274 0.0685,-2.237654 1.08131,-2.95885 1.47087,-1.047348 5.07622,-1.306403 7.67347,-0.551364 4.14131,1.203914 13.06434,7.331332 19.61113,13.4669 1.55698,1.459191 3.30145,3.010605 3.87658,3.44759 1.81067,1.375726 9.64634,9.887946 12.42055,13.492963 2.81427,3.657082 3.09382,4.086378 5.88324,9.034533 0.97265,1.725409 1.91589,3.372391 2.09607,3.659959 0.66046,1.054082 3.05823,6.488782 3.46021,7.842772 0.22767,0.76684 0.55446,1.70798 0.72619,2.0914 0.59569,1.32993 1.67378,4.90227 2.78764,9.23704 0.61578,2.3964 1.23756,4.51395 1.38175,4.70566 0.14418,0.19171 0.34904,0.81913 0.45524,1.39427 0.10621,0.57513 0.45323,2.22212 0.77117,3.65996 2.5158,11.37727 2.66284,12.68941 2.71469,24.22543 0.0432,9.60831 -0.0158,10.74438 -0.72648,13.99746 -0.42541,1.94723 -0.77348,4.03635 -0.77348,4.64249 0,2.44456 -2.45618,10.48332 -4.32323,14.14941 -1.18047,2.31791 -4.69212,4.33308 -7.55087,4.33308 -1.34144,0 -1.78998,-0.15631 -2.22312,-0.7747 z m -21.81423,-6.73035 c -0.55811,-0.67248 -0.2285,-6.41208 0.52982,-9.22619 1.07885,-4.00356 0.53605,-12.80793 -1.37533,-22.30832 -1.47225,-7.3177 -1.68379,-8.17148 -2.16587,-8.74163 -0.25591,-0.30266 -0.46529,-0.96382 -0.46529,-1.46923 0,-1.04423 -0.72684,-3.36425 -1.93356,-6.17181 -0.4532,-1.05441 -0.99443,-2.58581 -1.20273,-3.40311 -0.2083,-0.81729 -0.84269,-2.01441 -1.40976,-2.66027 -0.56707,-0.64585 -1.03103,-1.48461 -1.03103,-1.8639 0,-0.37929 -0.36855,-1.23271 -0.81901,-1.89649 -0.45045,-0.66378 -1.11155,-1.97972 -1.46911,-2.92432 -0.84875,-2.24222 -2.49704,-5.15561 -4.2899,-7.5825 -0.79147,-1.07138 -1.43903,-2.24721 -1.43903,-2.61297 0,-0.36575 -0.2745,-1.04089 -0.61,-1.50029 -0.33549,-0.45941 -0.76684,-1.08977 -0.95856,-1.4008 -0.94554,-1.53402 -3.06688,-4.50388 -3.33578,-4.67007 -0.16738,-0.10345 -0.62539,-0.91391 -1.0178,-1.801025 -0.39242,-0.887114 -1.0243,-1.830645 -1.4042,-2.096731 -0.37989,-0.266089 -0.69071,-0.680839 -0.69071,-0.921668 0,-0.240832 -0.47057,-0.888704 -1.04571,-1.439719 -0.57513,-0.551016 -1.04645,-1.168569 -1.04737,-1.372342 -0.002,-0.498852 -2.08256,-2.735588 -3.26466,-3.510133 -0.52366,-0.343116 -1.188,-1.080009 -1.47631,-1.637539 -0.28831,-0.55753 -1.51483,-1.985151 -2.7256,-3.172486 -2.70013,-2.647879 -2.98878,-3.185576 -2.98878,-5.567529 0,-2.728945 0.56133,-3.136027 4.06632,-2.948902 3.18517,0.170049 4.6113,0.667866 7.29629,2.546892 8.2825,5.796318 16.96811,16.183966 23.43303,28.024992 0.67699,1.23997 1.6069,2.80853 2.06646,3.48567 0.45956,0.67715 1.61972,2.87816 2.57814,4.89114 0.95843,2.01298 1.89567,3.94497 2.08277,4.29332 0.6651,1.23833 2.43243,6.01144 2.73394,7.38369 0.16849,0.76685 0.56896,2.10012 0.88993,2.96282 0.78807,2.11816 1.77085,5.76091 2.63314,9.75989 0.93088,4.3171 1.32859,17.52671 0.69263,23.00545 -0.37788,3.25541 -0.65413,4.67131 -1.75369,8.98821 -0.64598,2.53611 -2.26892,5.88955 -3.36779,6.95876 -1.04643,1.01817 -1.37216,1.13284 -3.21812,1.13284 -1.41896,0 -2.19076,-0.16498 -2.49677,-0.5337 z"
       id="path48"
       inkscape:connector-curvature="0" />
  </g>
</svg>
